<?xml version="1.0" encoding="utf-8"?>
<!-- Generator: Adobe Illustrator 20.0.0, SVG Export Plug-In . SVG Version: 6.00 Build 0)  -->
<!DOCTYPE svg PUBLIC "-//W3C//DTD SVG 1.1//EN" "http://www.w3.org/Graphics/SVG/1.1/DTD/svg11.dtd">
<svg version="1.1"
    id="svg4423" xmlns:dc="http://purl.org/dc/elements/1.1/" xmlns:cc="http://creativecommons.org/ns#" xmlns:rdf="http://www.w3.org/1999/02/22-rdf-syntax-ns#" xmlns:svg="http://www.w3.org/2000/svg" xmlns:sodipodi="http://sodipodi.sourceforge.net/DTD/sodipodi-0.dtd" xmlns:inkscape="http://www.inkscape.org/namespaces/inkscape" inkscape:version="0.48.2 r9819" sodipodi:docname="JC.svg"
    xmlns="http://www.w3.org/2000/svg" xmlns:xlink="http://www.w3.org/1999/xlink" x="0px" y="0px" width="744.094px"
    height="1052.363px" viewBox="0 0 744.094 1052.363" enable-background="new 0 0 744.094 1052.363" xml:space="preserve">
<path id="rect11482" fill="#FFFFFF" stroke="#000000" stroke-width="0.9967" d="M10.227,0h194.319c5.648,0,10.226,4.58,10.226,10.227v279.544c0,5.648-4.578,10.229-10.226,10.229H10.227C4.579,300,0,295.42,0,289.771V10.227C0,4.58,4.579,0,10.227,0z"/>
<path fill="#E2CF00" d="M60.191,268.527c-0.803,1.148-4.287-6.866-6.523-12.939c-1.099-2.984-2.567-5.444-1.961-6.228c1.594-1.61,5.717-0.169,8.715,2.129c3.205,2.46,5.467,6.074,5.467,6.074L60.191,268.527zM32.083,262.585l-0.097-4.47c2.76-2.482,6.699-6.069,10.711-10.704l-10.411,0.065l-0.818-3.89L31.359,73.679c0,0,11.414,11.813,11.706,11.817c0.172,0.002,0.02,70.544,0.084,117.714c0.093,0.221-6.015,0.083-6.417,3.17c-0.265,2.04,6.626,1.757,6.735,1.895c-0.015,21.202-0.308,36.423-0.161,36.425c5.232,0,6.331,0.207,6.331,0.207C43.737,251.004,37.604,255.99,32.083,262.585L32.083,262.585zM69.277,240.756c-0.921-1.83-2.385-8.866-3.507-8.699c-5.148,1.704-6.807-5.883-1.479-6.272c2.018-0.148,4.27,2.476,5.533,5.743C70.432,233.24,69.806,241.44,69.277,240.756L69.277,240.756zM70.438,230.203c-1.519-2.475-2.972-11.523-5.739-11.012c-2.526,0.576-4.143-1.634-3.896-3.57c1.296-5.438,10.551-0.273,12.979,0.982C72.581,219.333,70.879,226.141,70.438,230.203zM51.026,205.386c-0.66-0.271,1.029-3.001,1.046-6.147c0.02-3.564-1.605-7.501-1.414-8.073c6.057-4.747,14.292-9.862,15.789-7.143c1.541,11.565,0.744,17.997-0.983,26.631l-1.141,0.597c0,0-1.914-0.361-3.333-1.091l-7.459-3.748L51.026,205.386zM148.449,118.079c-1.12-8.909-0.305-22.774,1.285-28.259c0.611-1.856,12.145,5.825,13.066,6.396c0.862,0.537,1.277,0.456,0.755,2.799c-0.602,2.706-0.506,5.89,0.346,9.516c0.317,1.354,0.565,1.88-0.284,2.473C162.733,111.622,148.743,118.979,148.449,118.079L148.449,118.079zM142.978,81.102c0.239-0.573,1.19-7.242,1.486-7.268c0.966-0.083,2.384,6.532,4.848,8.716c4.652-0.538,5.198,2.612,4.287,4.133c0.224,0.667-1.502,2.12-3.115,1.98C146.472,87.099,141.062,85.715,142.978,81.102zM80.752,75.67c-1.311-0.923,1.177-7.57,8.26-6.045c3.047-5.735,3.213-18.668,4.687-19.47c2.218-0.82,24.818-7.089,24.146-1.624c-0.724,5.869-1.89,34.141-10.4,41.087c-0.856,1.015,13.468,10.698,13.468,10.698s15.104-9.401,14.243-9.261c-0.373,0.1-0.667,7.997-0.888,20.768c-0.214,12.327,1.59,21.15,5.347,34.188c-0.477,1.578,2.875,9.462,6.625,17.281c4.25,8.866,10.003,17.816,10.003,17.816c-9.889-3.328-18.975-2.03-30.062-5.837l-0.541,43.814c0,0,5.739,2.995,6.845,4.373c0.54,0.671,0.602,1.61,0.663,2.459c0.241,3.309-2.557,7.244-7.879,5.948c-1.668,5.834-4.061,19.56-4.152,19.554c-8.124,1.091-16.357,2.268-24.585,1.829c0,0,1.23-4.409,1.702-11.035c0.172-2.416,0.294-5.013,0.577-7.779c1.042-10.186,4.04-21.308,8.878-22.022c-0.954,0.38-12.28-9.385-13.824-10.083c-6.368,3.323-14.734,8.894-14.734,8.894s1.103-8.072,1.152-16.53c0.053-9.065-0.588-19.086-0.875-21.693c-2.195-14.941-8.301-28.539-13.234-38.713c-1.983-4.088-4.947-10.629-4.947-10.629c7.272-0.837,15.509-0.44,28.359,3.397c0,0-0.721-44.221-0.727-43.975c0.116,0.394-3.303-1.408-6.436-3.397C80.743,78.62,80.916,75.786,80.752,75.67L80.752,75.67zM144.892,65.757c0.052-0.449,0.26-5.444,0.26-5.444c2.011,2.358,3.633,9.269,4.034,9.153c0,0,2.583-0.406,3.388,0.45c2.621,2.787,0.043,6.079-2.576,5.464C147.391,74.709,144.527,70.255,144.892,65.757L144.892,65.757zM171.614,215.682c0,0-0.685-78.039-0.669-117.344c2.801-0.459,5.704,1.405,8.328-2.583c-1.388-2.874-5.352-1.999-8.334-2.58l-0.025-36.241c0,0-4.972-0.086-4.978-0.413c-0.004-0.3,2.563-2.715,7.421-7.792c0.583-0.611,1.574-1.668,2.202-2.351c2.453-2.672,6.344-7.121,6.53-6.941c1.528,1.295,1.368,3.401-5.726,9.988c-5.17,4.799-5.369,4.479,0.349,4.398c5.453-0.1,6.147-0.554,5.383,1.41c0.011,0.8,0.632,1.426,0.487,1.551c-0.158,0.135,0.036,170.493,0.036,170.493L171.614,215.682zM154.957,33.92c0.038,0.1,0.751,0.371,1.522,1.222c3.142,5.148,4.773,11.667,7.243,16.167c-5.114,2.271-12.209-2.772-13.922-7.183C147.72,38.575,153.804,30.861,154.957,33.92z"/>
<path fill="#131F67" d="M30.005,26.696l0.2,247.374l154.712,0.229L184.253,26.41L30.005,26.696zM81.234,78.705c0.209,0.398,0.552,0.974,0.552,0.974s-0.374,0.098-0.633,0.267c-17.903,6.621-37.266,21.375-37.601,21.809l0.342-16.332L31.889,72.946l0.045-44.25h46.559l13.654,22.829c-0.821,5.98-2.947,17.556-2.947,17.556c-1.253-0.303-5.482-0.7-7.766,2.575C80.346,73.218,79.765,75.347,81.234,78.705L81.234,78.705zM168.522,129.633l1.768-2.24l-3.117,0.143l2.14-2.321l-3.45-0.08l2.691-2.284l-3.631-0.042l2.699-2.247l-3.974,0.18l2.847-2.444l-3.929,0.017l2.929-2.459l-3.843-0.054l2.498-2.208l-3.354-0.039l3.792-2.662c1.62,0.708,3.792,1.108,5.978,1.156l0.044,17.922L168.522,129.633zM171.242,98.554c8.866,0.03,10.76-4.706,0.047-5.459c0,0-0.84-23.501-0.598-33.229c0-1.188,0.113-2.523,0.113-2.523l-5.835-0.148c0,0,15.647-16.888,17.123-18.26c1.336,56.765,1.275,188.56,1.275,188.56l-11.955-11.96l-0.132-37.265c-4.002-4.054-6.295-9.965-8.677-13.795l-6.538-3.175l1.536-5.252l-0.659-1.494l-2.041,7.43l7.155,3.399l0.755,1.538l-1.203,7.001l6.769,2.323l1.172,1.608l-0.424,6.838l1.4,0.427l0.016,1.355l-1.406-0.118l-0.501,7.677l1.911,0.562l-0.004,1.733c-0.002-0.03-1.114,0.007-1.662-0.04c-0.756-0.41-1.998-2.026-1.998-2.026l0.675-8.524l-8.58-1.72l-0.639-0.904l1.579-8.519l-9.008-2.755c0.924,2.274,2.15,4.401,3.17,6.641c-1.237,0.359-2.529,0.438-3.781,0.706c-0.339,11.513,0.053,23.489-0.307,34.318c-7.25,0.522-3.849-0.168-7.001-0.12c-1.234,0-2.234,1.001-2.234,2.235c0,0.789,0.408,1.48,1.026,1.879l-1.25,0.447l-2.186-2.472l4.566-4.379l-0.028-1.259l-5.67,5.669l2.455,2.834l-1.46,0.757l-2.24-2.358c0,0-4.82,4.931-4.519,5.021c0.148,0.046,0.418,0.296,0.597,0.546c3.432,7.41-1.251,10.95-6.911,8.9c-1.44,6.817-2.813,12.969-3.944,20.034c-4.23,1.597-24.125,2.52-24.345,2.152c0,0-0.503-0.481-0.525-0.72c0.091-0.315-0.57,0.657-0.57,0.657c0,0.421-17.342-0.43-25.896-2.062c0,0-0.175-0.821-0.104-1.902c0.141-2.17-0.027-2.149,1.947-1.833c4.034,0.27,7.163-1.115,8.407-4.663c0.698-1.988,0.371-3.777-0.694-9.095c-1.033-5.164-1.044-4.608-0.922-5.305c0.145-0.82,1.029-1.734,2.299-2.764c0.959-0.779,1.054-2.244,0.283-1.432c-0.529,0.772-1.463,1.048-2.299,1.482c-1.962,1.026-1.898,2.017-0.739,6.258c0.543,1.99,1.113,4.134,1.131,4.385c0.059,0.778-0.222,0.46-1.391-0.342c-0.749-0.549-1.613-1-2.382-1.451c-2.348-1.253-1.307,0.118,0.954,1.624c1.777,1.317,2.071,1.885,0.537,1.254c-1.581-0.645-3.849-0.365-5.624,0.302c-0.349,0.193-0.605,0.171-0.662-0.146c-0.079-0.497,0.224-1.744,0.356-4.625c0.332-7.287,2.049-15.053,6.896-19.542c6.939-6.425,18.342-2.067,24.669,3.886l0.684-1.041c-4.248-3.565-11.608-8.011-18.78-7.146c2.999-2.502,9.611-6.643,9.611-6.643c4.536,3.289,7.881,6.572,12.859,10.132l0.867-0.576l-13.694-10.858l-14.751,9.727c0,0,0.612-9.33,0.843-12.74l-6.4,5.656l4.936,7.309l-5.231,5.382c0,0,0.883-0.124-0.083,1.537c-1.473,2.987-2.361,7.799-3.042,12.687c0.133,3.649-0.767,7.688-1.044,10.903c-0.484-3.013-1.056-4.595-2.171-7.327c-1.024-2.635-1.424-2.614-2.579-2.229c-6.259,0.524-3.426-11.55,3.97-3.651c0.325,0.335,0.861,0.744,0.885,0.666c0.154-0.485-1.964-6.842-2.783-8.31c-0.866-1.548-0.873-1.766-2.158-1.635c-2.405,0.248-3.22-0.607-3.463-3.14c0.32-4.787,5.5-2.764,8.819-1.294c0.3,0.229-1.557-1.691-2.222-2.368c-0.903-0.919-1.048-1.507-1.048-1.507l0.196-2.542l5.077-4.635l-4.174-6.162l0.173-2.202l4.461-5.352l-4.752-5.158l-0.06-1.837l3.864-5.142l-5.177-4.151l-0.251-1.655c0,0,3.324-6.15,3.234-6.373c-0.076-0.188-5.611-4.01-5.611-4.01l-0.557-2.587l2.404-6.563l-5.752-3.286l-1.054-2.964l1.62-6.081l-5.966-2.755l-1.702-3.426l1.108-6.392l-6.687-1.979l-1.774-2.81l0.232-5.62l-1.637-0.169l0.021-1.387l1.825,0.015c0,0-0.141-0.207,0.06-2.984c0.342-4.72,0.374-4.539-0.753-4.735c-2.374-0.413-1.83-1.87,0.597-1.601c0.374,0.042,0.688,0.074,0.954,0.124c0.639,0.12,1.131,0.948,1.131,0.948l-0.534,8.718l8.553,1.427l0.812,1.094l-1.433,8.078l8.027,2.321l1.082,1.957l-2.276,8.403l8.092,3.556l0.534,1.561l-3.435,7.457l7.435,3.615l0.465,1.788l-4.128,7.689l8.572,6.234c0,0-0.23-0.609-0.571-1.626l-6.796-4.854l3.444-6.563c0,0,0.275,0.479,0.566,0.378c-0.173-1.095-0.31-2.197-0.388-3.273l-3.508-9.141l11.348-7.632c-4.861-2.928-10.998-2.829-16.63-3.927c0,0-0.246-0.784-0.67-1.488c-1.64-2.627-3.112-5.969-4.942-9.417c1.347-0.635,1.93-0.554,3.377-0.836c0,0,3.655-22.904,6.517-34.096c0,0,0.441,0.134,0.657,0.141c1.391,0,2.518-1.131,2.518-2.522c0-0.76-0.339-1.44-0.872-1.903c0.312-0.089,0.642-0.178,0.99-0.26c0.46-0.007,2.322,2.048,2.322,2.048l-4.785,4.717l-0.027,1.559c1.909-1.986,6.103-6.276,6.103-6.276l-2.527-2.654l1.25-0.584l2.047,2.253l4.593-4.72l1.177,0.802c-1.547,2.032-2.556,2.694-4.871,5.095c1.21,1.431,5.898,5.948,5.898,5.948l-0.015-1.561l-4.62-4.479l4.493-4.482l0.26-0.298c0,0,3.566,1.543,3.793,1.539c-1.516-1.249-4.239-2.316-5.719-3.395c-6.703-3.953-0.336-12.129,5.847-10.099c0.176,0.659,3.409-17.25,3.046-18.239c0.327-2.773,0.398-2.382-0.563-3.971c-2.877-6.633-11.275-19.186-11.275-19.186l75.57-0.483c-0.788,1.536-1.581,2.781-2.179,4.572c0,0,4.247,4.424,5.801,10.24c0.865,3.245,2.112,6.282,4.295,8.442c0.034,0.077-0.077,0.176-0.21,0.265c-5.976,2.105-12.786-2.992-14.878-8.808l-3.429,5.589c1.549,0.175-22.82-2.765-28.801-2.022c0.531,0.104,1.156,0.544,0.802,2.222c-0.606,2.891-1.691,13.341-1.691,13.341c-1.203,10.169-2.129,22.947-8.839,27.171c0,0,1.027,1.096,1.915,1.652c0.022-0.014-0.791-0.833-0.816-0.93c0.003-0.296,0.171-0.484,0.368-0.639c1.423-1.152,3.155-3.542,3.094-3.604c5.538,4.809,14.203,8.949,19.426,7.23c2.062-0.433,2.976-2.42,4.069-0.807c-1.42,8.748-1.323,18.369-0.772,25.927c0.855,16.846,4.575,26.498,8.259,38.433c-1.894,0.668-11.62,7.189-11.62,7.189c-0.06,0.829,11.733,3.538,16.359,3.057c0,0,0.953,0.928,0.955,0.731c-0.025-0.051-0.06-0.118-0.09-0.183c0.686-0.38,1.149-1.113,1.149-1.955c0-1.235-0.997-2.236-2.229-2.236c-0.233,0-0.458,0.036-0.667,0.1c-0.581-1.425-1.076-2.672-1.076-2.672l6.55,2.852l-2.134,7.165l0.716,1.591l2.604-9.331l-8.36-3.583l-0.566-1.656l3.468-7.08l-7.476-4.429l-0.314-1.41l4.023-7.599l-7.238-5.56l5.295-6.842l-6.518-5.473l0.072-0.909l5.4-6.217l-5.583-5.738l-0.156-2.322l6.085-5.41l-5.254-7.632c2.189-1.47,3.413-3.149,4.848-4.821l1.282,0.562l-4.666,3.535l4.985,7.202l5.26-4.75l-2.851-4.648l1.738,0.79l1.592,2.49l-0.261,2.546l-5.194,4.73l4.465,6.468l0.037,1.185c0,0-2.777,3.192-4.799,5.565l5.66,6.244l-4.629,5.908l5.824,4.959l-0.164-1.487l-4.297-3.628l3.298-3.994c0.237-2.408-0.286-6.541,0.945-8.356c-1.988-1.946-0.949-6.634,0.026-8.153c-1.9-2.248-0.814-7.184,0.398-7.393c-1.451-1.818-0.873-5.503,0.339-6.701c0.388-0.206-5.177-2.213-8.686-4.624c2.92-5.435,2.239-10.549,3.16-12.392c1.264,3.646,2.882,7.526,4.279,10.318c0.147,0.291,0.458,0.225,0.921,0.232c5.805,0.517,5.252,5.301,0.898,6.527c0,0,8.853,6.592,13.338,7.322c0.047,0.116,0.014,0.272-0.137,0.583c-0.637,1.317-1.005,3.594-1.1,5.597c-0.323,2.98,1.118,7.553,1.118,7.553l-1.839,1.136c-0.365,1.575-2.418,1.608-2.618,2.729c0.434,4.816,9.839,23.259,11.825,25.343C171.959,125.973,170.521,111.688,171.242,98.554L171.242,98.554zM169.095,132.115l1.524-1.253l-0.035,1.992L169.095,132.115zM170.584,135.165l-0.77-0.572l0.773-0.859L170.584,135.165zM76.003,158.651c0.144,0.908,0.312,1.808,0.497,2.688c-1.082,0.284-1.879,1.267-1.879,2.435c0,1.393,1.13,2.524,2.522,2.524c0.199,0,0.389-0.03,0.575-0.074c0.397,1.389,0.777,2.587,1.072,3.468l0.511,0.364c-1.379-4.797,1.294-7.377-2.654-11.364C76.588,158.493,76.298,158.551,76.003,158.651L76.003,158.651zM157.495,28.536l24.594,0.162v9.077l-18.953,20.15l7.308,0.09l-0.079,34.562c-2.003,0.833-3.912,2.123-5.762,3.371l-11.524-6.377l-0.83-0.424c0,0,0.317-0.09,0.994-0.534c1.304-0.854,1.801-2.956,1.208-4.534c-0.968-2.582-2.968-2.115-4.633-2.121c-1.385-1.069-2.569-4.644-3.54-7.029c-0.45-1.036-0.878-1.83-0.99-2.431c-0.103-0.555-0.1-1.041-0.1-1.041s0.224,0.069,0.552,0.741c1.836,3.868,6.126,5.738,8.405,2.079c1.155-2.243,0.359-4.803-1.583-5.519c-0.594-0.22-2.614,0.014-2.614,0.014c-0.119,0.07-1.463-1.899-3.366-8.37c-0.781-2.672-0.986-8.472-0.243-9.306c1.261-1.529,1.583-3.676,2.651-5.218c0.484-0.969,0.458-0.365,1.218,0.716c2.588,3.684,7.138,6.539,11.304,6.358c2.956-0.127,3.869-1.137,3.17-1.988c-1.624-1.658-2.684-3.984-3.217-6.021c-1.238-4.743-2.551-8.972-5.883-12.658L157.495,28.536zM145.008,51.053c0.312,0.293,0.066,0.747,0.01,1.565c-0.142,2.078-0.188,2.103-1.382,1.579c-2.292-1.005-5.532-0.127-7.487,1.993c-2.463,2.673-2.542,5.425-1.003,10.856c1.757,6.11,1.715,6.916-0.391,8.165c-1.268,1.08-2.566,3.342-2.08,3.334c0.067-0.001,0.244-0.137,0.387-0.3c0.145-0.164,1.303-1.096,2.195-1.706c2.446-1.673,3.213-2.528,2.087-5.62c-1.108-3.049-2.003-6.033-1.541-6.217c0.22-0.089,1.065,0.904,1.586,1.205c1.071,0.614,3.328,1.748,3.604,1.746c0.381-0.003-0.026-0.276-1.125-0.999c-2.947-1.933-4.151-3.685-1.31-2.577c1.522,0.592,3.133,0.247,4.042-0.051c1.058-0.346,1.61-0.696,1.723-0.297c0.154,1.881,0.008,3.821-0.109,5.712c-0.035,0.121-0.179,1.408-0.319,2.855c-0.538,5.496-1.475,10.127-3.891,13.109c-8.081,9.979-17.275,7.07-27.605-0.917c3.852-10.673,3.587-18.991,4.538-22.378c0.893-0.268,1.938,0.255,2.587,0.621c1.439,0.818,3.075,1.311,4.648,1.395c1.464,0.08,1.717-0.127,1.587,0.307c-0.101,0.333-2.462,1.025-3.906,1.327c-2.628,0.546-2.435,1.154-0.223,0.954c2.328-0.209,4.576-1.135,6.959-2.72c1.653-1.098,1.712-1.1,1.268-2.477c-0.106-0.331-0.331-0.828,0.458-1.117c0.817-0.3,0.702-0.634,0.237-1.003c-0.115-0.091-0.408-0.113-0.524-0.206c-0.148-0.115,0.009-0.632,0.008-0.701c-3.005-2.543-8.307-2.604-12.664,0.005c-0.217-0.079-0.443-0.42-0.23-0.886c0.458-1.002,5.147-2.204,8.475-2.259c1.519-0.023,1.815,0.169,4.101,0.866c0.94,0.288,1.466,0.361,1.551,0.219c0.193-0.325-0.145-1.293-0.866-1.811c-2.441-1.749-5.994-1.611-10.848,0.314c-2.596,1.03-2.325,1.384-1.486-3.74c0.233-1.423,0.501-2.508,0.501-2.508S141.274,49.498,145.008,51.053zM141.515,55.865c1.201,0.008,2.299,0.31,2.938,0.932c0.936,1.034-0.048,1.357-1.533,0.792c-1.902-0.721-4.064-0.311-5.739,0.73c-1.075,0.667-1.305,0.31-0.402-0.647C137.875,56.512,139.762,55.854,141.515,55.865zM124.25,57.648c2.093-0.015,4.012,0.361,4.799,1.246c0.72,0.807,0.026,0.889-1.771,0.186c-2.529-0.988-5.902-0.677-8.685,0.707c-1.429,0.711-1.868,0.855-1.678,0.046C117.756,58.522,121.19,57.67,124.25,57.648zM140.994,58.301c1.996,0.005,3.69,0.461,3.377,1.505c-0.112,0.372-0.21,0.147-1.638-0.292c-1.423-0.438-3.247-0.273-5.077,0.261c-1.706,0.497-2.032,0.61-1.267-0.129C137.319,58.75,139.235,58.297,140.994,58.301zM145.058,59.304c2.021,3.112,2.377,7.676,4.527,10.149c3.976-0.74,5.857,2.999,2.511,5.488c-1.702,0.945-3.775,0.233-5.299-2.262c-1.454-2.379-1.855-3.819-1.901-5.327C145.028,64.184,144.85,62.487,145.058,59.304zM121.782,60.732l0.88,0.104c0.64,2.167,2.07,2.298,2.929,0.028l0.666,0.109C125.245,63.756,122.708,63.871,121.782,60.732zM120.417,60.773c0.368-0.021,0.673,0.366,0.835,0.875c0.341,1.153-0.047,1.008-0.845,0.521c-0.807-0.491-1.426-0.816-0.962-1.013C119.794,60.97,120.068,60.845,120.417,60.773zM127.982,61.512c0.303,0.378,0.372,0.666-0.02,0.941c-0.382,0.201-0.664,0.327-1.036,0.46c-0.354,0.107-0.573,0.022-0.424-0.489c0.095-0.438,0.37-1.063,0.576-1.309C127.424,61.053,127.791,61.297,127.982,61.512zM138.659,61.248l0.698,0.05c0.732,1.981,2.443,1.924,3.103,0.206l0.624-0.005C141.906,64.566,139.51,64.012,138.659,61.248zM137.401,61.507c0.669-0.001,1.32,0.963,0.953,1.455c-0.37,0.309-2.021-0.042-2.167-0.652C136.129,61.943,136.731,61.509,137.401,61.507zM143.861,61.695c0.323,0.076,0.3,0.32,0.309,0.36c0.17,0.811-0.8,1.095-1.017,0.784C143.033,62.669,143.542,62.02,143.861,61.695zM128.49,70.37c-1.634,0.458-2.393,1.869-2.291,3.444c0.083,1.274,0.745,2.312,1.713,2.531c1.95,0.441,3.299-0.919,5.291-1.469c0.86-0.224,0.659-1.335,0.109-1.817c-0.708-0.62-1.794-0.233-3.25,0.882c-2.86,2.188-3.548-2.02-0.942-2.764C129.526,71.064,129.34,70.133,128.49,70.37zM43.959,167.271l1.111,0.319l-1.11,1.315C43.96,168.906,43.965,167.77,43.959,167.271L43.959,167.271zM47.055,171.771l-2.29,2.577l3.11-0.234l-2.11,2.19l3.238,0.132l-2.38,2.459l3.182-0.062l-2.353,2.375l3.003,0.086l-1.984,2.174l3.304-0.254l-2.411,2.601l3.539-0.062l-2.683,2.425l3.53-0.025l-1.06,1.208l0.939,0.472c0.96-0.448,6.496-2.169,6.679-3.465c-1.223-0.328-4.821,1.504-5.06,1.201c-1.443-6.367-7.667-20.445-11.772-24.55l-0.28,39.817c-0.098,0.091-0.211,0.127-0.323,0.182c-0.614,0.291-1.414,0.12-1.955,0.338c-2.082-0.108-5.56,3.37-3.742,4.06c0.95,0.21,6.211,1.111,6.226,1.374c0.645,11.531-0.398,23.125,0.082,35.433c1.472,0.218,6.282,0.492,6.282,0.492s-17.64,18.408-17.986,18.036c0.412-19.728,0.195-58.293-0.151-58.436c0.003-1.158,0.408-3.594,0.408-3.594L31.657,78.033c0,0-0.102-0.549-0.315-0.899c-0.362-0.598-0.389-0.752-0.415-2.591c-0.141-1.137,0.022-1.433,0.022-1.433l0,0l12.069,12.745L43.16,121.5c0,0,11.292,16.884,13.921,24.673c5.764,11.594,5.14,28.494,8.635,34.963c0.073,0,0.143-0.004,0.215-0.009c0.084,0.942,0.095,1.321,0.233,1.467c0.261,2.11,0.547,4.992,0.547,4.992l-1.264,2.007l1.41,1.806l0.009,4.818l-1.88,1.911l1.72,2.18l-0.479,4.499L64.886,206l0.762,1.026c0,0,0.126,1.62-0.178,3.475c-0.207,1.261-1.449,1.092-4.032-0.224c-3.66-1.387-7.408-3.869-10.299-5.743c0.173-2.342,3.072-7.68-0.962-13.57c-1.492-1.118-5.824-0.708-6.204-0.876l0.033-18.139M44.001,169.854l1.953-0.341l-1.971,1.973L44.001,169.854zM137.004,79.311c-0.159,0.019-0.359,0.167-0.615,0.456c-0.27,0.305-0.704,0.222-1.803,0.155c-1.176-0.07-1.474-0.039-2.249,0.242c-0.883,0.32-0.902,0.32-1.515,0.061c-0.955-0.408-1.555-0.455-2.435-0.206c-1.08,0.306-1.761,0.222-2.427-0.104c-0.673-0.332-0.887-0.264-1.122,0.347c-0.099,0.257-0.577,1.252-0.798,1.59c-0.72,1.103-0.545,1.286,0.964,0.822c1.036-0.318,2.945-0.521,4.369,0.069c1.082,0.448,2.37,0.304,3.908-0.366c1.352-0.587,2.683-0.774,3.979,0.314c0.754,0.634,0.713,0.154,0.52-1.159C137.564,80.065,137.411,79.264,137.004,79.311zM85.793,83.941c-1.391,0-2.522,1.126-2.522,2.517c0,1.392,1.13,2.522,2.522,2.522C86.452,88.432,86.793,84.042,85.793,83.941zM134.473,83.961c-1.534,0.521-3.642,1.219-6.018,0.522c-1.864-0.569-1.418,0.834,0.608,1.008c1.409,0.123,1.312,0.122,0.214,1.15c-0.925,0.865,0.234,0.802,0.867,0.263c0.746-0.635,2.775-0.47,3.918,0.051c0.502,0.228,0.556-0.721-0.041-0.931c-1.506-0.527-1.145-0.566,0.499-1.101C135.127,84.787,135.15,83.73,134.473,83.961zM85.793,84.785c0.797,0.299,0.299,3.221,0,3.352c-0.925,0-1.679-0.752-1.679-1.679C84.114,85.533,84.868,84.785,85.793,84.785zM72.345,84.889c0.643-0.22,1.095,0.85,1.095,1.569c0,0.926-0.75,1.679-1.674,1.679c-1.131-1.104-1.338-2.335-0.028-3.028C71.927,85.037,72.129,84.963,72.345,84.889zM78.974,87.357l-5.387,5.445l5.287,5.355l5.295-5.474L78.974,87.357zM142.778,89.515c0.773,0,1.396,0.627,1.396,1.4c0,0.772-0.624,1.395-1.396,1.395c-0.771,0-1.4-0.623-1.4-1.395C141.377,90.143,142.007,89.515,142.778,89.515zM78.927,91.344c0.772,0,1.396,0.629,1.396,1.4c0,0.771-0.624,1.396-1.396,1.396c-0.771,0-1.396-0.625-1.396-1.396C77.531,91.973,78.157,91.344,78.927,91.344zM136.188,92.679l3.858,5.196l-4.729,4.242l0.242-2.636c1.043-0.189,1.833-1.105,1.833-2.204c0-0.954-0.597-1.764-1.437-2.085L136.188,92.679zM71.926,92.967l-0.055,1.415l4.863,4.817l-4.813,4.995l0.041,1.382l5.99-6.376L71.926,92.967zM85.67,92.972l-5.944,6.099l5.733,6.264l0.073-1.587l-4.503-4.652l4.59-4.557L85.67,92.972zM171.439,93.948c1.21-0.002,2.246,0.396,2.563,1.186c0.248,0.444,0.38,0.828,0.743,0.995c0.705,0.323,1.664,0.1,1.71-0.138c0.083-0.001-1.125-0.116-1.332-0.3c-0.945-0.853-0.785-1.388,0.556-1.282c0.432,0.02,1.641,0.038,1.668,0.509c0.269,1.63-1.9,2.825-4.672,2.605c-1.98-0.327-1.988,0.436-2.127,1.493c-0.086,0.345-0.391,0.906-0.637,1.349c-0.702,1.254-0.932,1.079-0.443,1.564c0.474,0.618,1.086,1.384,1.077,2.104l-0.022,6.612c0,0-4.148-0.019-5.591-1.062c-1.511-2.757-2.54-8.701-0.319-11.965c0.776-0.979,1.912-1.445,3.221-2.481C168.837,94.34,170.229,93.95,171.439,93.948zM147.969,94.691l-0.149,1.91c-1.056,0.182-1.863,1.095-1.863,2.2c0,0.981,0.636,1.81,1.515,2.111l-0.131,1.66l-3.081-4.419L147.969,94.691zM135.882,95.983c0.456,0.253,0.762,0.736,0.762,1.295c0,0.658-0.421,1.218-1.013,1.414L135.882,95.983zM71.652,96.681c-2.13,1.107-1.398,5.396,0,5.041c1.392,0,2.518-1.131,2.518-2.522C74.169,97.807,73.044,96.681,71.652,96.681zM85.565,96.745c-1.392,0-2.522,1.126-2.522,2.518c0,1.391,1.13,2.523,2.522,2.523C87.415,101.203,86.367,96.828,85.565,96.745zM147.755,97.383l-0.22,2.75c-0.491-0.244-0.825-0.747-0.825-1.332C146.71,98.135,147.148,97.571,147.755,97.383zM71.652,97.524c0.926,0,1.674,0.749,1.674,1.675c0,0.925-0.748,1.678-1.674,1.678C71.1,100.986,70.749,97.815,71.652,97.524zM85.565,97.588c1.123,0.091,0.19,2.946,0,3.353c-0.926,0-1.679-0.753-1.679-1.678S84.639,97.588,85.565,97.588zM142.077,99.18l-5.561,5.542l5.492,6.053l4.57-5.556L142.077,99.18zM78.841,100.234l-5.333,5.492l5.041,5.209l5.318-5.615L78.841,100.234zM43.8,103.24l1.947,2.065l-2.011,0.02L43.8,103.24zM141.643,103.446c0.772,0,1.396,0.628,1.396,1.4s-0.624,1.396-1.396,1.396c-0.772,0-1.396-0.625-1.396-1.396S140.87,103.446,141.643,103.446zM78.814,104.203c0.771,0,1.401,0.623,1.401,1.396c0,0.771-0.63,1.4-1.401,1.4c-0.772,0-1.396-0.629-1.396-1.4C77.417,104.826,78.041,104.203,78.814,104.203zM85.707,105.836l-5.893,6.089l5.693,6.062l0.078-1.437l-4.562-4.59l4.625-4.736L85.707,105.836zM71.848,105.844l0.06,1.542l4.73,4.69l-4.972,4.999l0.2,1.346l6.112-6.322L71.848,105.844zM135.462,107.514l4.266,4.241l-4.251,4.734l-0.004-2.458c0.875-0.303,1.504-1.138,1.504-2.117c0-0.98-0.633-1.807-1.511-2.106L135.462,107.514zM147.222,107.733l0.045,1.733c-0.958,0.253-1.67,1.121-1.67,2.157c0,1.079,0.767,1.98,1.785,2.19l0.037,1.373l-3.375-3.723L147.222,107.733zM48.621,108.513c0,0,1.425,1.519,1.908,2.141c-0.378,0.44-0.612,1.008-0.612,1.633c0,1.392,1.131,2.521,2.523,2.521c0.401,0,0.777-0.098,1.113-0.264c0.259,0.383,1.396,1.957,1.396,1.957l-6.706-1.077L48.621,108.513zM85.674,109.521c-1.392,0-2.523,1.126-2.523,2.517c0,1.391,1.131,2.523,2.523,2.523C88.205,114.046,87.706,109.642,85.674,109.521zM71.634,109.617c-1.392,0-2.522,1.126-2.522,2.518c0,1.391,1.13,2.523,2.522,2.523c1.392,0,2.518-1.132,2.518-2.523C74.151,110.743,73.025,109.617,71.634,109.617zM147.285,110.242l0.077,2.795c-0.592-0.196-1.018-0.757-1.018-1.415C146.346,110.996,146.733,110.459,147.285,110.242L147.285,110.242zM85.674,110.365c1.63,0.593,1.133,3.464,0,3.353c-0.926,0-1.679-0.754-1.679-1.679S84.748,110.365,85.674,110.365zM71.634,110.46c0.926,0,1.673,0.749,1.673,1.674c0,0.926-0.748,1.679-1.673,1.679s-1.679-0.753-1.679-1.679C69.955,111.209,70.708,110.46,71.634,110.46zM135.466,110.62c0.456,0.254,0.763,0.737,0.763,1.296c0,0.557-0.305,1.045-0.758,1.301L135.466,110.62zM51.057,111.337l1.962,2.522c-0.181,0.067-0.375,0.104-0.579,0.104c-0.926,0-1.679-0.752-1.679-1.678C50.76,111.933,50.87,111.607,51.057,111.337L51.057,111.337zM141.82,112.481l-4.607,5.539l5.66,5.022l4.016-4.972L141.82,112.481zM78.863,113.147l-5.651,5.738l3.991,4.147l-2.208-0.242l-3.192-3.257l-0.073,1.08l1.739,1.989l-1.854-0.064l0.323,0.863c4.577,0.129,8.933,1.476,13.374,2.356l0.271-0.598l-1.647-0.422l1.556-1.861l-0.018-1.415l-2.691,2.882l-0.913-0.209l3.813-3.932l-0.256-1.2l-4.689,4.799l-1.363-0.31l4.766-4.863L78.863,113.147zM142.053,116.45c0.773,0,1.396,0.624,1.396,1.396c0,0.772-0.623,1.396-1.396,1.396c-0.771,0-1.399-0.624-1.399-1.396C140.653,117.074,141.282,116.45,142.053,116.45zM78.672,117.175c0.771,0,1.396,0.623,1.396,1.395c0,0.772-0.624,1.396-1.396,1.396c-0.772,0-1.396-0.624-1.396-1.396C77.276,117.798,77.9,117.175,78.672,117.175zM47.016,117.577c0,0-0.362,4.59-0.566,6.8l7.302,1.952l0.908-7.334L47.016,117.577zM43.833,117.923l1.016,0.037l-0.127,4.233l-1.031-1.014L43.833,117.923zM57.343,119.78c0,0,0.735,1.18,1.574,2.48c-0.451,0.456-0.73,1.078-0.73,1.77c0,1.391,1.13,2.522,2.522,2.522c0.256,0,0.501-0.038,0.734-0.108c0.328,0.619,0.94,1.605,0.94,1.605l-6.258-1.833L57.343,119.78zM135.695,120.25l4.912,4l-3.818,4.698l-0.257-2.016c0.862-0.311,1.479-1.134,1.479-2.104c0-1.162-0.889-2.112-2.023-2.221L135.695,120.25zM50.71,120.318c0.771,0,1.396,0.623,1.396,1.395s-0.624,1.401-1.396,1.401s-1.401-0.629-1.401-1.401S49.938,120.318,50.71,120.318zM148.905,120.761c-1.234,0-2.24,0.996-2.24,2.23c0,1.233,1.005,2.238,2.24,2.238C149.393,125.589,149.527,121.393,148.905,120.761zM148.905,121.509c0.133,0.664,0.294,3.13,0,2.974c-0.821,0-1.492-0.67-1.492-1.491C147.413,122.17,148.084,121.509,148.905,121.509zM59.392,122.995c0.559,0.881,1.139,1.829,1.628,2.687c-0.101,0.019-0.204,0.026-0.31,0.026c-0.925,0-1.679-0.751-1.679-1.678C59.031,123.639,59.166,123.281,59.392,122.995zM136.086,123.378c0.672,0.142,1.178,0.737,1.178,1.451c0,0.583-0.338,1.089-0.826,1.333L136.086,123.378zM142.742,124.688l-4.151,5.568l6.299,4.912l3.568-6.094L142.742,124.688zM47.988,126.955l4.693,1.375l-0.885,4.803c-0.075-0.28-0.337-0.788-0.689-1.392c0.201-0.363,0.319-0.779,0.319-1.224c0-1.39-1.126-2.517-2.517-2.517c-0.068,0-0.135,0.004-0.2,0.009C48.29,127.392,47.988,126.955,47.988,126.955zM54.944,128.123l-1.528,7.658l7.061,2.841l1.72-8.09L54.944,128.123zM143.544,128.182c0.772,0,1.396,0.625,1.396,1.396c0,0.772-0.624,1.396-1.396,1.396c-0.771,0-1.399-0.624-1.399-1.396C142.145,128.807,142.772,128.182,143.544,128.182zM49.3,128.889c0.737,0.177,1.283,0.838,1.283,1.627c0,0.104-0.014,0.208-0.031,0.306C50.147,130.174,49.708,129.501,49.3,128.889zM149.537,129.098l-3.784,7.131l6.434,4.494l-0.439-1.524l-4.604-3.376l2.678-4.906L149.537,129.098zM58.077,131.676c0.772,0,1.396,0.628,1.396,1.401c0,0.771-0.624,1.395-1.396,1.395c-0.771,0-1.396-0.624-1.396-1.395C56.681,132.304,57.306,131.676,58.077,131.676zM64.742,132.387l1.501,2.614c-0.62,0.459-1.022,1.191-1.022,2.022c0,1.391,1.13,2.523,2.522,2.523c0.208,0,0.409-0.03,0.603-0.078l1.085,2.304l-6.555-2.869L64.742,132.387zM150.998,132.411c-0.587-0.137-1.149,0.238-1.551,0.626c-0.422,0.406-0.684,0.978-0.684,1.608c0,1.234,1.001,2.235,2.235,2.235C152.685,136.472,151.778,132.592,150.998,132.411zM137.438,133.026l5.327,3.809l-3.11,6.003c0,0-0.312-1.213-0.707-2.842c0.757-0.358,1.282-1.128,1.282-2.021c0-1.233-1-2.234-2.234-2.234c-0.009,0-0.02,0-0.027,0C137.757,134.763,137.57,133.82,137.438,133.026zM150.998,133.159c0.926,0.283,0.612,2.878,0,2.974c-0.811,0.128-1.487-0.665-1.487-1.487C149.511,133.825,150.177,133.159,150.998,133.159zM66.611,135.786l1.363,2.896c-0.076,0.011-0.154,0.02-0.233,0.02c-0.926,0-1.679-0.753-1.679-1.679C66.064,136.532,66.276,136.092,66.611,135.786zM138.134,136.497c0.756,0.07,1.345,0.704,1.345,1.478c0,0.539-0.289,1.006-0.716,1.268C138.557,138.378,138.343,137.434,138.134,136.497zM145.164,137.258l-3.649,7.212l6.742,4.109l3.102-6.974L145.164,137.258zM54.885,138.646l4.155,1.889l-1.172,4.288l-0.506-1.05c0.246-0.389,0.393-0.847,0.393-1.34c0-1.301-0.984-2.371-2.249-2.506L54.885,138.646zM61.449,140.681l-2.039,7.211l6.477,3.37l2.956-7.256L61.449,140.681zM55.992,140.94c0.544,0.276,0.917,0.839,0.917,1.493c0,0.113-0.015,0.224-0.037,0.333L55.992,140.94zM146.363,141.525c0.772,0,1.402,0.628,1.402,1.4c0,0.771-0.629,1.396-1.402,1.396c-0.771,0-1.394-0.625-1.394-1.396C144.969,142.153,145.592,141.525,146.363,141.525zM152.517,141.922l-3.092,7.548l7.102,3.918l-0.536-1.377l-5.247-3.029l2.25-5.463L152.517,141.922zM64.048,144.439c0.772,0,1.396,0.623,1.396,1.395c0,0.773-0.624,1.396-1.396,1.396c-0.772,0-1.396-0.623-1.396-1.396C62.652,145.063,63.276,144.439,64.048,144.439zM154.749,145.557c-1.234,0-2.235,1.001-2.235,2.234c0,1.235,1.002,2.281,2.235,2.235C156.992,149.976,155.848,145.538,154.749,145.557zM70.991,145.807c0.426,0.769,0.744,1.571,1.035,2.395c-0.667,0.453-1.108,1.217-1.108,2.084c0,1.341,1.05,2.44,2.371,2.519c0.051,0.002,0.283,0.036,0.283,0.036l0.401,1.519l-5.573-2.924C69.181,149.337,69.851,147.884,70.991,145.807zM154.749,146.304c0.652,0.273,0.826,2.891,0,2.975c-0.822,0-1.488-0.666-1.488-1.487C153.261,146.97,153.926,146.304,154.749,146.304zM141.009,147.171l5.478,3.138l-2.75,5.935l-0.816-2.72c0.59-0.402,0.981-1.078,0.981-1.847c0-1.224-0.985-2.22-2.208-2.234L141.009,147.171zM72.323,149.041l0.871,2.902c-0.886-0.045-1.433-0.759-1.433-1.655C71.761,149.791,71.98,149.348,72.323,149.041zM141.926,150.218c0.697,0.122,1.225,0.727,1.225,1.459c0,0.427-0.178,0.81-0.464,1.081L141.926,150.218zM60.176,150.41l4.237,2.476l-1.911,4.947l-0.557-1.785c0.38-0.442,0.611-1.013,0.611-1.641c0-1.176-0.805-2.157-1.892-2.437L60.176,150.41zM148.632,150.511l-2.569,6.883l7.43,3.903l1.857-7.043L148.632,150.511zM60.997,153.032c0.431,0.303,0.716,0.805,0.716,1.374c0,0.201-0.039,0.395-0.104,0.574L60.997,153.032zM66.548,153.375l-3.016,6.983l6.272,4.134l3.267-7.281L66.548,153.375zM150.961,154.51c0.772,0,1.396,0.626,1.396,1.396c0,0.772-0.624,1.396-1.396,1.396c-0.771,0-1.396-0.624-1.396-1.396C149.565,155.135,150.19,154.51,150.961,154.51zM158.312,157.58c-0.625,0.4-0.997,1.179-0.997,1.977c0,1.234,1.001,2.244,2.235,2.235c0.274-0.002,0.522-0.031,0.742-0.083C160.937,160.847,160.024,157.541,158.312,157.58zM68.423,157.379c0.771,0,1.396,0.624,1.396,1.396s-0.625,1.4-1.396,1.4s-1.396-0.627-1.396-1.4S67.651,157.379,68.423,157.379zM159.882,160.976c-0.093,0.048-0.201,0.073-0.332,0.066c-0.821-0.038-1.486-0.666-1.486-1.486c0-0.468,0.217-0.885,0.552-1.158C159.9,157.436,160.091,161.17,159.882,160.976zM76.679,162.166c0.257,1.144,0.539,2.232,0.817,3.247c-0.114,0.023-0.23,0.042-0.352,0.042c-0.926,0-1.679-0.754-1.679-1.68C75.466,163.009,75.977,162.365,76.679,162.166zM154.551,162.986l-1.943,7.74l7.436,2.709l1.422-7.327L154.551,162.986zM63.912,163.09l3.945,2.725c0,0-1.275,3.074-2.353,4.714l-0.306-1.423c0.653-0.457,1.081-1.208,1.081-2.067c0-1.232-0.882-2.259-2.052-2.476L63.912,163.09zM147.341,163.459c0.822,0,1.482,0.663,1.482,1.483c0,0.538-0.162,0.759-0.589,1.022c-0.326-0.737-0.775-1.463-1.182-2.451C147.173,163.483,147.208,163.459,147.341,163.459zM64.426,165.502c0.594,0.258,1.008,0.849,1.008,1.537c0,0.438-0.166,0.833-0.438,1.132L64.426,165.502zM70.352,166.634l-3.581,6.222l5.254,4.021l4.106-6.227L70.352,166.634zM157.051,166.845c0.771,0,1.395,0.629,1.395,1.4c0,0.772-0.624,1.396-1.395,1.396c-0.772,0-1.402-0.623-1.402-1.396C155.649,167.474,156.28,166.845,157.051,166.845zM163.482,168.779l0.913,1.415c-0.284,0.375-0.457,0.84-0.457,1.346c0,1.234,1.005,2.233,2.24,2.233c0.167,0,0.331-0.015,0.489-0.049l0.733,1.135l-4.66-1.668L163.482,168.779zM71.423,170.439c0.772,0,1.397,0.624,1.397,1.396c0,0.771-0.625,1.395-1.397,1.395c-0.771,0-1.4-0.624-1.4-1.395C70.024,171.063,70.652,170.439,71.423,170.439zM164.842,170.886l1.378,2.139c-0.016,0-0.028,0-0.041,0C164.876,173,164.326,171.929,164.842,170.886zM78.125,170.983l-5.072,6.728l6.729,4.985l-0.105-1.486l-4.916-3.512l3.74-4.981L78.125,170.983zM152.198,173.259l6.696,2.103l-1.432,6.641l-1.578-2.623c0.43-0.407,0.699-0.98,0.699-1.62c0-1.234-0.998-2.236-2.229-2.236c-0.251,0-0.492,0.043-0.717,0.12L152.198,173.259zM79.252,174.411c-1.271,0.131-2.267,1.201-2.267,2.506c0,1.391,1.13,2.522,2.522,2.522c0.642,0.077,0.733-0.904,0-0.844c-0.926,0-1.679-0.753-1.679-1.678c0-0.889,0.693-1.614,1.569-1.67l-0.123-0.834C79.267,174.413,79.259,174.411,79.252,174.411zM161.293,175.127l-1.163,7.686l7.586,1.62l0.566-6.97L161.293,175.127zM66.448,175.316l3.581,2.646l-2.719,3.803l-0.146-1.089c0.648-0.458,1.071-1.215,1.071-2.067c0-1.09-0.696-2.013-1.665-2.362L66.448,175.316zM154.351,176.274c0.822,0,1.483,0.665,1.483,1.486c0,0.367-0.134,0.699-0.351,0.958l-1.447-2.409C154.137,176.287,154.243,176.274,154.351,176.274zM130.294,177.282c0.162,0.059,0.62,0.094,0.547,0.243c-0.061,0.122-1.272,1.454-1.272,1.454l0.136,1.24l2.152-2.439l0.867,0.319l-3.023,3.074l-0.141,1.145l4.027-3.956l1.72,0.475l-4.684,4.611l5.396,5.469l5.401-5.506l-3.835-4.19l1.896,0.178c0.801,0.914,1.682,2.364,3.153,3.138l-0.146-1.094c-0.075,0.051-1.784-1.608-1.514-1.879l1.51,0.109c0,0,2.181-0.635-0.552-0.633c-3.586,0-7.45-1.222-10.528-2.134c-0.342-0.104-0.866-0.381-1.123-0.389C129.65,177.144,128.875,177.01,130.294,177.282L130.294,177.282zM66.708,177.262c0.414,0.304,0.684,0.791,0.684,1.345c0,0.395-0.138,0.759-0.365,1.045L66.708,177.262zM164.07,178.601c0.772,0,1.396,0.623,1.396,1.395c0,0.772-0.624,1.396-1.396,1.396c-0.771,0-1.395-0.623-1.395-1.396C162.676,179.224,163.3,178.601,164.07,178.601zM72.282,178.735l-4.361,5.544l4.94,4.74l5.058-5.931L72.282,178.735zM170.206,180.155l0.347,0.059l0.019,3.78l-0.562-0.118L170.206,180.155zM136.164,181.911c0.771,0,1.396,0.624,1.396,1.397c0,0.77-0.625,1.394-1.396,1.394c-0.772,0-1.401-0.624-1.401-1.394C134.763,182.536,135.393,181.911,136.164,181.911zM72.957,182.307c0.771,0,1.396,0.63,1.396,1.4c0,0.772-0.624,1.396-1.396,1.396c-0.772,0-1.396-0.624-1.396-1.396C71.561,182.938,72.185,182.307,72.957,182.307zM79.689,183.408l-5.633,6.714l6.049,6.244l-0.019-1.396l-4.698-4.925l4.402-5.132L79.689,183.408zM142.678,184.023l-5.796,5.855l5.778,5.992l0.138-1.346l-4.462-4.502l4.178-4.316L142.678,184.023zM129.933,184.63l0.01,1.591l3.634,3.698l-3.721,3.799l0.021,1.616l5.278-5.442L129.933,184.63zM159.633,185.328l6.828,1.291l-0.42,6.449l-1.642-1.984c0.28-0.374,0.447-0.838,0.447-1.34c0-1.235-0.999-2.23-2.233-2.23c-0.354,0-0.684,0.083-0.982,0.228L159.633,185.328zM67.606,186.478l3.366,3.539l-3.217,3.635l-0.027-1.237c0.896-0.386,1.523-1.279,1.523-2.316c0-1.075-0.672-1.988-1.62-2.349L67.606,186.478zM80.085,187.371c-1.119,0.258-1.957,1.259-1.957,2.455c0,1.197,0.837,2.2,1.957,2.459v-0.881c-0.647-0.232-1.113-0.851-1.113-1.578c0-0.726,0.466-1.343,1.113-1.573V187.371zM129.563,187.609c-1.036,0.682-0.574,4.533,0,4.47c1.234,0,2.23-1.002,2.23-2.236C131.794,188.609,130.798,187.609,129.563,187.609zM142.787,187.974c-1.233,0-2.234,1-2.234,2.233c0,1.234,1.001,2.236,2.234,2.236C143.771,192.118,143.37,188.197,142.787,187.974zM162.613,188.262c0.821,0,1.486,0.662,1.486,1.482c0,0.266-0.077,0.521-0.201,0.739l-1.771-2.144C162.279,188.285,162.444,188.262,162.613,188.262zM129.563,188.356c0.822,0,1.482,0.666,1.482,1.486c0,0.822-0.661,1.487-1.482,1.487C129.639,190.797,129.285,188.295,129.563,188.356zM67.652,188.7c0.458,0.298,0.757,0.812,0.757,1.399c0,0.562-0.274,1.063-0.699,1.368L67.652,188.7zM142.787,188.721c0.186,0.601,0.419,3.078,0,2.974c-0.821,0-1.486-0.666-1.486-1.488C141.301,189.386,141.967,188.721,142.787,188.721zM136.028,190.888l-5.441,5.414l5.556,5.679l5.254-5.606L136.028,190.888zM73.252,191.18l-4.871,5.26l4.695,6.094l5.504-5.484L73.252,191.18zM46.843,191.371c1.498,0.001,2.896,0.26,3.466,1.256c2.295,3.071,1.634,9.384,0.045,11.553c-3.57,3.241-5.589,4.099-9.616,3.358c0.462-1.822-1.472-2.802-1.751-2.4c-0.036,0.005-0.184,0.325-0.004,0.347c1.387,0.17,1.278,1.825,1.114,1.832c-1.534-0.047-2.53-0.021-2.688-0.704c-0.096-0.422,0.15-1.071,1.044-1.804c1.05-0.84,5.885-0.822,5.885-0.822c0.019,0.007-0.011-1.374,0.474-2.167c0.426-0.696,1.017-1.468,0.611-1.787c-0.698-0.323-1.167-1.104-1.268-2.007c-0.189-1.89,0.108-6.44,0.041-6.49C45.011,191.46,45.944,191.371,46.843,191.371zM136.018,194.883c0.772,0,1.4,0.626,1.4,1.396c0,0.772-0.627,1.396-1.4,1.396c-0.771,0-1.396-0.624-1.396-1.396C134.622,195.509,135.247,194.883,136.018,194.883zM73.289,195.426c0.772,0,1.396,0.623,1.396,1.396s-0.624,1.399-1.396,1.399c-0.771,0-1.401-0.626-1.401-1.399S72.519,195.426,73.289,195.426zM142.674,196.739l-5.688,5.803l6.062,6.273l-0.191-1.703l-4.366-4.493l4.27-4.452L142.674,196.739zM129.825,196.85l-0.155,1.604l4.028,4.234l-3.659,3.757l-0.054,1.825l5.383-5.675L129.825,196.85zM67.548,199.04l3.215,4.51l-3.827,3.358l0.1-1.282c1.111-0.263,1.938-1.263,1.938-2.454c0-1.057-0.649-1.956-1.569-2.33L67.548,199.04zM79.589,199.929c-0.075,0.936-0.126,1.691-0.173,2.381c-1.042,0.308-1.806,1.276-1.806,2.418c0,1.014,0.602,1.885,1.464,2.285c-0.07,0.722-0.16,1.522-0.288,2.528l-3.845-5.625L79.589,199.929zM170.503,200.193l0.149,15.777l11.4,11.865l0.124,44.284l-47.075,0.286l-12.111-20.548c-0.263-0.389-0.588-0.26-0.854-0.649l3.591-19.17c5.65,2.602,10.406-4.13,7.32-9.583C150.472,216.091,170.503,200.193,170.503,200.193L170.503,200.193zM142.705,200.28c-1.234,0-2.235,0.995-2.235,2.229c0,1.235,1.001,2.241,2.235,2.241c1.233,0,0.768-0.763,0.768-1.998C143.473,201.519,143.939,200.28,142.705,200.28zM129.691,200.412c-0.62,0.707-0.975,4.5,0,4.469c1.235-0.037,2.236-1.005,2.236-2.239C131.927,201.41,130.926,200.412,129.691,200.412zM142.705,201.027c0.822,0,0.446,0.804,0.446,1.625c0,0.82,0.376,1.349-0.446,1.349c-0.822,0-1.487-0.67-1.487-1.493C141.218,201.688,141.885,201.027,142.705,201.027zM129.691,201.16c0.822,0,1.483,0.662,1.483,1.482c0,0.82-0.661,1.488-1.483,1.488C129.78,203.882,129.318,201.261,129.691,201.16zM67.336,201.749c0.476,0.296,0.794,0.822,0.794,1.423c0,0.696-0.423,1.293-1.026,1.545L67.336,201.749zM79.347,203.246c-0.069,1.068-0.12,1.949-0.191,2.84c-0.424-0.303-0.702-0.797-0.702-1.357C78.453,204.086,78.817,203.526,79.347,203.246zM135.955,203.76l-5.306,5.306l5.523,5.739l5.251-5.557L135.955,203.76zM72.852,205.138l-5.555,4.461l3.576,5.483l1.245,0.747l5.086-4.351L72.852,205.138zM50.548,205.508l13.076,6.979c0,0-3.392,1.419-3.298,3.685c0.135,2.533,1.654,4.604,4.666,3.829c0.692-0.102,1.008,0.185,1.674,1.742c1.276,2.979,2.536,6.25,2.044,6.149c-1.605-1.281-1.364-1.35-3.252-2.198c-3.522-0.97-5.665,2.305-4.552,4.958c1.037,2.447,2.763,2.587,4.493,2.335c0.253,0.059,0.467,0.336,0.638,0.658c0.549,1.114,1.383,3.095,2.034,6.145c1.004,4.699,1.23,10.585,0.498,12.064c-1.014,2.046-2.413,4.818-2.413,4.818c-2.727-5.199-8.67-9.754-15.35-8.142c-0.226,0.14-0.271,0.874,0.032,1.304c2.167,2.843,2.533,5.447,3.308,8.241c1.984,7.164,5.99,11.264,5.935,10.531l-2.099,3.802c0,0-18.16,0.09-25.591,0v-8.727l19.469-19.94l-7.713-0.325l0.267-34.376C47.233,208.45,50.548,205.508,50.548,205.508zM136.05,207.71c0.772,0,1.396,0.624,1.396,1.396c0,0.773-0.624,1.4-1.396,1.4c-0.772,0-1.4-0.627-1.4-1.4S135.279,207.71,136.05,207.71zM72.259,209.125c0.771,0,1.401,0.624,1.401,1.396c0,0.77-0.629,1.4-1.401,1.4s-1.396-0.63-1.396-1.4C70.863,209.75,71.487,209.125,72.259,209.125zM129.806,210.406l0.138,1.378l3.827,4.01l-3.545,3.602c-0.517,0.708-1.838,0.554-2.254,0.603c-0.002,0.045,0.089,0.522,0.402,0.662c0.331,0.145,0.727,0.118,0.885,0.208c0.369,0.21,0.606,0.243,0.606,0.243l5.151-5.269L129.806,210.406zM129.866,213.522c-0.931,0.292-0.765,4.242,0,4.47c1.232,0,2.234-1.001,2.234-2.235C132.1,214.522,131.099,213.522,129.866,213.522zM142.988,214.129c0.094,0.365,0.23,2.938,0,2.973c-0.821,0-1.487-0.664-1.487-1.486C141.501,214.794,142.167,214.129,142.988,214.129zM129.866,214.271c0.821,0,1.487,0.665,1.487,1.487c0,0.821-0.667,1.486-1.487,1.486C129.666,216.9,129.332,214.319,129.866,214.271zM83.85,214.985c-0.222,0.086-0.528,0.032-0.771,0.032c-0.776,0.002-1.741-0.546-1.952-0.447c-0.243,0.115-0.161,0.624-0.148,0.852c0.027,0.211,0.618,0.28,0.859,0.439c0.391,0.259,0.285,0.348-0.16,0.452c-0.394,0.092-0.712,0.117-0.962,0.474c-0.156,0.222-0.17,0.61,0.096,0.606c1.549-0.022,3.515-0.662,5.37-0.039c1.06,0.379,1.75,0.615,1.919,0.469c0.352-0.302-0.888-1.488-2.075-1.709c-1.197-0.226-1.625-0.134-1.238-0.491c0.2-0.184,0.471-0.112,0.49-0.245c0.055-0.372-0.218-0.753-0.542-0.806C84.386,214.517,84.113,214.881,83.85,214.985L83.85,214.985zM90.514,218.708c-0.126,0.002-0.308,0.091-0.552,0.287c-0.706,0.468-1.813,1.099-4.48,0.366c-1.466-0.483-3.111-0.06-4.069,0.208c-0.746,0.21-1.816,0.416-2.672,0.024c-0.837-0.402-1.753-1.013-1.583-0.383c0.042,0.16,0.094,1.081,0.105,1.626c0.027,1.288,0.115,2.36,1.045,1.351c0.402-0.438,0.887-0.442,1.797-0.083c0.648,0.256,1.103,0.429,1.605,0.101c0.712-0.465,1.326-0.582,2.642-0.137c0.623,0.211,1.277,0.229,2.065-0.255c1.312-0.808,2.143-0.022,2.646,0.803c0.398,0.653,0.597-0.278,1.332-2.219C90.773,219.475,90.891,218.703,90.514,218.708zM84.234,225.913c-0.714,0.404-1.71,0.524-2.434,1.001c-1.532,1.056-0.096,1.936,0.968,1.715c0.435-0.1,0.939-0.315,1.497-0.686c1.917-1.272,2.979-1.086,3.161,0.455c0.195,1.665-2.37,2.416-2.13,3.19c0.322,0.502,1.566-0.19,2.337-1.235C89.919,227.257,87.403,224.124,84.234,225.913L84.234,225.913zM94.165,234.652c-2.601,0.295-6.516,1.55-8.481,3.027c-1.545,1.205-1.968,1.504-1.313,1.983c0.6,0.439,1.059,0.455,0.238,1.296c-0.293,0.3-0.791,0.927-0.79,1.05c0.009,0.603,3.678,2.391,5.785,2.671c1.624,0.217,4.25-0.03,5.665-0.601c1.865-0.754,1.928-1.266,0.165-0.749c-1.375,0.404-3.036,0.708-4.672,0.589c-1.473-0.104-2.916-0.555-3.827-0.881c-2.254-0.804-1.862-1.743,0.415-0.942c2.624,1.133,6.02,1.114,9.036-0.246c1.217-0.549,1.559-0.982,1.779-0.793c0.055,0.045,0.177,0.342,0.21,0.428c0.077,0.198,0.083-0.513,0.191-1.643c0.09-0.938,0.178-2.194,0.178-2.194s-0.181,0.531-0.178,0.78c0.024,1.642-0.771,1.649-3.024,0.393c-2.646-1.453-3.933-1.312-6.449-1.296c-1.103,0.007-1.152-0.312,0.399-0.823c0.738-0.244,1.871-0.637,3.559-1.177C94.446,235.077,94.823,234.578,94.165,234.652zM74.216,237.963c0.958,0,1.817,0.813,2.062,2.393l-0.953-0.066c-0.318-2.357-2.029-1.824-2.701-0.422l-0.84,0.024C72.443,238.595,73.37,237.963,74.216,237.963zM76.652,238.107c0.388-0.034,2.192,0.84,2.304,1.108c0.12,0.295-0.567,0.613-1.168,0.788c-0.692,0.204-0.551,0.233-0.77-0.176C76.714,239.255,76.177,238.132,76.652,238.107zM72.049,238.221c0.02,0.253-0.529,1.18-0.925,1.3c-0.467,0.141-0.836-0.476-0.451-0.792C71.017,238.548,71.978,237.859,72.049,238.221L72.049,238.221zM90.601,238.345c1.212-0.051,2.341,1.174,2.436,2.623l-0.611-0.014c-0.566-3.014-2.882-2.332-3.403-0.181l-0.722-0.205C88.901,239.01,89.771,238.38,90.601,238.345L90.601,238.345zM88.219,238.561c0.332-0.023,0.289,0.248-0.109,1.048c-0.188,0.378-0.322,0.591-0.652,0.579c-0.448-0.066-0.748-0.211-0.977-0.566c-0.156-0.351,0.209-0.624,0.985-0.87C87.821,238.638,88.068,238.57,88.219,238.561L88.219,238.561zM93.314,238.783c0.213,0,0.6,0.138,1.208,0.406c1.557,0.686,1.742,0.97,0.927,1.359c-0.362,0.172-0.662,0.304-0.903,0.383c-0.731,0.242-0.708-0.167-0.903-0.671c-0.112-0.285-0.246-0.545-0.388-0.847C93.057,238.988,93.049,238.781,93.314,238.783zM70.503,241.338c0.259-0.002,0.82,0.34,1.947,0.743c1.619,0.581,3.251,0.365,5.401-0.319c0.886-0.283,1.189-0.46,0.839,0.056c-0.277,0.408-1.787,1.154-3.019,1.46c-2.309,0.571-5.359-0.515-5.36-1.697C70.328,241.409,70.385,241.339,70.503,241.338L70.503,241.338zM78.143,243.285c0.235,0.005,0.006,0.355-0.483,0.903c-0.758,0.847-1.917,1.43-3.097,1.639c-2.484,0.44-4.542-0.239-4.562-1.629c-0.015-1.001,0.161-1.017,1.387-0.382c1.041,0.537,3.38,0.666,5.264,0.059c0.619-0.164,1.253-0.54,1.363-0.571C78.069,243.289,78.11,243.284,78.143,243.285L78.143,243.285zM97.237,244.632c-1.885,0.497-3.886,0.998-5.715,1.349c-1.961,0.384-4.818,0.031-6.309-0.703c-1.102-0.54-1.487-0.221-1.003,0.831c0.315,0.688,0.794,1.409,2.207,1.902c2.053,0.718,6.867-0.447,10.442-2.295C98.938,244.793,98.539,244.233,97.237,244.632L97.237,244.632zM66.196,258.794l3.218-5.466c21.784,4.218,45.353,1.156,52.565,0.158c0,0,7.877,13.032,10.709,17.605c0.267,0.487,0.999,2.135,0.999,2.135l-74.378-0.059c1.041-2.095,2.03-4.8,2.03-4.8c-2.272-0.912-4.036-4.307-5.127-7.172c-0.958-2.515-2.616-8.656-4.798-11.646C55.23,247.383,64.829,252.213,66.196,258.794z"/>
<path fill="#D40000" d="M133.055,272.614H59.387l9.599-19.184c17.908,2.71,35.562,2.372,53.014-0.388L133.055,272.614L133.055,272.614zM32.387,257.322l-0.218-9.264l9.562,0.02L32.387,257.322zM112.42,196.536l-0.106-29.873l13.482,8.87l-0.494,30.329L112.42,196.536zM80.182,189.494c0.484-10.685-2.072-20.652-4.042-30.76l13.959-9.169l0.762,33.724L80.182,189.494zM43.43,161.419l0.378-38.519c12.558,18.061,20.19,36.043,22.379,60.809c-3.415,1.379-6.746,2.899-10.246,4.125C51.908,178.577,47.841,169.617,43.43,161.419L43.43,161.419zM170.667,178.001c-11.605-14.742-18.605-34.958-22.258-59.158l10.623-5.155c3.525,8.542,6.956,17.235,11.416,24.326L170.667,178.001zM124.85,151.744l-1.13-32.33l10.634-6.46c0.565,11.093,2.317,21.496,4.414,30.233L124.85,151.744zM101.719,134.488l-11.478-6.674l0.652-29.225l10.494,8.223L101.719,134.488zM173.363,53.451c0.821-3.06,6.354-6.967,8.725-9.072l-0.101,8.655C181.987,53.034,173.783,53.614,173.363,53.451zM92.923,48.771L81.017,28.453l74.631-0.625l-9.588,20.458C126.296,44.672,109.385,46.304,92.923,48.771z"/>
<path d="M26.094,12.415h-9.854v3.366h3.665c0,0-0.042-0.64-0.012,6.87c0.021,5.265,0.016,8.627-0.045,10.838c0.017,2.946-0.469,4.75-1.629,5.833c-1.837,1.543-5.428,1.389-6.753-0.065c-0.983-1.142-1.193-3.321-1.132-5.889H6.986c0,0,0.002,1.242,0,1.895c-0.582,12.115,15.648,10.062,16.167,1.608c0.108-1.806,0.053-1.149,0.008-11.158c-0.047-10.727-0.008-9.93-0.008-9.93h2.94V12.415zM127.128,231.523c0.172,0.053,2.479-1.507,3.674-3.807c1.295-2.541,0.124-5.036,0.508-5.046c2.382,0.71,1.696,5.25,0.867,6.658c-0.702,1.223-2.048,2.046-3.439,2.283C127.366,231.843,127.128,231.523,127.128,231.523L127.128,231.523zM131.008,221.597c-0.479,0.005-0.688-0.076-1.003-0.402c-0.439-0.455-0.966-0.761-1.246-0.721c-0.378,0.055-0.549-0.014-0.553-0.215c-0.001-0.163,0.166-0.191,0.785-0.136c0.378,0.032,1.173-0.563,1.173-0.563l0.009-42.912c3.373,1.398,8.417,2.204,12.293,2.665l0.26,38.25c0,0,5.684-2.979,7.75-4.168l0.075-34.24l4.028-0.439l-6.36-12.924c-0.893,0.686-13.412-0.483-16.538-2.519l11.422-7.124c-1.159-3.542-2.216-6.922-3.185-10.505c-0.03-0.11-0.241-0.1-0.271-0.209c-0.234-0.873-0.402-1.267-0.622-2.147c-0.042-0.165,0.024-0.431-0.022-0.595c-2.46-8.477-4.14-19.711-4.481-29.768c0.037-0.096,0.4-0.014,0.4-0.014l-0.074-6.144l-0.406,0.27l0.04-2.781l0.415-0.408c0.009-0.538,0.047-1.556,0.047-1.556l-0.528-0.33l0.271-4.658l0.545-0.08l0.299-7.375l-14.465,9.363c0,0-9.44-6.758-13.57-10.266c4.542-3.088,5.749-9.112,6.875-14.111c1.15-4.945,1.53-9.03,1.857-13.168c0.359-4.562,1.114-10.395,1.719-13.269c0.365-1.738,0.352-1.928-0.16-1.957c-0.176-0.01,0.006-0.066,0.407-0.128c9.275-0.371,19.234,1.01,28.082,2.161c0,0,2.188-4.078,2.947-5.58c0,0,0.445,1.379,0.917,2.337c1.075,2.035,3.531,4.192,5.631,5.354c0.784,0.515,3.037,1.271,4.561,1.529c0.896,0.147,2.339-0.136,3.407-0.561c0.369-0.153,0.656-0.346,0.658-0.539c0.003-0.195-0.286-0.392-0.658-0.742c-0.315-0.301-0.737-0.879-0.94-1.292c-0.641-1.303-1.622-3.494-2.17-5.542c-1.543-4.073-2.688-8.992-6.229-11.16l2.445-4.891l-76.983,0.02L91.774,47.47c0,0,0.361,0.599,0.478,0.811c0.352,0.633,0.496,0.542,0.496,0.542c-0.775,7.015-1.878,13.922-3.337,20.708c0,0-0.155-0.542-2.417-0.51c-6.621,0.096-8.939,7.454-3.403,10.71c0.521,0.31,1.409,0.904,2.285,1.364c0.252,0.131,3.426,1.993,3.426,1.993l-3.803-1.71l-0.275,44.149c0,0-7.932-2.385-13.162-2.607l0.052-38.281l-7.303,3.941l-0.331,34.225l-4.002,0.258c0,0,1.517,3.226,1.852,3.903c0.677,1.357,2.378,4.374,3.54,6.28c0.412,0.675,1.373,2.176,1.373,2.176c5.331,0.141,10.785,0.941,15.744,3.145l-11.474,7.466c4.791,13.502,10.768,33.26,7.438,65.148l0.804-0.511l0.22-3.435l14.283-9.83l17.619,14.189c0,0-1.279-0.034-1.566-0.047c-4.493-0.158-7.659,4.438-8.744,8.275c-1.914,6.763-2.165,8.434-3.047,19.158c-0.348,4.243-1.187,8.333-2.043,12.376c-0.451,2.03-0.384,2.233-0.384,2.233c8.961,0.286,18.321-0.662,25.342-2.212c0,0,2.963-14.067,4.021-20.039c0.999,0.574,1.887,0.823,2.785,0.804C135.186,231.393,134.591,221.864,131.008,221.597L131.008,221.597zM100.079,28.758l3.643,12.781l-8.922,0.824l-7.407-13.5L100.079,28.758zM154.926,28.578l-9.172,19.458c-19.24-2.701-30.346-2.958-52.68,0.205l-11.61-19.398l3.056-0.026l8.753,15.489l13.001-1.297l-3.594-14.172l3.435-0.105l3.555,13.908l20.122-0.106c0.652-4.661,1.915-13.773,1.915-13.773l3.715,0.042l-2.475,14.081l11.886,1.491l6.868-15.741L154.926,28.578zM129.12,28.759l-1.172,11.83l-16.645,0.128l-2.664-11.965L129.12,28.759zM149.287,28.533l-5.651,14.042l-8.234-1.102l2.25-12.745L149.287,28.533zM51.497,51.389c1.285,1.009,1.688,1.269,1.471,1.691c-0.244,0.472-0.535,0.378-1.624-0.535c-3.25-2.763-6.732-3.404-9.7-2.603c-8.358,2.924-9.812,12.588-3.993,19.173c5.787,5.112,15.955,2.024,17.59-5.972c0.046-1.479,1.328-2.053,1.33-0.142c-0.641,6.693-3.795,12.465-6.464,16.731h15.381c-3.729-5.573-4.982-8.837-6.083-17.156c0.052-1.307,0.903-1.505,1.195-0.278c0.886,5.898,5.476,10.578,11.555,9.629c12.376-2.495,12.439-19.307,1.617-22.028c-2.694-0.558-5.937,0.152-8.433,2.378c-0.907,0.809-1.229,0.938-1.546,0.628c-0.352-0.341,0.074-0.685,1.1-1.595c5.715-4.214,5.456-11.902,0.256-16.202c-4.889-3.402-10.655-3.111-14.795,0.529C44.979,40.635,46.791,47.87,51.497,51.389L51.497,51.389zM159.44,42.291c0.365,1.198,0.737,2.374,0.824,2.614c1.343,3.64,1.896,4.843,2.773,6.053c0.145,0.2,0.19,0.177-0.023,0.347c-4.043,1.978-11.353-2.887-13.113-7.343c0.22-0.431,1.199-2.24,1.199-2.24c0.509,0.996,0.129,1.981,0.462,2.874c0.083,0.382,0.918-2.576,0.918-2.576s0.807,1.312,0.904,3.837c0.017,0.389,1.051-1.694,1.051-1.694c1.301,1.752,1.227,4.791,1.227,4.791c1.467-1.781,0.552-2.8,2.818,1.736c0.262-0.472,0.135-0.973,0.479-0.84c0.993,0.385,2.393,1.082,2.904,0.942c-0.666-0.833-1.955-1.271-2.307-2.375c0,0,1.021,0.086,1.089,0.036c-1.159-0.628-2.272-1.173-3.141-2.384c0.258-0.096,1.306,0.084,1.26-0.026c-1.567-1.417-3.918-2.561-0.517-2.241c-2.212-1.555-4.674-2.629-0.834-2.513c-2.74-1.295-3.479-2.093-2.969-2.312c0.288-0.123,1.107,0.37,2.413-0.048c-2.201-0.899-3.107-1.309-3.196-1.604c-0.105-0.359,0.94-0.555,1.658-1.332c0,0-0.887,0.201-1.274-0.209c0,0,0.431-1.24,0.761-1.956C157.611,36.372,158.713,39.973,159.44,42.291zM183.054,37.353c0,0-12.385,13.344-18.517,19.965l5.993,0.09l0.272,36.132c2.09,0.28,5.709,0.005,7.079,1.395c0.851,1.259-2.441,3.735-4.297,3.215c-1.235-0.334-2.764-0.07-2.764-0.07l0.127,40.263c-3.954-7.341-6.977-11.985-11.354-24.73c1.268-0.881,2.573-1.562,2.791-1.711c-1.684-4.058-2.847-10.438-0.498-15.999l1.618,0.965c-1.186,3.394-1.625,8.412,0.317,13.049l0.446-0.467c0,0-0.481-0.926-0.79-1.947c-0.276-0.911-0.669-2.086-0.674-3.302c-0.078-2.156-0.014-4.009,0.497-5.739c0.177-0.564,0.426-1.406,0.558-1.665c0.13-0.258,0.255-0.498,0.254-0.57c-4.764-1.93-8.18-4.753-12.287-6.774c-0.156-0.076-0.286-0.141-0.39-0.199c-0.521-0.289-0.383-0.389,0.431-0.713c1.716-0.682,2.414-1.51,2.376-3.175c-0.054-2.367-1.32-3.289-4.087-3.133c-1.004,0.057-1.07,0.042-1.249-0.302c-0.419-0.803-1.865-3.995-1.865-4.122c-0.002-0.075-0.302-0.794-0.671-1.597c-0.57-1.281-1.225-2.601-1.494-3.94c-0.136-0.663-0.519-0.925-0.619-0.239c-0.733,5.097-1.407,7.786-2.723,10.847c-0.391,0.912-0.688,1.678-0.657,1.706c0.128,0.111,2.33,1.135,3.361,1.559c4.024,1.658,5.854,2.678,5.231,2.924c-0.432,0.173-0.588,0.472-0.699,1.328c-0.288,2.244-0.255,3.39,0.118,4.101c0.395,0.744,0.385,0.799-0.259,1.219c-0.56,0.364-0.439,0.365-0.591,2.239c-0.179,2.225-0.057,3.639-0.057,3.639l1.001,1.286l-1.021,1.269l-0.233,5.825l1.375,1.045l-1.287,1.271l0.46,5.311c0,0-0.169,0.491-0.391,0.736c2.18,22.468,10.601,45.112,23.215,60.543l0.125,36.909l12.363,12.37L183.054,37.353zM182.088,39.729v2.908l-10.499,11.306l10.499,0.182v2.465l-16.118-0.032L182.088,39.729zM181.924,44.667l0.028,8.147l-7.847,0.011L181.924,44.667zM16.19,47.955c-6.556,0.248-5.486,7.637-2.644,9.825c1.723,1.595,1.742,1.715-0.378,0.514c-3.857-2.507-7.935-0.761-8.051,3.443c-0.208,6.795,7.81,7.355,9.46,1.695c0.13-0.745,0.798-1.663,0.748-0.272c-0.107,2.287-3.003,7.975-3.237,7.904h7.316c-0.544-1.356-2.383-4.838-2.421-7.64c0.044-1.944,0.518-0.674,0.798,0.294c1.628,5.767,9.544,4.831,9.777-1.219c0.1-4.399-4.093-7.068-7.548-4.464c-1.965,1.375-1.984,1.025-0.405-0.712C23.189,53.646,21.179,47.766,16.19,47.955L16.19,47.955zM109.93,48.773l1.637-0.067c-0.064,1.642-0.716,9.226-1.494,15.864c-0.878,7.487-2.673,13.945-3.016,13.945l-1.581-0.958C108.094,68.969,108.789,57.915,109.93,48.773L109.93,48.773zM117.354,48.538c-0.23,4.635-1.202,7.878-1.5,13.359c-0.368,6.694-1.518,15.026-4.529,21.94c-1.015,2.329-2.888,4.514-5.518,5.545c-4.61,1.809-8.524-3.906-5.407-8.109c2.464-3.321,6.32-3.279,7.491,0.083c0.966,2.777-2.141,6.264-4.621,5.182c-1.724-0.754-1.283-3.859,0.652-4.589c0.802-0.302,1.481,0.715,1.085,1.627c-0.312,0.719-0.346,1.169,0.076,0.863c1.751-1.233,0.434-4.174-1.74-3.075c-2.9,1.467-2.412,5.781,0.509,5.969c3.696,0.363,6.548-4.188,8.375-12.833c2.003-9.675,1.504-18.336,3.425-25.931L117.354,48.538zM112.631,48.701l1.944-0.058c-0.156,0.718-0.183,1.483-0.315,2.363c-0.767,5.074-1.221,12.483-2.003,18.289c-1.109,8.193-3.093,13.172-3.146,12.566c-0.221-0.993-0.849-1.799-1.329-2.585c2.003-5.448,2.811-10.404,3.326-15.073C111.708,58.748,111.876,53.688,112.631,48.701zM104.325,49.17l1.705-0.088c-0.664,10.862-2.256,20.708-3.197,24.935c-0.29,1.274-0.387,1.827-0.629,1.933c-0.269,0.118-0.715-0.313-1.801-0.917C102.056,75.266,103.381,56.566,104.325,49.17L104.325,49.17zM106.984,49.014l1.85-0.18c-0.273,3.927-0.937,10.1-1.679,15.666c-0.898,6.729-2.074,12.691-2.66,12.604l-1.543-0.536C103.986,76.89,106.529,56.815,106.984,49.014zM103.472,49.205c-1.209,8.222-1.325,17.831-3.83,25.507l-1.732-0.806c0.474,0.155,1.707-4.995,2.125-10.823c0.363-5.073,1.279-10.593,1.55-13.65L103.472,49.205zM100.612,49.507c-0.689,2.904-0.688,7.182-1.205,10.751c-0.64,4.419-1.322,13.394-2.344,13.188l-1.769-0.898c0.928,0.28,2.548-16.724,3.534-22.763L100.612,49.507zM95.953,50.226l1.797-0.244c-0.864,6.639-2.43,22.119-3.355,22.234l-1.684-0.894C93.367,68.604,95.031,59.358,95.953,50.226zM94.836,50.486c-0.744,7.297-1.443,14.688-2.998,20.361l-1.844-0.831c0,0,1.279-6.241,1.886-10.625c0.599-4.328,0.69-4.944,0.881-6.071c0.421-2.486,0.536-2.581,0.536-2.581L94.836,50.486zM173.772,57.965l-0.178,35.042l-2.043-0.078l0.083-35.019L173.772,57.965zM178.598,58.242c0.771,0,1.396,0.625,1.396,1.396c0,0.772-0.625,1.4-1.396,1.4c-0.772,0-1.396-0.628-1.396-1.4C177.202,58.867,177.825,58.242,178.598,58.242zM145.687,71.101c1.447,2.646,2.556,3.616,3.831,4.123c2.299,0.913,5.472-1.336,4.315-4.484c-0.605-1.655-2.146-1.901-4.099-1.571c0,0-0.842-0.598-1.83-3.596c-1.173-3.549-3.01-7.201-3.01-7.201C144.778,62.823,143.731,67.459,145.687,71.101L145.687,71.101zM180.665,61.495c0.771,0,1.4,0.623,1.4,1.395c0,0.772-0.629,1.396-1.4,1.396c-0.772,0-1.396-0.624-1.396-1.396C179.269,62.118,179.894,61.495,180.665,61.495zM176.831,61.549c0.773,0,1.396,0.624,1.396,1.396c0,0.771-0.623,1.4-1.396,1.4c-0.77,0-1.399-0.628-1.399-1.4C175.432,62.173,176.061,61.549,176.831,61.549zM145.519,61.215c1.297,2.686,1.569,4.71,2.827,7.145c0.55,1.062,1.045,1.974,1.045,1.974c4.107-1.931,5.685,2.931,2.354,4.483c-3.276,1.528-6.965-4.278-6.606-10.53C145.235,62.563,145.519,61.215,145.519,61.215zM178.671,64.842c0.771,0,1.396,0.625,1.396,1.396c0,0.771-0.625,1.4-1.396,1.4c-0.772,0-1.396-0.629-1.396-1.4C177.275,65.467,177.898,64.842,178.671,64.842zM182.37,67.466v2.986l-7.298,7.081v-2.888L182.37,67.466zM86.417,69.765c1.395,0.018,2.063,0.43,1.14,0.797c-3.063,1.218-4.425,3.156-4.593,6.546c-0.008,1.714,0.197,1.938-0.857,0.982C79.413,74.322,83.293,69.742,86.417,69.765zM88.978,70.99c0.34-0.012,0.676,0.032,1.013,0.138c0.822,0.258,0.521,0.277-0.863,1.196c-2.639,1.75-3.443,3.467-3.559,6.975c-0.034,0.528,0.076,0.967,0.031,1.188c-0.037,0.168-0.24,0.114-0.364,0.107c-0.504-0.083-0.814-0.617-0.959-1.066C82.603,76.186,85.696,71.115,88.978,70.99L88.978,70.99zM91.836,72.15c0.227-0.003,0.426,0.033,0.589,0.114c0.645,0.322,0.407,0.369-0.775,1.212c-2.099,1.497-3.136,3.695-3.38,6.149c-0.156,1.576,1.059,3.448-1.092,1.904c-1.512-1.254-1.21-4.515,0.394-6.753C88.56,73.396,90.609,72.166,91.836,72.15L91.836,72.15zM182.37,71.468v3.399l-7.298,6.932v-3.48L182.37,71.468zM94.18,73.241c0.829,0.008,1.201,0.54,0.233,1.148c-2.363,1.485-3.783,4.318-3.645,7.276c0.134,1.785,0.201,2.105-0.94,0.926c-1.837-1.903-0.542-7.064,3.019-8.996C93.331,73.342,93.803,73.238,94.18,73.241zM96.597,74.229c1.36-0.033,1.55,0.656,0.333,1.506c-2.323,1.621-3.874,4.478-3.836,7.074c0.018,1.207-0.078,1.356-0.611,0.949c-2.683-2.048,0.192-9.194,3.828-9.51C96.411,74.239,96.506,74.232,96.597,74.229zM144.587,74.453c0.334,0.023,0.929,1.206,1.862,3.677c0.899,2.384,2.351,5.388,2.66,5.501c0.095,0.035,0.503-0.107,0.907-0.319c3.062-1.607,5.218,2.951,2.199,4.647c-2.147,1.207-4.174-0.087-6.043-3.864c-2.206-4.451-2.81-7.756-1.744-9.538C144.473,74.484,144.525,74.449,144.587,74.453L144.587,74.453zM99.087,75.667c0.37-0.017,0.727,0.053,1.063,0.227c0.793,0.411,0.677,0.715-0.539,1.427c-1.253,0.737-1.747,1.195-2.468,2.285c-1.124,1.701-1.312,2.354-1.313,4.545c0,1.783-0.531,1.883-1.598,0.296C92.396,81.713,96.082,75.8,99.087,75.667L99.087,75.667zM102.145,77.269c1.202-0.027,1.994,0.464,0.844,1.072c-3.66,1.934-5.198,4.711-4.499,8.128c0.221,1.07-1.003,0.164-1.747-1.296c-1.085-2.131,0.917-6.25,3.649-7.508C100.965,77.401,101.598,77.28,102.145,77.269zM143.447,80.411c0.229,0.017,0.497,0.625,1.082,2.126c0.381,0.978,0.894,2.147,1.141,2.599c0.248,0.454,0.419,0.877,0.379,0.944c-0.207,0.343-1.903-0.241-2.473-0.853c-0.88-0.945-1.16-3.06-0.566-4.271C143.184,80.606,143.31,80.401,143.447,80.411zM178.598,82.988c0.771,0,1.396,0.623,1.396,1.396c0,0.771-0.625,1.4-1.396,1.4c-0.772,0-1.396-0.629-1.396-1.4C177.202,83.611,177.825,82.988,178.598,82.988zM35.337,85.241c0.772,0,1.396,0.629,1.396,1.4c0,0.771-0.624,1.396-1.396,1.396c-0.771,0-1.396-0.625-1.396-1.396C33.941,85.87,34.565,85.241,35.337,85.241zM93.052,85.661c1.525-0.053,1.997,0.667,2.253,2.984c0.176,1.589,0.52,1.738,3.02,1.318c2.641-0.444,3.524,0.272,3.713,3.005c0.149,2.169,0.131,2.15,3.134,2.171c2.956,0.02,3.273,0.319,3.612,3.347c0.253,2.252,0.167,2.188,3.074,2.149c3.221-0.043,3.509,0.194,3.728,3.042c0.177,2.308,0.329,2.457,2.362,2.29c1.992-0.164,5.667-0.181,6.354-0.032c1.713,0.375,1.783,0.304,2.153-2.007c0.486-3.042,1.088-3.423,4.826-3.047c1.839,0.185,2.052,0.147,2.312-1.47c0.348-2.157,0.782-2.788,0.782-0.92c0.002,4.719-0.326,4.939-3.475,4.099c-2.366-0.63-2.403-0.145-2.652,2.132c-0.219,2.008-0.556,2.831-1.295,3.152c-0.573,0.25-2.506,0.035-3.28-0.184c-0.294-0.083-2.131-0.127-4.306-0.105c-5.238,0.057-5.293,0.068-5.29-3.612c0.002-1.548-0.339-1.883-3.081-1.8c-3.441,0.104-3.26,0.196-3.845-3.935c-0.205-1.431-0.318-1.486-3.166-1.446c-3.104,0.045-3.809,0.09-3.626-2.526c0.165-2.377-0.414-3-3.002-2.398c-2.757,0.642-3.286-0.529-3.553-2.654c-0.25-1.97-0.417-1.476-1.733-1.579c-1.458-0.113-1.288-1.755,0.26-1.907C92.597,85.704,92.834,85.669,93.052,85.661L93.052,85.661zM180.755,86.377c0.773,0,1.396,0.624,1.396,1.395c0,0.771-0.623,1.396-1.396,1.396c-0.771,0-1.396-0.625-1.396-1.396C179.358,87.001,179.984,86.377,180.755,86.377zM176.824,86.455c0.77,0,1.394,0.629,1.394,1.401s-0.624,1.396-1.394,1.396c-0.772,0-1.396-0.624-1.396-1.396S176.052,86.455,176.824,86.455zM37.43,88.781c0.772,0,1.401,0.625,1.401,1.396c0,0.771-0.628,1.396-1.401,1.396c-0.771,0-1.396-0.624-1.396-1.396C36.035,89.406,36.66,88.781,37.43,88.781zM33.508,88.812c0.771,0,1.396,0.625,1.396,1.396c0,0.771-0.625,1.395-1.396,1.395c-0.772,0-1.396-0.624-1.396-1.395C32.112,89.438,32.736,88.812,33.508,88.812zM106.502,90.002l14.522,10.836l13.747-9.2l-0.084,3.355l-13.646,9.077c0,0-11.616-8.995-17.229-13.336L106.502,90.002zM178.78,90.163c0.772,0,1.396,0.628,1.396,1.401c0,0.771-0.624,1.395-1.396,1.395c-0.772,0-1.396-0.623-1.396-1.395C177.384,90.792,178.009,90.163,178.78,90.163zM154.995,91.992l3.444,5.597L155,100.084l3.131,4.001l-3.377,3.46l3.708,2.356l-3.467,4.831l-4.803,2.133l4.803-6.311l-3.977-2.729l3.771-4.062l-3.383-4.434l3.502-2.736l-3.79-6.212l0.25-0.3L154.995,91.992zM91.323,90.756l25.516,19.09c0,0,2.358,1.772,3.033,2.201c1.432,0.908,1.717,0.544,3.147-0.436c3.225-1.915,11.029-7.227,11.029-7.227l-0.062,2.75c0,0-7.849,5.873-12.196,8.31c-0.617,0.341-1.278,0.02-1.742-0.333c-9.477-7.505-19.175-14.783-28.783-22.136L91.323,90.756zM149.958,91.06c0.107,0.193,0.451,0.262,0.616,0.519c1.131,1.75,3.182,4.86,3.182,4.86l-3.587,2.846l3.293,4.326l-4.116,4.184l4.204,2.862c0,0-2.612,3.998-4.584,5.825l-0.049-3.105l1.687-2.033l-1.936-1.331l-0.005-4.271l1.968-2.071l-1.803-1.823l0.321-4.669l1.72-1.359l-1.42-1.944L149.958,91.06zM35.386,92.013c0.771,0,1.401,0.623,1.401,1.395c0,0.772-0.629,1.396-1.401,1.396s-1.396-0.624-1.396-1.396C33.99,92.637,34.614,92.013,35.386,92.013zM182.092,97.104l-7.1,6.561v-2.981l7.1-6.968V97.104zM39.443,93.901v3.595l-7.58,6.999v-3.47L39.443,93.901zM182.092,98.023v3.569l-7.1,6.67v-3.534L182.092,98.023zM173.738,98.584l0.146,116.026l8.242,8.721l0.008,2.894l-10.431-10.807l-0.239-116.737L173.738,98.584zM39.443,98.238v4.04l-7.58,6.915v-3.8L39.443,98.238zM91.303,98.98l10.025,7.804l-0.041,27.207c-4.061-3.053-7.319-4.873-10.401-6.419L91.303,98.98zM178.79,107.78c0.773,0,1.396,0.624,1.396,1.395c0,0.772-0.623,1.396-1.396,1.396s-1.4-0.625-1.4-1.396C177.39,108.404,178.017,107.78,178.79,107.78zM104.347,109.109l0.037,27.762l-1.974-1.805l-0.116-27.533L104.347,109.109zM35.88,109.376c0.771,0,1.396,0.624,1.396,1.396s-0.625,1.401-1.396,1.401c-0.772,0-1.401-0.629-1.401-1.401S35.108,109.376,35.88,109.376zM180.656,111.356c0.77,0,1.394,0.624,1.394,1.395c0,0.772-0.624,1.401-1.394,1.401c-0.772,0-1.396-0.629-1.396-1.401C179.26,111.979,179.884,111.356,180.656,111.356zM176.678,111.529c0.772,0,1.395,0.624,1.395,1.396c0,0.771-0.623,1.395-1.395,1.395c-0.773,0-1.396-0.623-1.396-1.395C175.282,112.153,175.905,111.529,176.678,111.529zM105.466,111.395l6.115,5.717l-6.3,5.976l-0.05-2.758l3.507-3.379l-3.524-3.654L105.466,111.395zM107.795,111.899l5.099,3.764l-0.798,0.968L107.795,111.899zM37.946,112.743c0.771,0,1.396,0.624,1.396,1.396c0,0.771-0.625,1.396-1.396,1.396s-1.396-0.625-1.396-1.396C36.55,113.366,37.174,112.743,37.946,112.743zM33.855,112.811c0.771,0,1.396,0.628,1.396,1.4s-0.625,1.395-1.396,1.395s-1.396-0.623-1.396-1.395S33.083,112.811,33.855,112.811zM134.072,113.318c0.982,11.106,1.664,18.794,4.533,29.267l-13.19,8.434l0.12-32.168L134.072,113.318zM170.426,138.731l-0.054,38.146c-12.448-17.714-19.16-38.421-21.321-58.043c0,0,6.682-3.078,9.927-4.968C162.417,121.921,160.933,121.912,170.426,138.731zM178.958,114.932c0.772,0,1.395,0.628,1.395,1.399c0,0.772-0.623,1.396-1.395,1.396s-1.395-0.624-1.395-1.396C177.563,115.56,178.186,114.932,178.958,114.932zM35.935,116.432c0.771,0,1.396,0.625,1.396,1.396c0,0.771-0.625,1.4-1.396,1.4c-0.772,0-1.396-0.629-1.396-1.4C34.538,117.057,35.163,116.432,35.935,116.432zM113.762,116.304l4.844,3.697l0.012,2.804l-5.794-5.574L113.762,116.304zM112.103,117.784l6.057,5.988l-6.353,6.335l-6.262-5.936L112.103,117.784zM157.711,117.994l-5.84,2.395c2.234,20.242,8.03,35.416,15.846,47.715l0.18-28.392C163.86,133.326,160.805,125.634,157.711,117.994L157.711,117.994zM182.263,118.412v3.185l-7.271,6.667v-3.171L182.263,118.412zM112.097,120.163l-3.86,3.768l3.886,3.759l3.742-3.759L112.097,120.163zM39.443,119.747v3.386l-7.218,6.97v-3.601L39.443,119.747zM120.708,121.645l0.061,32.398l-1.607,0.76l0.113-33.847L120.708,121.645zM112.024,122.135l1.75,1.76l-1.833,1.843l-1.723-1.761L112.024,122.135zM182.263,122.473v3.671l-7.271,6.79l-0.12-3.503L182.263,122.473zM101.825,136.243c7.502,6.491,13.267,16.345,19.595,21.854c2.56,2.218,8.82,5.681,12.198,6.747c3.841,1.21,6.829,1.705,10.683,1.774c3.044,0.055,3.058,0.071,3.058,0.071l1.289,2.291l-2.13-0.029l-0.14,8.086c2.256,0.108,4.466-0.018,6.646-0.286l0.787,1.471c-15.518,2.105-30.688-3.777-39.81-11.289c-4.16-3.423-7.541-7.598-11.657-13.678c-7.921-12.354-21.874-18.32-34.866-18.459l-1.077-1.674l2.171,0.073c0,0,0.22-1.554,0.248-4.194c0.032-2.975,0.014-3.497-0.22-3.583c-1.573-0.182-6.318-0.084-6.179,0.116l-0.977-1.746C76.934,122.191,92.177,127.583,101.825,136.243L101.825,136.243zM39.443,124.05v3.321l-7.218,6.809v-3.326L39.443,124.05zM118.776,124.332l-0.191,2.969l-3.44,3.403l3.661,3.554l-0.086,2.479l-6.455-5.987L118.776,124.332zM71.632,125.387c-0.332,0-0.533,0.03-0.57,0.092c-0.085,0.143-0.039,1.42-0.32,6.034c-0.103,1.692-0.22,1.7,1.199,1.869c1.191,0.041,3.854,0.723,5.626,0.933c1.494,0.197,1.182-0.257,1.603-1.451c0.458-1.306,0.708-2.464,1.277-4.327c0.521-1.707,0.282-1.761-3.081-2.39C75.042,125.712,72.628,125.388,71.632,125.387zM105.204,125.104l5.843,5.83l-5.752,5.842l-0.101-2.823c1.109-0.988,2.431-2.111,3.406-3.226l-3.389-3.461L105.204,125.104zM75.909,126.994l0.627,1.031l1.505,0.249l-0.263,1.049l0.765,1.083l-0.942,0.706l0.033,1.305l-1.179-0.042l-1.024,0.733l-0.81-1.029l-1.181-0.038l0.063-1.463l-0.766-0.646l0.914-0.821l-0.118-1.297l1.454,0.244L75.909,126.994zM66.423,128.752l0.928,0.608l-0.943,0.652l-0.042,0.998l-0.578,0.491l-2.12-4.148l1.379,0.559l1.052-0.699L66.423,128.752zM83.428,127.792c-0.741,0.013-0.838,1.384-1.642,3.977c-1.12,3.618-1.201,3.282,0.948,4.037c0.957,0.336,2.787,0.952,3.756,1.407c2.359,1.109,2.372,1.104,3.252-0.401c0.392-0.667,1.133-2.307,1.651-3.158c1.294-2.123,1.329-2.021-1.049-3.166c-1.4-0.675-2.247-0.95-5.188-2.144C84.339,128.014,83.816,127.786,83.428,127.792L83.428,127.792zM85.782,130.192l1.031,0.646l1.158-0.483l0.232,1.246l1.267,0.493l-0.361,1.224l0.557,0.918l-1.079,0.209l-0.784,1.699l-1.184-0.831l-1.256,0.453l-0.348-0.934l-1.285-0.622l0.466-1.028l-0.642-1.388l1.471-0.112L85.782,130.192zM111.685,131.465l6.448,6.319l-5.871,5.883l-6.446-6.339L111.685,131.465zM178.953,132.617c0.773,0,1.396,0.623,1.396,1.396c0,0.771-0.623,1.395-1.396,1.395c-0.771,0-1.396-0.623-1.396-1.395C177.558,133.241,178.182,132.617,178.953,132.617zM94.466,132.922c-0.375,0.007-0.588,0.351-0.913,1.014c-0.137,0.28-0.932,1.767-1.668,2.917c-1.659,2.597-1.66,2.465-0.005,3.48c0.702,0.431,2.317,1.762,3.707,3.018c1.284,1.161,1.145,0.886,3.914-1.882c1.805-1.807,2.918-2.312,2.215-3.265c-1.71-1.466-3.114-2.539-4.969-3.941C95.521,133.35,94.89,132.917,94.466,132.922L94.466,132.922zM111.988,133.629l-3.804,3.726l4.286,3.883l3.555-3.65L111.988,133.629zM46.844,132.365l0.042,29.149c4.181,7.15,8.475,14.366,10.709,22.413l6.134-3.006C60.795,157.107,53.969,143.901,46.844,132.365zM35.92,134.195c0.772,0,1.396,0.624,1.396,1.395c0,0.772-0.623,1.396-1.396,1.396c-0.771,0-1.396-0.625-1.396-1.396C34.524,134.819,35.149,134.195,35.92,134.195zM112.033,135.75l1.833,1.684l-1.688,1.833l-1.851-1.916L112.033,135.75zM180.665,136.024c0.771,0,1.4,0.623,1.4,1.395c0,0.771-0.629,1.396-1.4,1.396c-0.772,0-1.396-0.624-1.396-1.396C179.269,136.647,179.894,136.024,180.665,136.024zM176.914,136.166c0.774,0,1.4,0.624,1.4,1.396c0,0.771-0.626,1.396-1.4,1.396c-0.77,0-1.395-0.624-1.395-1.396C175.519,136.789,176.144,136.166,176.914,136.166zM95.328,136.074l1.061,0.786l1.245-0.535l0.09,1.467l1.135,0.558l-0.715,1.039l0.432,1.367l-1.228,0.04l-0.953,1.251l-0.856-0.822l-1.669,0.112l-0.265-1.423l-0.723-0.566l0.561-0.942l-0.412-1.256l1.429-0.098L95.328,136.074zM33.868,137.629c0.772,0,1.396,0.624,1.396,1.396c0,0.771-0.625,1.396-1.396,1.396c-0.771,0-1.396-0.624-1.396-1.396C32.472,138.253,33.097,137.629,33.868,137.629zM37.887,137.67c0.772,0,1.396,0.628,1.396,1.401c0,0.771-0.625,1.395-1.396,1.395c-0.771,0-1.396-0.624-1.396-1.395C36.491,138.299,37.116,137.67,37.887,137.67zM118.732,141.001l-3.33,3.108l3.282,3.422l-0.099,2.623l-5.825-5.807l5.917-5.808L118.732,141.001zM85.812,140.327l-12.497,8.289l-0.76-2.074l11.14-7.295L85.812,140.327zM178.771,139.65c0.772,0,1.396,0.629,1.396,1.401c0,0.771-0.624,1.396-1.396,1.396c-0.771,0-1.396-0.624-1.396-1.396C177.375,140.279,178.001,139.65,178.771,139.65zM103.852,140.493c-0.579,0.041-1.169,0.725-2.29,1.916c-1.101,1.17-2.398,2.543-2.676,2.738c-0.868,0.611-0.825,0.759,0.684,2.456c0.459,0.514,1.325,1.566,1.925,2.34c0.6,0.772,1.556,1.74,1.745,1.939c0.613,0.643,0.95,0.509,3.768-1.514c3.424-2.457,3.406-2.093,0.261-6.154C105.459,141.877,104.595,140.441,103.852,140.493zM35.88,141.352c0.771,0,1.396,0.623,1.396,1.396c0,0.772-0.625,1.395-1.396,1.395c-0.772,0-1.401-0.623-1.401-1.395C34.479,141.976,35.108,141.352,35.88,141.352zM109.172,141.858l2.258,2.423l-0.201,0.241L109.172,141.858zM182.176,142.397v4.197l-6.956,6.426v-3.841L182.176,142.397zM104.272,143.624l0.846,1.164l1.434-0.092l-0.211,1.37l0.762,0.557l-0.743,1.038l-0.06,1.309l-1.184-0.282l-0.97,1.167l-0.954-1.118l-1.124,0.13l0.039-1.36l-1.147-0.652l0.81-0.885l0.025-1.525l1.669-0.062L104.272,143.624zM138.688,143.711l0.695,2.118l-17.392,11.316l-1.52-1.746L138.688,143.711zM93.158,145.129l1.384,1.042L76.288,157.91l-0.55-1.533L93.158,145.129zM39.766,144.679v3.489l-7.702,7.42v-3.604L39.766,144.679zM112.052,145.517l0.222-0.184l5.969,5.732l-1.127,1.199L112.052,145.517zM95.566,147.198l0.164,33.852l-1.592-1.1l0.121-32.118L95.566,147.198zM96.547,147.979l1.294,1.141l-1.241,1.213L96.547,147.979zM182.176,147.691v3.432l-6.956,6.605v-3.588L182.176,147.691zM39.766,149.339v3.226l-7.702,7.36v-3.258L39.766,149.339zM111.535,149.779c-0.199-0.003-0.414,0.126-0.729,0.374c-0.286,0.225-0.985,0.712-1.556,1.083c-2.095,1.361-3.871,2.637-3.949,2.826c-0.162,0.39,1.941,3.134,4.86,6.422c1.146,1.293,1.114,1.543,2.265,0.391c0.915-1.039,4.271-3.884,4.172-4.646c-0.183-0.872-1.339-1.863-4.2-5.733C112.016,150.006,111.792,149.783,111.535,149.779zM98.603,150.132l4.578,6.552l-0.609,0.608l-5.618-5.541L98.603,150.132zM89.657,150.906l0.009,31.583l-8.595,6.105c0.158,0.083-1.055-18.976-4.341-29.14L89.657,150.906zM111.029,152.019l0.842,1.571l1.273-0.214l-0.168,1.443l1.081,0.848l-1.062,1.468l0.14,1.045l-1.25-0.284l-1.141,1.179l-0.782-1.5l-1.642,0.026l0.23-1.439l-1.146-0.962l1.25-0.739l0.175-1.313l1.077,0.092L111.029,152.019zM118.487,152.263l0.142,1.291l-0.767-0.665L118.487,152.263zM96.516,154.556l-0.013-1.846l5.48,5.288l-5.596,5.245l0.039-2.493l3.185-3.032L96.516,154.556zM141.8,153.535l0.777,2.354l-11.256,6.93l-2.269-1.178L141.8,153.535zM178.886,157.427c0.771,0,1.4,0.623,1.4,1.395c0,0.771-0.629,1.4-1.4,1.4c-0.774,0-1.396-0.628-1.396-1.4C177.49,158.05,178.112,157.427,178.886,157.427zM107.24,161.97l-3.955-3.959l0.497-0.54L107.24,161.97zM117.428,158.411c-1.339,1.146-4.199,4.452-4.195,4.997c0.005,0.542,3.961,3.963,6.34,5.48c0.748,0.476,1.044,0.492,1.333,0.061c4.111-6.143,4.285-5.937,2.659-7.133c-1.656-1.265-3.589-3.146-4.91-3.796C118.099,157.748,118.002,157.917,117.428,158.411L117.428,158.411zM102.606,158.71l6.518,6.251l-6.046,5.831l-6.275-6.621L102.606,158.71zM36.036,159.181c0.771,0,1.396,0.626,1.396,1.396c0,0.772-0.624,1.396-1.396,1.396s-1.396-0.624-1.396-1.396C34.639,159.808,35.264,159.181,36.036,159.181zM118.411,160.439l1.097,0.977l1.308-0.341l0.293,1.292l1.263,0.463l-0.675,1.313l0.093,1.658l-1.27-0.236l-0.881,1.358l-1.289-1.299l-1.479,0.124l0.082-1.449l-1.307-0.631l0.829-0.952l-0.519-1.304l1.565,0.249L118.411,160.439zM180.742,161.021c0.771,0,1.396,0.624,1.396,1.394c0,0.772-0.625,1.396-1.396,1.396c-0.772,0-1.399-0.624-1.399-1.396C179.342,161.645,179.97,161.021,180.742,161.021zM99.18,164.314l3.859,3.95l3.553-3.407l-3.765-3.974L99.18,164.314zM176.892,161.076c0.772,0,1.396,0.623,1.396,1.395c0,0.771-0.624,1.4-1.396,1.4c-0.772,0-1.396-0.628-1.396-1.4C175.495,161.699,176.12,161.076,176.892,161.076zM34.11,162.53c0.771,0,1.396,0.63,1.396,1.4c0,0.772-0.625,1.396-1.396,1.396s-1.396-0.624-1.396-1.396C32.715,163.16,33.338,162.53,34.11,162.53zM38.202,162.543c0.771,0,1.396,0.629,1.396,1.402c0,0.77-0.625,1.394-1.396,1.394c-0.772,0-1.396-0.624-1.396-1.394C36.806,163.173,37.43,162.543,38.202,162.543zM102.844,162.854l1.755,1.812l-1.625,1.714l-1.815-1.87L102.844,162.854zM126.697,164.097c-0.901,0.645-3.344,5.272-3.762,6.29c0.004,0.245,1.18,0.99,2.65,1.678c1.256,0.585,5.324,2.219,5.7,2.309c0.817,0.199,0.957-0.112,1.095-0.645c0.072-0.282,0.395-1.356,0.756-2.527c1.261-4.095,1.638-3.901-0.237-4.523c-0.646-0.214-2.676-0.898-3.956-1.488C127.675,164.607,127.103,164.09,126.697,164.097zM178.771,164.838c0.772,0,1.4,0.625,1.4,1.396c0,0.773-0.628,1.4-1.4,1.4c-0.771,0-1.396-0.627-1.396-1.4C177.375,165.463,178.001,164.838,178.771,164.838zM112.087,166.754l0.219,27.456l-2.149-1.682l-0.059-27.546L112.087,166.754zM102.478,171.433l-5.931,6.038l-0.038-3.076l3.32-3.007l-3.38-3.537l0.069-2.378C98.682,167.245,100.529,169.423,102.478,171.433zM36.007,166.167c0.771,0,1.396,0.623,1.396,1.395c0,0.771-0.625,1.4-1.396,1.4c-0.772,0-1.401-0.629-1.401-1.4C34.607,166.79,35.236,166.167,36.007,166.167zM127.546,166.105l1.196,0.998l1.001-0.601l0.577,1.026l1.439,0.201l-0.646,1.569l0.845,1.211l-1.404,0.26l-0.347,1.672l-1.376-0.817l-1.044,0.453l-0.761-1.417l-1.627-0.066l0.889-1.541l-0.837-1.218l1.181-0.077L127.546,166.105zM109.24,166.216l-0.011,2.422l-2.581,2.616l2.589,2.82l-0.013,2.816l-5.365-5.46L109.24,166.216zM136.758,167.805c-0.541,0.017-0.545,0.587-0.959,2.445c-0.089,0.402-0.377,1.483-0.633,2.399c-0.781,2.78-0.881,2.832,1.532,3.309c1.396,0.208,7.438,1.616,7.562,0.654c0.152-1.637,0.25-5.489,0.27-6.798c0.053-0.438-0.051-0.854-0.489-0.904C141.287,168.58,138.222,167.858,136.758,167.805L136.758,167.805zM113.217,167.923c3.431,2.344,6.754,4.73,10.698,6.869l0.099,28.235l-10.82-8.059L113.217,167.923zM182.092,168.003v3.462l-7.212,6.887v-3.307L182.092,168.003zM139.835,169.205l0.624,1.34l1.313-0.438l-0.007,1.601l1.17,0.738l-1.413,0.653l-0.124,1.944l-1.43-0.44l-1.18,0.729l-1.041-1.095l-1.278-0.025l0.467-1.73l-0.824-0.789l1.199-0.589l0.098-1.544l1.283,0.77L139.835,169.205zM39.917,168.949v3.335l-7.853,7.228v-2.917L39.917,168.949zM149.667,171.038l1.762,2.981l-0.636,1.204l-1.183-0.578l-1.296,0.479l0.197-1.593l-1.001-0.795l1.014-0.931l-0.047-1.169L149.667,171.038zM103.153,172.024l6.021,6.238l-6.133,6.333l-6.02-6.326L103.153,172.024zM182.092,175.928l-7.212,6.701v-3.26l7.212-6.84V175.928zM39.917,173.203v3.254l-7.853,7.359v-3.016L39.917,173.203zM103.169,174.366l-3.91,3.869l3.877,3.894l3.918-3.797L103.169,174.366zM103.221,176.584l1.675,1.719l-1.602,1.664l-1.726-1.68L103.221,176.584zM96.507,178.963l5.97,6.13l-0.685,0.808l-5.291-4.11L96.507,178.963zM109.321,179.458l0.158,2.766l-3.256,2.78l2.974,3.12L109.28,191l-5.659-5.826L109.321,179.458zM178.88,182.268c0.772,0,1.396,0.624,1.396,1.395c0,0.772-0.623,1.396-1.396,1.396c-0.771,0-1.394-0.624-1.394-1.396C177.486,182.893,178.109,182.268,178.88,182.268zM36.176,183.956c0.772,0,1.396,0.624,1.396,1.395c0,0.772-0.624,1.402-1.396,1.402c-0.771,0-1.396-0.63-1.396-1.402C34.78,184.58,35.405,183.956,36.176,183.956zM64.759,184.812l-4.406,6.588l3.47,2.325l-3.287,4.418l3.42,4.115l-3.444,2.952l3.494,5.981c-1.388-0.276-2.802-1.201-4.08-1.843l-2.634-5.012l3.029-2.606l-3.074-3.568l3.225-3.821l-3.234-2.267l3.528-5.423L64.759,184.812zM180.55,185.689c0.771,0,1.396,0.623,1.396,1.395s-0.625,1.396-1.396,1.396c-0.772,0-1.396-0.625-1.396-1.396S179.778,185.689,180.55,185.689zM93.919,185.58l30.401,23.432l-0.124,3.11l-30.408-23.369l-12.911,9.116l0.116-3.318L93.919,185.58zM176.828,185.875c0.773,0,1.396,0.624,1.396,1.395c0,0.772-0.623,1.396-1.396,1.396c-0.772,0-1.396-0.624-1.396-1.396C175.432,186.5,176.055,185.875,176.828,185.875zM106.063,188.868l-0.319,0.06l-3.317-2.422l0.724-0.813C103.152,185.693,105.326,188.094,106.063,188.868zM38.243,187.517c0.771,0,1.4,0.629,1.4,1.402c0,0.77-0.629,1.394-1.4,1.394s-1.396-0.624-1.396-1.394C36.846,188.147,37.471,187.517,38.243,187.517zM34.479,187.536c0.771,0,1.401,0.623,1.401,1.396s-0.629,1.396-1.401,1.396c-0.772,0-1.396-0.623-1.396-1.396S33.708,187.536,34.479,187.536zM178.88,189.38c0.772,0,1.396,0.628,1.396,1.4s-0.623,1.395-1.396,1.395c-0.771,0-1.394-0.623-1.394-1.395S178.109,189.38,178.88,189.38zM36.163,190.925c0.771,0,1.396,0.627,1.396,1.4c0,0.773-0.625,1.396-1.396,1.396s-1.396-0.624-1.396-1.396C34.767,191.553,35.392,190.925,36.163,190.925zM182.092,193.526v3.082l-6.817,6.609v-2.976L182.092,193.526zM90.065,194.451c1.014-0.01,2.373,0.043,4.202,0.105c1.565,0.055,3.296,0.088,3.846,0.073c2.167-0.059,2.875,0.678,2.915,3.02c0.036,2.082,0.027,2.074,2.751,2.189c3.284,0.137,4.153,0.981,4.196,4.081c0.019,1.208,0.995,1.682,2.907,1.413c3.014-0.429,3.6-0.017,3.949,2.786c0.291,2.337,0.135,2.217,2.896,2.198c2.971-0.021,3.633,0.478,3.667,2.764c0.021,1.327,0.344,1.725,1.492,1.828c1.228,0.111,1.755,0.741,1.148,1.365c-0.109,0.112-0.677,0.181-1.573,0.194c-1.892,0.028-2.516-0.567-2.869-2.736c-0.245-1.506-0.398-1.583-2.914-1.515c-3.21,0.089-3.462-0.104-3.809-2.905c-0.298-2.405-0.702-2.653-3.462-2.131c-2.006,0.38-3.069-0.505-3.33-2.764c-0.293-2.536-0.405-2.627-3.252-2.729c-2.853-0.101-3.647-0.602-3.671-2.317c-0.039-2.655-0.375-2.898-3.883-2.791c-1.703,0.051-3.445,0.021-4.448-0.083c-2.124-0.22-2.114-0.231-2.326,1.812c-0.317,3.05-0.764,3.33-4.798,3.032c-1.685-0.124-1.805-0.044-1.92,1.237c-0.145,1.605-0.739,2.595-1.195,1.987c-0.239-0.316-0.241-0.345,0-2.695c0.267-2.631,0.298-2.649,3.727-2.385c2.322,0.178,2.21,0.262,2.458-1.848C87.069,195.073,87.022,194.481,90.065,194.451L90.065,194.451zM40.032,194.21v3.385l-7.968,7.396v-3.277L40.032,194.21zM64.784,198.187l1.733,2.368l-0.562,4.404l-1.473,1.109l1.043,2.093l-0.334,2.572l-0.413,0.237l-2.894-5.615l3.424-3.012l-3.509-4.277l3.314-4.468l-3.44-2.419l4.133-6.084c0.716-0.87,0.758,2.584,0.758,2.584l-1.711,2.593l1.915,1.652h0.005l0.006,4.103L64.784,198.187zM66.972,196.193l0.186-5.523l-1.493-1.158l1.152-1.915l-0.079-4.892l-0.348-0.239c-2.873-35.018-20.016-55.709-22.698-60.402c0,0-0.597-0.479-0.487-1.682c0.048-0.522,0.071-3.609,0.051-6.86c-0.108-16.6,0.031-27.97,0.031-27.97L30.685,72.12l0.073,4.914l0.619,0.446l-0.002,22.38l-0.523,0.028c0,0-0.162,6.017-0.12,10.151l0.75,0.02l-0.045,15.377l-0.639,0.076l0.037,9.962l0.695-0.002c0,0,0.163,10.445-0.086,15.526l-0.517,0.03l0.036,9.903l0.585,0.045l0.039,14.166l-0.723,0.108l0.197,9.351l0.589,0.032c0.212,5.778,0.111,15.765,0.111,15.765l-0.673,0.031l0.166,9.283l0.483,0.032l-0.141,16.296l-0.44,0.053l0.169,9.625l0.476,0.045l-0.08,8.003l-0.327,0.057l-0.079,2.993l0.349,0.792l0.022,10.666l-0.265,0.116l-0.078,5.357l19.544-19.761l-7.196-0.216l0.004-6.388c0.003-10.539,0.143-19.045-0.173-29.324c-0.094-0.093-0.807-0.207-1.587-0.252c-3.704-0.217-4.709-0.517-4.721-1.406c-0.017-1.1,1.663-2.46,3.056-2.479c0.315-0.007,0.843-0.317,0.843-0.317l-0.448-116.94l-8.744-9.159l0.037-2.908L42.73,86.002l0.405,116.882l0.409-0.192l0.03-39.251c5.522,8.257,8.619,16.442,11.69,24.626c0,0,1.086-0.374,1.131-0.396c0.009-0.009-0.387-0.137-0.387-0.137c-3.134-10.461-7.099-18.045-12.241-25.96l0.074-38.041c13.168,18.598,19.533,35.324,22.178,59.435l-6.664,3.329l-0.646,0.863l-5.033,2.516l-0.482-0.805l-3.052,2.114c2.357,4.114,2.27,10.023,0.349,13.154l0.826,0.515c0.057,0.228,3.162-6.4-0.312-13.141l2.275-1.402c3.279,6.78,1.756,14.083,0.211,15.965c0,0,2.375,1.513,4.081,2.438c1.855,1.007,3.503,1.928,5.726,2.646c1.37,0.556,2.241-0.1,2.236-0.112l0.666-3.785l-1.058-1.443l1.232-0.992l0.561-5.794l-1.323-1.337L66.972,196.193zM182.092,197.739v3.732l-6.817,6.462v-3.672L182.092,197.739zM40.032,201.739l-7.968,7.312v-3.04l7.968-7.48V201.739zM179.381,206.712c0.773,0,1.4,0.629,1.4,1.4c0,0.772-0.627,1.396-1.4,1.396c-0.772,0-1.396-0.624-1.396-1.396C177.985,207.342,178.61,206.712,179.381,206.712zM43.213,208.973l0.007,34.451l-2.104,0.001l0.097-34.873L43.213,208.973zM36.176,208.662c0.772,0,1.396,0.623,1.396,1.393c0,0.773-0.624,1.396-1.396,1.396c-0.771,0-1.396-0.623-1.396-1.396C34.78,209.284,35.405,208.662,36.176,208.662zM177.393,209.992c0.773,0,1.396,0.625,1.396,1.396c0,0.772-0.623,1.4-1.396,1.4c-0.772,0-1.399-0.628-1.399-1.4C175.994,210.617,176.621,209.992,177.393,209.992zM181.157,210.051c0.771,0,1.394,0.624,1.394,1.396c0,0.771-0.623,1.394-1.394,1.394c-0.773,0-1.402-0.624-1.402-1.394C179.755,210.676,180.384,210.051,181.157,210.051zM38.356,212.149c0.772,0,1.401,0.628,1.401,1.402c0,0.77-0.628,1.393-1.401,1.393c-0.771,0-1.396-0.623-1.396-1.393C36.96,212.777,37.585,212.149,38.356,212.149zM110.281,212.19c7.278,0.902,5.351,8.535,2.281,10.122c-4.177,1.945-7.522-1.973-4.854-5.944c1.957-2.913,5.682-0.987,4.242,2.206c-0.81,1.799-2.49,1.588-2.475-0.231c0.6-1.729,0.051-1.112-0.419-0.501c-1.472,1.915,1.499,3.948,3.025,2.058c0.938-1.161,1.133-2.539,0.814-3.64c-0.548-1.879-2.718-2.98-5.174-1.239c-2.934,3.518-4.502,8.07-5.369,13.163c-1.844,10.837-1.938,22.239-3.521,25.132l-1.724-0.042c2.506-12.404,2.518-23.02,5.193-32.797C103.625,215.628,107.003,212.18,110.281,212.19zM34.539,212.25c0.771,0,1.396,0.629,1.396,1.4c0,0.772-0.624,1.396-1.396,1.396c-0.771,0-1.396-0.624-1.396-1.396C33.143,212.88,33.768,212.25,34.539,212.25zM64.069,212.442c-1.919,0.038-3.868,1.627-3.718,3.659c0.182,2.464,1.644,3.562,4.047,3.314c1.284-0.131,1.25-0.152,2.116,1.396c0.778,1.393,2.833,7.346,2.846,8.247c-0.987-1.309-3.292-3.742-5.418-3.639c-2.284,0.166-4.208,2.331-2.48,5.394c0.918,1.503,2.552,1.799,4.212,1.303c2.484,3.866,2.954,7.737,3.744,12.23c0,0,0.981-9.616,1.279-13.453c0.564-5.877,1.367-9.686,3.643-14.348c-1.897-1.095-3.928-1.953-5.971-2.741c-0.812-0.312-1.664-0.317-2.469-0.842C65.343,212.589,64.709,212.429,64.069,212.442L64.069,212.442zM179.535,213.226c0.772,0,1.396,0.623,1.396,1.395c0,0.771-0.624,1.4-1.396,1.4c-0.773,0-1.396-0.629-1.396-1.4C178.137,213.849,178.762,213.226,179.535,213.226zM68,216.309c1.438,2.339,2.84,5.712,2.965,7.835c0.049,1.405-0.229,3.132-0.468,4.746c-0.118,0.797-0.419,0.02-0.964-1.703c-2.263-7.155-2.86-8.524-4.433-8.167c-0.895,0.203-1.826,0.239-2.436-0.098c-1.993-1.1-2.175-4.785,0.734-5.489C65.699,212.93,67.18,214.973,68,216.309L68,216.309zM67.949,214.531c2.9,1.144,4.752,2.865,4.223,5.666c-0.232,1.056-0.388,1.923-0.67,1.812c-0.327-0.13-0.775-1.394-1.676-3.57C69.621,217.735,67.555,214.546,67.949,214.531zM115.943,214.653c0.152-0.022,0.393,0.122,0.72,0.428c2.287,2.25,1.047,7.324-1.998,8.786c-1.253,0.863-3.561,0.722-3.574-0.113c-0.003-0.324,0.069-0.412,0.389-0.416c2.562,0.019,5.286-3.542,4.531-7.333C115.919,215.438,115.746,214.68,115.943,214.653L115.943,214.653zM36.236,215.887c0.771,0,1.396,0.623,1.396,1.395c0,0.772-0.624,1.402-1.396,1.402c-0.772,0-1.401-0.63-1.401-1.402C34.835,216.51,35.463,215.887,36.236,215.887zM118.345,216.315c0.162-0.025,0.716,0.214,1.084,0.657c2.153,2.595,0.406,7.017-2.981,8.534c-1.293,0.699-2.382,0.216-2.108-0.504c2.306-0.956,4.483-3.43,4.255-6.819C118.508,216.996,118.112,216.348,118.345,216.315zM72.688,216.786l0.783,0.371l-0.323,0.678C72.997,217.428,73,217.271,72.688,216.786zM120.795,217.066c0.171-0.004,0.556-0.059,0.918,0.292c1.393,1.354,1.614,5.149,0.276,7.024c-0.629,0.879-2.576,2.477-3.157,2.638c-0.676,0.083-1.146,0.183-2.272-0.33c-0.377-0.013,0.169-0.369,0.879-0.778c2.521-1.457,4.194-4.053,3.756-6.493C120.926,217.913,120.468,217.074,120.795,217.066zM123.349,218.292c0.669,0.057,1.186,0.643,1.503,1.142c1.655,2.376,0.28,7.378-3.108,8.415c-2.256,0.69-3.097,0.038-1.271-1.027c2.626-1.532,3.986-4.523,3.228-6.901C123.337,218.784,122.994,218.313,123.349,218.292L123.349,218.292zM126.081,220.031c0.79,0.012,1.4,0.617,1.678,1.238c0.654,1.535,0.551,3.687-0.298,5.202c-0.85,1.507-2.473,2.764-4.276,2.947c-0.471,0.043-0.88-0.025-1.236-0.18c-0.792-0.342-0.521-0.393,0.972-1.173c2.376-1.242,3.78-3.825,3.421-6.677C126.205,220.318,125.776,220.033,126.081,220.031L126.081,220.031zM40.032,219.511v3.687l-7.755,7.321v-3.601L40.032,219.511zM105.921,219.988c0.147,0.154,1.024,2.246,1.134,2.676c-1.816,2.612-2.33,6.9-2.61,10.15c-1.025,9.204-2.09,20.32-2.556,20.423l-2.02,0.045c0.77,0.513,1.756-15.265,3.322-25.262C103.312,227.236,104.988,219.523,105.921,219.988L105.921,219.988zM129.383,221.622c2.665,1.803,1.241,7.429-2.463,8.819c-1.343,0.517-1.838,0.584-2.446-0.01c-0.384-0.373-0.75-0.499,0.227-0.844c2.738-0.714,4.671-3.271,4.209-6.241C128.855,222.625,128.175,220.715,129.383,221.622L129.383,221.622zM147.836,222.101c3.153,3.745,5.382,9.399,6.136,13.457c0.358,2.03,0.547,3.937,0.381,4.389c-0.292,0.802-0.743,0.643-1.019-0.31c-2.576-12.326-16.062-12.74-20.302-2.259c-3.874,10.095,6.988,19.218,15.106,12.625c1.136-0.923,1.527-1.241,1.848-0.865c0.212,0.248-0.316,0.967-1.323,1.808c-9.254,8.566-0.964,18.527,7.779,18.028c10.36-0.588,13.896-12.936,5.271-18.955c-0.571-0.445-0.93-0.625-0.898-0.939c0.065-0.659,0.531-0.566,1.582,0.319c8.331,7.432,18.635-0.618,17.147-9.302c-2.525-14.75-18.814-11.031-21.302-0.708c-0.402,1.272-1.079,1.456-1.096,0.252c-0.012-0.828,0.089-1.795,0.28-2.851c0.635-5.782,6.372-14.689,6.372-14.689L147.836,222.101L147.836,222.101zM107.836,223.18l1.212,0.778c-1.307,3.896-1.79,8.488-2.325,12.936c-0.646,5.378-1.216,10.916-1.999,16.197l-1.854,0.067c0.967-3.265,1.414-12.38,2.371-20.017C105.802,229.274,106.412,223.957,107.836,223.18L107.836,223.18zM109.939,224.452l1.552,0.9c-0.548,2.174-1.197,4.555-1.519,6.835c-0.713,5.071-0.993,11.217-2.634,20.678l-1.68,0.141c0.422-3.039,1.224-9.805,1.906-16.031C108.357,229.744,109.603,224.276,109.939,224.452zM40.032,224.207v3.62l-7.755,7.139v-3.332L40.032,224.207zM112.566,225.595c0,0,1.336,0.752,1.505,0.84c-1.009,3.993-1.501,7.707-2,11.325c-0.669,4.884-1.167,9.636-2.093,15.002l-1.79,0.111c0.892-4.114,1.911-13.784,2.712-20.602C111.368,228.313,112.332,225.518,112.566,225.595zM69.875,233.724c0.022,2.729-0.575,6.957-0.575,6.957c-0.236,0.135-0.968-6.193-3.525-9.057c-3.114,1.483-5.8-1.993-3.677-4.386C66.244,223.673,69.874,231.288,69.875,233.724zM114.902,226.683l2.167,1c-0.266-0.045-0.778,1.447-1.275,3.775c-1.52,7.096-3.026,21.08-3.271,21.077l-1.672,0.138c0.541-3.756,1.285-9.69,2.064-14.941C113.795,231.783,114.617,226.714,114.902,226.683L114.902,226.683zM117.914,228.043l1.648,0.989c-0.144-0.104-0.74,1.659-1.028,2.884c-1.481,7.078-2.152,13.284-3.067,20.149l-1.797,0.235c-0.135,0.197,1.55-13.513,2.94-20.438C117.082,229.499,117.781,227.963,117.914,228.043L117.914,228.043zM120.481,229.276l1.766,0.872c-1.919,5.431-2.098,10.627-3.938,21.529l-1.864,0.336c0.75-6.979,1.815-14.475,3.345-21.306C120.001,229.791,120.461,229.293,120.481,229.276L120.481,229.276zM194.856,229.541c1.486,2.04,2.344,4.721,2.608,7.178c0.083,0.84,0.015,1.406-0.255,1.41c-0.229,0.001-0.344-0.178-0.543-0.868c-1.013-5.232-7.665-5.481-9.273-0.707c-1.802,4.645,2.76,8.545,6.372,6.519c1.18-0.74,3.878-2.375,1.237,0.195c-0.997,1.015-1.914,2.106-2,3.228c-0.271,3.594,2.094,5.913,4.86,6.141c3.095,0.254,5.241-1.947,5.342-4.909c0.045-1.589-0.706-3.397-2.172-4.793c-1.391-1.325-1.482-1.829-0.077-0.912c1.547,1.009,3.226,1.799,4.539,1.534c6.264-1.262,4.941-9.593-0.483-10.123c-1.993-0.163-3.949,1.019-4.928,3.488c-0.946,2.224-1.165,1.463-0.79-0.145c0.656-2.624,1.526-5.095,3.174-7.236h-7.609V229.541zM123.005,230.551l1.986,0.797l-4.159,20.015l-1.675,0.225c1.044-5.769,1.583-12.442,2.991-17.699C122.447,232.772,122.613,231.521,123.005,230.551L123.005,230.551zM36.532,233.722c0.771,0,1.4,0.623,1.4,1.395c0,0.772-0.628,1.395-1.4,1.395c-0.772,0-1.396-0.623-1.396-1.395C35.136,234.345,35.761,233.722,36.532,233.722zM38.356,236.997c0.772,0,1.401,0.627,1.401,1.399c0,0.771-0.628,1.396-1.401,1.396c-0.771,0-1.396-0.625-1.396-1.396C36.96,237.624,37.585,236.997,38.356,236.997zM34.721,237.083c0.772,0,1.401,0.623,1.401,1.393c0,0.774-0.629,1.402-1.401,1.402c-0.771,0-1.396-0.628-1.396-1.402C33.326,237.707,33.95,237.083,34.721,237.083zM36.464,240.302c0.771,0,1.396,0.63,1.396,1.402c0,0.771-0.625,1.395-1.396,1.395s-1.401-0.624-1.401-1.395C35.063,240.932,35.693,240.302,36.464,240.302zM49.096,244.966l-16.75,16.969l-0.052-3.392l11.481-11.273l-11.57-0.178l0.027-2.294L49.096,244.966zM41.418,248.202l-8.975,8.565l-0.076-8.71L41.418,248.202zM51.005,248.828c0,0-0.049,0.312,0.794,1.788c2.448,4.254,3.014,8.188,5.177,12.748c1.078,2.499,3.504,5.018,4.047,5.158l-2.696,4.935l76.069-0.16l-12.177-21.255c-19.327,3.576-36.691,2.947-53.014,0.09c-0.936,1.258-1.96,3.815-2.944,5.666C63.825,251.239,56.028,247.004,51.005,248.828zM53.775,249.399c4.02-0.059,7.37,1.853,10.344,5.906c0.947,1.292,1.314,1.876,1.311,2.417c-0.1,0.627-1.346,2.632-1.346,2.632s-0.722-1.989-0.895-2.954c-1.08,3.98-1.512-0.633-1.927-1.849c-1.319,3.844-2.029-1.439-1.963-2.866c-1.794,2.464-1.679-1.584-2.554-2.336c-0.021,2.137-1.277,0.674-2.906,0.218c0.852,1.195,2.509,1.998,0.391,2.261c2.112,1.459,3.17,1.234,1.121,2.039c1.58,0.872,4.181,1.92,1.305,2.494c1.757,1.108,4.582,1.574,1.544,2.632c2.294,1.404,5.35,1.303,1.052,2.43c1.557,0.91,4.301,1.252,1.23,2.042c0.475,0.213,1.297,0.765,1.297,0.765l-1.328,2.095c0,0-0.478-0.04-0.803-0.379c-1.41-1.472-2.78-4.18-4.007-7.974c-0.902-2.791-1.978-5.74-3.163-8.188C51.839,249.49,51.898,249.425,53.775,249.399L53.775,249.399zM121.71,254.185l10.514,17.989l-2.495,0.038l-9.282-15.401l-12.524,1.415l4.125,13.77l-3.72,0.1l-3.695-13.545c-6.991,0.284-13.661,0.361-19.475-0.104l-1.971,13.739l-3.55-0.119l2.249-13.601l-11.751-1.502l-6.375,15.254l-3.67,0.07c2.37-3.997,8.287-16.903,9.392-18.176C95.078,258.208,108.37,256.001,121.71,254.185L121.71,254.185zM190.958,266.23v17.876h-3.022v3.478h9.951v-3.478h-3.337c-0.019-6.11-0.011-12.218,0-18.328c-0.168-8.473,9.237-7.006,9.354-2.005l0.025,2.943h3.336c0,0,0.108-0.069,0.047-2.445c-0.036-5.711-3.064-7.998-8.009-7.949C191.512,256.721,190.731,262.928,190.958,266.23L190.958,266.23zM119.254,258.354l7.958,13.841l-12.786,0.059l-4.295-12.814L119.254,258.354zM71.414,258.76c2.522,0.735,5.238,0.895,7.971,0.996l-2.325,12.382l-11.33-0.024L71.414,258.76zM103.306,260.217l3.007,12.025l-21.329,0.108l1.76-11.985C92.341,260.7,97.81,260.392,103.306,260.217z"/>
</svg>
