<?xml version="1.0" encoding="UTF-8" standalone="no"?>
<svg width="41px" height="40px" viewBox="0 0 41 40" version="1.1" xmlns="http://www.w3.org/2000/svg" xmlns:xlink="http://www.w3.org/1999/xlink" xmlns:sketch="http://www.bohemiancoding.com/sketch/ns">
    <title>Slice 1</title>
    <description>Created with Sketch (http://www.bohemiancoding.com/sketch)</description>
    <defs></defs>
    <g id="Page 1" stroke="none" stroke-width="1" fill="none" fill-rule="evenodd">
        <g id="search" fill="#C6C8C8">
            <path d="M0.504,16.338 C0.504,25.085 7.635,32.165 16.444,32.165 C25.24,32.165 32.382,25.085 32.382,16.338 C32.382,7.591 25.24,0.5 16.444,0.5 C7.635,0.5 0.504,7.591 0.504,16.338 L0.504,16.338 Z M5.555,16.338 C5.555,10.359 10.423,5.521 16.445,5.521 C22.455,5.521 27.333,10.36 27.333,16.338 C27.333,22.317 22.455,27.156 16.445,27.156 C10.423,27.156 5.555,22.316 5.555,16.338 L5.555,16.338 Z M27.666,30.861 L34.521,38.67 C35.625,39.772 36.338,39.781 37.46,38.67 L39.661,36.489 C40.743,35.408 40.811,34.711 39.661,33.568 L31.765,26.793 L27.666,30.861 L27.666,30.861 Z M27.666,30.861" id="Shape"></path>
        </g>
    </g>
</svg>