<?xml version="1.0" encoding="utf-8"?>
<!-- Generator: Adobe Illustrator 17.0.0, SVG Export Plug-In . SVG Version: 6.00 Build 0)  -->
<!DOCTYPE svg PUBLIC "-//W3C//DTD SVG 1.1//EN" "http://www.w3.org/Graphics/SVG/1.1/DTD/svg11.dtd">
<svg version="1.1" id="Layer_1" xmlns="http://www.w3.org/2000/svg" xmlns:xlink="http://www.w3.org/1999/xlink" x="0px" y="0px"
	 width="1000px" height="400px" viewBox="0 0 1000 400" enable-background="new 0 0 1000 400" xml:space="preserve">
<g>
	<path id="world" d="M473.081,267.047l-1.764-1.06v2.572l0.518,0.86l0.605-0.151l0.464,0.233l-0.296,1.777l0.493,0.082l0.035-0.209
		l0.671,0.862l1.431-0.615l-1.726-1.593l0.062,0.03L473.081,267.047z M602.341,166.783l-0.527,0.354l-0.24,0.476l0.562,0.564
		l0.722,0.18l0.404-0.408l0.182-0.718l-0.285-0.282L602.341,166.783z M573.06,55.184l-1.673,0.257l-1.87-0.575l-0.578,2.318
		l0.485,0.121l0.2-0.803l0.471,0.088l2.38-0.125l1.007,0.5l2.134,0.667l2.237-0.699l0.328-0.661l-2.879-0.43L573.06,55.184z
		 M583.822,64.074l-5.406,0.772l0.07,0.495l2.63-0.376l1.642,0.754l1.867,0.535l1.853-0.463l-0.36-1.439L583.822,64.074z
		 M607.298,168.859l-0.432-0.72l-0.69,0.348l-0.726,0.244l0.814,1.016h0.576l0.257,0.129h0.979l-0.509-1.016h-0.269V168.859z
		 M619.487,70.502l-2.891,1.05l0.002,0.006l-1.252,0.462l0.484,1.622l1.615,0.733l2.833-1.081l2.675-1.485l-1.544-1.033
		L619.487,70.502z M612.298,171.324v-0.566l-0.993-0.498l-0.435,0.108l-0.26-0.389l0.156-0.105l-2.235-0.406l-0.292,0.887
		l1.556,0.171l0.015-0.01l0.431,0.646h0.325l0.137,0.543l1.2-0.184L612.298,171.324z M614.863,173.649l-0.12-0.06v-0.179
		l-0.339-0.509l-2.22-0.952v0.404L612,172.535l0.259,0.517l-0.629,0.629l0.425,1.092v0.927l1.107,0.555l0.35-0.533l0.458-0.458
		l0.758-0.126l0.911-0.728l-0.582-0.586L614.863,173.649z M349.251,165.723l1.678-4.394l0.574-1.86l-1.618-0.97l-2.373,2.248
		l-1.587,2.775l0.277,2.068l1.671,2.736L349.251,165.723z M58.044,17.066l3.141,0.607l-2.196,0.854l6.54,1.892l3.396-0.136
		l1.301-2.213l2.301-0.511l1.539-2.053l6.591-1.015L80.67,14l-8.86-1.926l-3.428-1.041l-4.081,0.131l-1.025,0.9h-3.57l-1.562-0.911
		l-7.917,1.113l2.489,2.467L58.044,17.066z M78.399,17.969l4.805,0.651l6.088-1.167l-0.014-0.494l-3.785-0.505l-1.183-1.051
		l-6.468,0.601l1.894,1.02l-1.383,0.46L78.399,17.969z M76.118,12.175l0.513,0.64l7.978,0.523l7.939-0.401l4.893-1.737l-6.244-1.064
		l-6.914-0.634l-2.65,0.756l-3.869-0.637l-8.367,0.772l-0.067,0.482l3.043,1.176L76.118,12.175z M458.906,254.865l-2.358-0.905
		l1.492,2.422h2.612l-1.176-1.375L458.906,254.865z M442.733,243.558l-0.241,0.391l-0.6-0.463l-1.445-1.706l-0.72-0.599
		l-0.338-1.017l-0.807,0.537l0.572,2.283l1.351,1.748l1.267,1.127l1.026-0.346l0.354-1.058l-0.351-0.27l1.175,0.724l-0.115,0.346
		l1.343,1.318l1.238,0.552l1.064-0.267l-1.426-1.239L442.733,243.558z M453.658,249.893l-0.167-0.602l-0.677-0.947l-4.429-2.345
		l-0.234,0.441l0.562,0.298l-0.341,0.229l1.315,1.141l1.547,0.904l2.563,1.442L453.658,249.893z M454.972,252.263l-0.341-0.236
		l-1.914-0.442l-0.359,1.449l0.869,0.509l1.588,0.397l1.655-0.185l-1.315-1.639L454.972,252.263z M457.81,253.694l0.687-0.915
		l-1.128-1.397l-1.097-2.193h-1.4l0.64,1.923L457.81,253.694z M507.512,36.379l12.899-3.095l-0.117-0.486l-6.383,1.532l-6.389-1.173
		l-1.095,1.099l0.608,2.124L507.512,36.379L507.512,36.379z M163.764,32.192l-2.868,0.522l0.494,1.969l4.939,0.65l0.779,1.301
		l8.906,0.261l1.686-0.13l0.083-0.477l-5.045-2.27l-0.557-1.895l4.093-2.481l3.923-2.671l8.334-2.438l8.237-1.287l9.589-1.434
		l2.233-0.958l-2.267-1.459l-5.399,0.398l-4.594,1.024l-8.913,0.518l-8.895,1.675l-6.358,1.489l0.66,1.319l-6.172,2.221l0.046,0.482
		l1.604,0.253l-4.661,2.046L163.764,32.192z M416.735,24.928l7.942,1.456l0.176-1.938l-5.995-0.531l-2.187,0.515v0.004l-0.001-0.004
		l-2.187,0.515l0.115,0.486L416.735,24.928z M289.965,15.009l4.323-0.541l-3.509,3.008l14.992-0.406l0.107-0.473l-4.963-2.545
		l-0.565-0.846l-10.448,1.307L289.965,15.009z M403.858,87.172l1.545,2.575l-0.113,3.464l-0.655,2.157l0.258,2.914l-0.253,2.654
		l0.627,2.818l1.971-2.394l2.274,1.849v-2.557l-2.529-2.656l1.525-3.52l4.341,0.98l-2.971-5.226l-1.14-2.737l-0.014-2.658
		l-0.9-2.576l-1.286-3.604l-0.471,0.168l0.554,1.554l-1.438,0.432l1.211,1.208l-2.397,1.198L403.858,87.172z M148.472,10.227
		l-1.266,0.632l3.554,0.808l3.37-0.404l0.379-0.506l2.343-0.125l3.667-0.399l1.906-0.717l-5.005-0.792l-2.621,0.529l-1.355,0.565
		l-0.474-0.713l-4.279,0.001l-5.276,0.515l0.02,0.499L148.472,10.227z M273.1,11.613l0.115,2.219l11.581,1.053l8.537-1.819
		l-6.549-3.701l-10.701-0.391l-5.728,3.906l0.281,0.413L273.1,11.613z M392.497,24.721l4.91,1.888l3.999-1.042l10.066,0.135
		l-2.214-2.688l-10.57-0.78l-5.4,0.396l-2.125,3.191l0.416,0.277L392.497,24.721z M529.397,46.438l-8.06-1.018l-7.214-2.45
		l-6.565-2.06l-3.773-1.167l-8.521-1.162l-13.462-0.523l-0.755,3.139l-5.958-2.36l-9.317,0.261l-10.102,0.127l-6.438-3.734
		l-14.41,0.396l-7.01-2.027l-2.375-1.581l-23.395-1.819l-1.938,3.493l-15.731,0.514l-8.058,1.535l-4.022-0.976l-0.521-4.919
		l-17.026-1.715l-0.391,1.691l-10.033-0.125l-2.706-1.545l-11.952,0.014l-3.054-1.044l-6.041,0.252l-0.749-1.123l6.814-1.488
		l2.582-3.441l-5.438-1.795l-9.838,0.265l-2.266,0.596l-0.741-1.237l-4.286-0.364l1.734-0.31l-0.003-0.493l-4.713-0.772
		l-6.373,1.048l-2.64,1.189l-0.738,1.107l-4.814,0.006l-5.985,1.4l-2.204-0.635l-7.168,0.261l-0.896,0.77l-1.346,0.001l-1.414,0.129
		l-1.518,0.127h-1.418l-1.108,0.013l-0.366,0.123l-5.099,1.281l-3.147,0.131l-3.649,1.898l1.918,1.239l-5.02,0.336l-6.47-0.126
		l-5.007,0.541l0.289,2.905l1.851,1.95l-4.191-1.278l-5.592,0.136l-3.526,0.914l-1.428,1.1l-0.562-1.789l-2.421-1.994l-3.599,3.599
		l1.076,5.928l2.757,1.128l-0.947,3.678l-4.985,2.866l-2.106-0.287l3.66-2.516l0.581-2.03l-1.708-1.709l-0.258-5.468l-0.803-4.963
		l-8.708-0.402l-2.238,3.158l-4.718,2.83l4.04,4.563l-1.417,1.524l-10.579-2.801l-8.079-0.794l-0.642,3.211l-6.537-0.87
		l-9.296,1.529l-2.068-1.423l-9.921,2.354l-7.13,2.687l-4.201,0.117l1.775-3.296l-8.177-0.845l0.729,3.643l1.84,1.407l-3.474,0.784
		l-7.657,1.849v2.861l-7.419-1.257l-3.178,2.669l-2.729-1.422l-0.766-2.042l-4.102-2.932l1.278-0.268l12.158,2.07l7.586-2.131
		l-0.152-2.132l-2.229-1.383l-10.22-3.099l-7.404-0.63l-4.457-1.573l-2.806,0.893l-2.301-1.299l2.84-0.631l0.002-0.488l-8.451-1.936
		l-4.855,0.514l-4.961-0.129l-4.118,2.188l-4.366-0.123l-5.979,1.177l-7.458,3.473l-4.567,1.967l-6.43,5.273l-4.856,3.71
		l-5.365,2.815l-7.155,2.227l-2.565,1.891l0.931,6.367l0.938,2.948l3.911,1.482l3.755-0.686l5.117-2.996l1.64,1.522l2.057,3.724
		l2.278,3.012l0.463,1.545l-0.881-1.386l-6.479,1.513l1.146-1.074l0.818,0.272l0.927-1.481l-1.633-0.445l-0.262-0.523l0.716-0.837
		l0.17-1.882l-2.635,0.947l-0.834,0.716l-2.469,0.131l-0.866,1.016l-0.423,0.704v2.991l1.167,1.426l0.127,1.527l0.549,0.874
		l-1.534,1.022l-0.323-0.434L41.634,82.1l-0.51,0.51l-2.15,0.008l-3.832,1.058l-2.333,4.019l-1.327,0.723l-2.143,0.505l-2.46,0.547
		L26.1,91.802l-6.095,1.991l-2.98-1.342l0.94,3.229l-4.198-0.707l-3.855,0.689l0.467,2.335l4.063,1.034l2.025,1.386l2.749,2.75
		l-0.496,5.082l-1.288,1.522l-4.28-0.125l-2.142,0.13l-2.992-0.389l-3.564,0.003l-3.299-0.527l-4.223,2.114l1.175,1.324L-2.006,114
		l-0.03,0.019l0.019,0.136l-0.031,0.461l0.089-0.056l0.204,1.423l0.376-0.054l0.138,0.221l0.012,1.007l-0.522,1.569l-0.241,1.08
		l-1.035,0.907l-0.286,1.984l0.75,1.199l1.208,0.242l0.118,1.42l-0.455,2.417l1.718-0.313l1.471,0.402l1.171-0.781l2.222,0.349
		l0.759,1.495l1.093,1.093l1.494,0.15l1.057-1.07l1.618-0.872h6.1l1.825-2.086l2.116-0.527l0.662-1.858l1.676-1.255l-1.084-1.625
		l0.914-1.983l1.737-1.605l0.114-0.803l3.352-0.497l2.74-1.918l-0.138-1.655l0.227-1.48l3.734-0.859l5.368,0.785l2.476-1.563
		l1.18-0.132l1.563-1.303l1.155-0.346l2.151,0.882l1.136,0.228l0.752,2.633l2.003,1.601l2.47,1.819l2.152,1.189l1.984,0.247
		l1.141,1.015l1.641,0.505l0.777,1.168l1.147,0.254l0.737,1.347l1.026,1.371l-0.529,0.529l-0.548,1.555v1.056l1.422-0.179
		l1.554-2.332l1.078-0.269l0.481-1.76l-1.862-0.869l0.91-1.416l2.086,0.465l1.6,1.306l0.728-1.272l-0.351-0.7l-2.412-1.473
		l-1.929-0.769l-2.017-0.85l0.639-0.426l-0.939-0.939l-2.211,0.132l-2.844-2.103l-1.299-2.337l-2.583-1.29l-0.787-1.239l0.362-0.723
		l-0.235-1.175l2.062-0.917l0.935,0.175l-0.054,0.293l0.253,0.046l-0.139,0.976l1.046,1.22l0.988-1.275l1.352,0.312l0.117,0.813
		l0.971,0.973l-0.546,0.273l2.695,2.222l2.381,0.743l1.593,1.053l2.557,1.024l1.112,0.494l0.789,0.92l0.526,0.13l0.233,0.233
		l-0.225,0.792l-0.257,1.888l0.28,1.393l1.416,0.9l0.137,0.682l0.412,0.137l0.257,0.732l1.284,1.541l0.983,1.201l0.534,1.846
		l1.062,2.125l2.319,1.363l2.232-0.16l-1.038-2.343l1.7-0.26l-0.651-1.196l2.345,0.704l-0.172-2.039l-1.364-0.818l-1.279-1.064
		l1.02-0.637l-1.491-1.341l-0.571-1.482l0.251-0.314l1.294,1.292l1.719-0.011l1.725-0.519l-1.764-1.51l2.625-0.54l1.461,0.262
		l1.422-0.015v0.484l0.95,1.422l2.536-1.556l0.974-0.729l3.255-0.26l0.793-0.993l-2.527-0.985l-0.204-0.544l0.069,0.008
		l-0.213-0.391l-0.053-0.142l-0.025-0.003l-0.647-1.191l0.822-1.765l1.284-1.05l0.118,0.02l0.035-0.144l0.363-0.297l-0.28-0.047
		l0.647-2.693l0.612,0.205l1.516-0.759v-0.694l2.016-2.017l0.97-1.332l2.116-0.334l0.243,0.968l4.213,0.658l0.382,0.318l-2.229,0.78
		l-0.659,0.873l3.025,0.791l-0.634,1.268l1.907,0.636l3.637-1.565l3.074-0.535l0.283-0.493l2.701,1.791l3.029,1l3.452,2.3
		l0.953,0.817l1.56,0.26l1.432,0.955l0.586,1.642l-0.324,0.972l-3.056,1.345l-2.318-0.25l-3.036,0.506l-3.778-1.004l-4.858-1.951
		l-4.435,0.007l-3.282,0.797l-3.153,1.767l-5.24-0.394l-1.039,2.077l-4.187,0.127l-3.259,2.834l1.734,1.335l-1.288,2.062l2.18,1.611
		l1.617,2.695h3.038l2.591,1.424l2.008-0.285l0.629-1.133l2.738,0.119l2.202,1.423l4.283-0.268l1.771-1.516l2.141,0.491l0.925-0.071
		l-0.645,0.564l1.074,1.343l-0.602,1.083l0.235,1.885l-1.368,2.061l-0.836,2.032h-0.118l-0.474,0.958l-0.488,1.867l-0.908,1.519
		l0.212,0.106l-0.529,0.617l-1.307,0.595l-1.943-0.114l-2.357-0.694l-0.508,0.708l-0.513-1.026l-2.125-0.413l-2.516,0.265
		l-1.034,0.784l-1.964,0.859l-1.214-0.483l-2.713-0.776l-2.634-0.651H90.53l-0.637-0.89l-2.754-0.262l-0.783-0.523h-0.974
		l-0.889-1.27l-3.929-0.525l-1.888,0.421l-1.998,1.353l-0.971,1.389l0.637,2.033l-1.117,1.132l-1.179,0.591l-2.756-1.25
		l-3.881-1.163l-2.325-0.49l-1.151-2.432l-3.729-1.198l-2.376-0.527l-1.023,0.255l-3.144-0.88l-0.927-0.349l-0.664-1.324
		l-1.395-0.127l-0.397-1.089l1.738-1.242l0.286-2.703l-0.916-0.653v-0.927l1.471-1.47l-0.446-0.893l-2.055,0.964v-1.238
		l-2.076-0.296l-2.996,1.04l-1.815,0.243l-1.013-0.633l-2.998,0.018l-2.499,0.998l-1.415-0.372l-4.383,0.258l-4.695,0.398
		l-2.623,0.925l-1.585,0.996l-3.047,0.547l-2.503,1.502l-1.057-0.117l-2.889-0.519l-2.485,0.123l-1.539-1.153H6.438l-0.824,1.789
		l-1.765,2.775l-1.992,0.996l-2.779,1.342l-1.717,1.848l-0.388,1.439l-1.062,2.389l0.634,3.299l-2.022,2.167l-1.477,0.684
		l-2.006,1.753l-2.568,0.385l-1.391,1.128l-1.771,2.654l-1.813,1.038l-0.959,1.781l-0.115,1.392l-0.612,1.469l-0.886,0.519
		l-1.588,1.738l-0.931,1.998l0.126,0.885l-0.791,1.271l-1.116,0.837l-0.116,1.043h-0.003l-0.147,1.318l-0.097,0.136l0.076,0.061
		l-0.091,0.82l0.405-0.567l1.152,0.928l0.724,1.205l-0.242,1.285l0.257,1.407l0.387,2.63l-0.358,2.364l-0.815,1.494l0.26,1.426
		l-0.588,1.303l-1.248,1.748l-1.472,0.654l0.321,0.257l1.226,0.957l1.105,1.963l-0.292,0.874l-0.129-0.007l0.047,0.251l-0.083,0.248
		l0.131,0.007l0.307,1.634l-0.048,0.012l0.095,0.237l0.046,0.243l0.047-0.012l0.206,0.515l0.725,0.484v0.342l0.755,0.909
		l1.192,0.264l1.149,0.835l-0.007,0.008l0.229,0.153l0.186,0.135l0.006-0.007l0.547,0.365l0.325,0.519l0.28,1.257l0.865,0.577
		l0.597,0.348l1.006,1.005l1.126,1.5l0.404,2.079l0.54,0.937l1.361,1.604l1.969,1.048l0.724,0.241l1.799,1.663l2.285,1.395
		l2.503,2.098l2.881,1.31h0.67l0.559,0.14l2.786-1.062l1.743-0.754l3.18-0.513l1.734-0.01l1.871,0.525h1.246l2.356,0.784
		l2.574-0.818l1.511-0.885l4.232-1.668l2.15-0.506l2.171-0.256h2.315l1.952-0.122l1.795,1.651l0.938,1.988l1.484,1.756l2.375,0.14
		l1.022-0.641l0.997,0.126l2.429-0.809v0.45l0.824,0.414l0.525,1.307l1.177,0.394l0.937,1.641l-0.37,2.087l-0.946,3.109l0.524,0.394
		l-0.471,1.88l-0.61,1.866l-0.688,0.967v1.047l1.597,2.791l1.826,2.343l2.827,2.698l2.141,2.771l0.568,1.819l-0.034,0.017
		l0.104,0.206l0.081,0.259l0.039-0.02l0.219,0.436l-0.274,0.552l1.485,1.758l1.24,4.337l-0.741,1.018l-0.148,0.591l0.678,1.763
		l0.81,1.73l0.72,0.842l0.123,1.409l-0.249,1.871l-0.846,1.212l-1.58,1.723l-0.661,1.191l-0.914,2.505l-0.116,1.101l-0.913,2.489
		l-0.386,2.393l0.254,1.784l0.133,2.142l2.199,2.566l0.65,1.685l1.43,3.247l1.452,2.364l0.98,0.981l0.362,1.417l0.006,3.271
		l0.907,4.144l0.64,1.913l0.664,2.626l1.075,2.125l2.039,2.038l3.216,5.786l1.753,2.377v1.847l-0.832,0.557l0.832,1.944v1.555
		l0.68,1.36l0.195-0.574l0.931,0.933l0.918,0.132l1.175,0.911h1.446l1.524-1.034l2.345-0.525l2.78-1.009l1.168,0.121l1.46-0.259
		l3.031,0.527l1.28-0.512l1.787,0.413l0.416-0.825l1.209-0.127l2.879-1.055l2.086-1.304l1.948-1.56l2.982-2.856l1.568-1.966
		l0.739-1.369l1.123-1.254l0.52-0.391l1.856-1.475l0.806-1.208l0.248-2.313l0.709-1.772h0.061l0.018-0.199l0.12-0.301h-0.093
		l0.125-1.37l-0.706-0.139l-0.191-0.856l0.981-0.887l3.346-1.417l2.26-0.944l1.202-1.071l0.474-1.258l-0.655-0.522l0.351-1.185
		l0.166-3.318l-0.622,0.743l0.058-0.728l-0.541-1.733l-1.245-1.992l0.113-1.587l1.097-0.618l1.865-1.885l1.09-0.56l2.893-2.783
		l3.082-1.413l2.526-1.084l1.706-1.714l1.183-1.846l0.809-2.023l-0.536-1.296l-0.13-4.268l-0.255-2.277l0.131-2.76l-0.468-1.167
		l0.139-0.113l-0.24-0.137l-0.094-0.235l-0.13,0.107l-0.681-0.388l-1.137-2.646l-0.865-1.606l0.121-1.277l-0.119-0.705l0.638-1.698
		v-0.789l-1.813-1.038l-0.115-1.352l1.25-3.001l1.035-1.162l0.489-1.646l0.94-1.232l0.472-1.415l1.025-0.257l0.528-1.45l1.672-0.893
		l0.067,0.076l0.153-0.194l0.233-0.124l-0.071-0.081l0.419-0.532l0.605-1.352l2.928-3.319l2.555-2.044l4.012-2.592l2.734-2.219
		l3.23-3.747l2.203-2.984l2.326-4.009l1.678-3.483l1.301-2.997l0.732-2.879l0.691-0.966l-0.003-1.454l0.257-1.627l-0.26-1.544
		l-0.492,0.083l0.08,0.48h-0.812l-1.308,0.914l-1.396,0.256l-1.114,0.377l-0.866,0.125H152.9l-1.021,0.52l-1.315,0.267l-2.271,0.76
		l-2.987,0.393l-2.514,0.636h-1.193l-1.157-1.02l-0.55-1.098l-0.971-0.555l-0.753-0.502l1.25-0.521l0.157-1.412l-0.552-0.66
		l0.06-0.05l-0.243-0.17l-0.138-0.165l-0.045,0.037l-1.094-0.764l-0.896-0.894l-1.423-1.552l-1.576-1.572l-3.589-2.562l-1.489-1.241
		l-0.766-2.413l-1.47-2.945l0.063-0.076l-0.159-0.115l-0.148-0.297l-0.098,0.118l-1.244-0.902l-0.952-0.596l-0.99-3.088
		l-0.364-2.669l0.689-0.414l-1.096-2.559h0.029l-0.194-0.385l-0.048-0.112h-0.009l-0.216-0.428l-3.046-2.413l-0.112-1.556
		l0.612-0.457l-2.455-3.134l-0.909-1.558l-1.015-1.518l-2.065-4.131l-1.532-2.674l-0.417-1.02l1.039,2.064l2.219,2.217l0.175-0.139
		l0.708-0.589l0.793-1.473l0.48-1.856l0.264-0.395l-0.2,0.606l-0.125,0.871l-0.473,1.733h1.61l1.227,1.839l1.645,2.013l1.054,2.107
		l0.753,0.604l0.725,1.331l-0.131,0.518l0.992,1.703l1.436,0.645l1.246,0.997l1.487,2.851l-0.118,1.541l0.421,2.02l1.725,2.651
		l1.311,0.393l1.722,1.844l0.778,2.192l1.479,2.254l1.342,0.976l0.254,1.01l0.778,0.78l0.36,1.076l0.117,1.161l-0.398,0.529
		l0.23,1.034l-0.621,0.156l0.935,1.378l0.547,2.004l0.467,0.7l-0.126,1.52l0.727,1.744l2.146,0.144l0.898-0.385l1.394,0.141
		l0.408-0.814l0.751-0.125l0.516-0.772l0.639-0.109l2.248-0.139l1.742-0.548l1.569-1.088l0.72,0.241l1.277-0.285l2.412-1.795
		l4.275-1.296l2.833-1.215l0.128-0.974l0.475-1.066l1.814-0.724l1.326-0.147l1.729-0.863l1.427,0.259l1.487-0.894v-1.045
		l0.864-0.648h1.68l0.783-0.626l0.253-1.271l1.521-0.934h1.35l0.391-0.588l-0.393-1.707l0.449-1.274l0.432-0.538l1.185,0.133
		l1.045-1.871l1.203-0.937l0.396-0.796l1.073-1.608v-0.885l-1-0.427l-0.723-0.845l-1.213-1.619l-1.771-0.407l-1.842-0.35
		l-1.502-1.001l-1.103-1.719l-0.207-1.134l0.321-0.184l-0.422-0.734l0.301-0.302l0.31-1.397l-0.714-0.474l-0.909,1.06l-1.658,1.657
		l-2.071,1.813l-1.722,1.721l-1.576-0.121l-2.23,0.004l-1.896,0.334v-0.794l-0.626,0.157l-0.385-0.766l0.497-1.516v-1.638
		l-0.945-1.098l-1.023,0.341l-0.857,1.574l0.075,0.562l-0.121-0.282l-0.772-0.644l-0.329-0.767l0.24-0.908l-0.14-1.277l-1.852-1.189
		l-0.52-0.914l-1.275-0.638l-1.065-2.395h-0.004l-0.788-1.803l0.263-0.656l-0.476-0.856l1.125,0.086l0.113,0.103l0.088-0.088
		l0.606,0.046l-0.34-0.312l0.713-0.714l1.599,0.861l1.325-0.362l1.98,3.46l1.852,2.513l2.573,0.756l2.791,2.103l3.437,0.925
		l2.742-1.309l1.979-0.496l1.104,0.442l1.173,3.384l3.104,0.404l2.96,0.515l4.735,0.851l-0.029,0.092l0.346-0.035l0.182,0.033
		l0.017-0.053l3.68-0.368l4.396-0.131l4.776-0.502l2.064,1.942l0.792,1.98l2.021,0.807l3.116,2.098l0.637,0.956l-1.336,0.935
		l3.754,3.615l2.078,0.276l3.646-1.458l0.45,2.104l0.009,3.412l0.895,3.329l1.065,5.368l2.418,3.669l0.507,1.648l0.672,3.42
		l1.439,2.611l0.992,1.219l1.022,2.688l1.177,3.792l2.764,2.763l1.384-0.923l0.882-1.766l2.74-0.864l-1.054-1.052l1.118-1.786
		l1.518-0.137v-4.81l1.161-2.581l-0.134-2.281l-0.633-3.408l0.692-1.85l1.204-0.13l2.462-1.036l1.41-0.706l0.131-1.305l2.495-1.623
		l2.082-1.696l3.017-3.165l3.91-1.826l1.517-1.792l-0.121-1.814l2.938-0.595l2.116,0.141l0.374-0.996l0.796,0.199l0.942,0.314
		l0.365-0.486l1.196,0.666l0.929-1.857l-0.208-0.925l2.122,0.106l0.937,1.395l0.497,1.217l0.135,1.466l0.77,1.416l0.002,0.027
		l2.044,2.313l1.458,0.338l-0.322,0.75l2.101,3.125l0.63,2.512l-0.942,3.502l1.928,0.738l1.512,0.274l3.191-1.999l1.562-1.227
		l0.997,1.972l0.52,3.365l0.787,3.275l1.13,1.381l-0.256,2.94l0.882,1.51l-0.752,2.006l0.258,2.065l-0.763,2.546l-0.401,1.743
		l0.783,2.161l0.615-1.841l0.993,0.993l1.37,1.468l0.534,1.336l1.043,1.043l0.578,1.041l-0.39,1.943l1.06,1.588l0.39,2.203
		l1.544,1.805l0.267,1.457l3.287,2.103l2.657,2.127l2.255-0.302v-1.171l-1.076-2.427l-0.992-0.742l-0.128-1.48l-0.241-0.844
		l0.25-1.293l-0.133-1.867l-1.222-1.891l-1.583-1.716l-0.647-0.259l-1.438-1.438l-1.668-0.256l-1.312-1.432l-0.513-2.296
		l-1.091-2.585l-1.751-0.125l-0.224-1.667l0.878-2.258l1.562-4.069l0.117-2.722h1.906l-0.385,2.06h2.432l2.317,1.096l1.399,2.793
		l1.092,1.498l2.355,0.393l1.738,1.391l-0.621,1.735l1.086,2.168l3.612-2.78l2.138-2.149l3.117-1.822l2.405-1.869l0.387-4.826
		l-1.331-5.11l-1.73-2.242l-2.383-1.613l-2.445-3.479l-1.99-2.736l0.468-1.757l2.225-2.487l3.572-2.294l1.194-0.36l3.205,0.8
		l-0.523,0.839l0.742,2.229l1.909-0.159l0.903-2.842l2.729-0.378l3.804-1.458l1.383-1.152l0.886,0.76l1.777-1.229l3.084-0.258
		l3.788-2.352l3.797-2.504l2.457-3.24l2.181-3.593l1.873-2.744l1.594-0.266l0.694-2.366l0.419-2.371l-1.633-0.817l-0.505-1.109
		l1.583-0.731l0.146-2.316l-1.976-2.101l-1.526-2.411l-1.194-2.786l-2.65-1.325l1.207-1.645l2.593-1.316l1.232-1.355l3.915-0.81
		l-0.506-1.843l-1.77-0.124l-2.566-1.079l-3.093,1.935l-1.8-0.676l-0.133-1.32l-2.281-0.403l-1.212-1.544l1.176-1.07l2.583-0.129
		l1.698-1.707l3.048-1.91l2.162-0.843l1.114,1.113l-2.002,1.754l0.514,1.031l-1.275,1.161l0.233,0.426l2.899-0.801l1.977-1.255
		l3.638-0.752l1.291,0.754l1.396,0.233l0.051,0.154l-0.657,1.583l0.186,0.279l-0.469,0.28l-0.958,1.442l1.042,0.521l0.526,0.211
		l0.164,0.652l1.084-0.361l0.312-0.311l1.076,0.43l1.515,1.838l-1.831,0.487l1.234,3.019l-0.507,1.903l0.306,1.831l2.771-0.311
		l2.123-1.135l2.539-0.535l1.134-1.56l-0.015-3.254l-0.68-1.871l-2.354-3.094l0.02-0.04l-0.129-0.104l-0.229-0.301l-0.041,0.083
		l-1.253-1.008l-0.67-0.224l0.072-0.048v-1.159l0.977-0.665l1.885-0.557l1.026-0.771l0.47-0.359l1.575-0.715l-0.136-2.002
		l0.67-0.788l1.077-0.838l0.821,0.103l0.164,0.218l0.106-0.184l0.419,0.053l-0.255-0.338l0.4-0.698l3.397-1.82l1.613,1.241h1.814
		l3.717-1.74l1.665-1.536l3.741-3.095l3.661-3.294l0.846-1.731l4.18-3.918l1.037-5.579l0.87-2.514l1.603-2.273l-0.553-3.305
		l-3.619-2.146l-3.128-0.409l-1.672,1.546l-2.821-0.351l-0.769-2.31l-3.323-0.554l9.188-5.321l8.278-5.244l6.521-1.155l11.681-0.002
		l10.131,1.413l6.854-1.539l-1.956-1.397l6.332-4.019l6.877-0.875l2.211,3.122l6.947-2.538l1.646-2.28l2.653-0.106l-1.804,3.267
		l-4.977,2.046l-9.569,6.018l-4.045,0.809l-0.133,1.342l-2.028,1.138l-1.604,4.41l1.565,6l1.771,6.533l4.483-3.362l0.499-1.875
		l4.237-1.154l1.16-3.229l4.635-1.587l-0.654-1.823l3.411-1.517v-4.992l-2.856-0.714l4.003-4.121l6.643-0.132l7.646-1.785
		l4.028,1.689l4.848-2.752l6.134-2.688l7.246-1.67l5.753,0.803l0.737-2.52l-2.454-3.069l3.675-1.66l0.771-0.258L508.25,51.7
		l1.518-2.495l3.348,1.599l5.081,0.625l5.328,2.339l4.774-0.137l0.392-2.741l6.699-1.536L529.397,46.438z M97.935,66.521
		l-2.723,0.13l-2.905-0.518l-3.508,0.391l-3.572,0.826l0.314,1.898l1.867,1.004l0.719-0.18l-0.384,1.532h0.001l-0.372,1.491
		l-1.893,0.11l-2.094-2.09l-2.792,0.977l-1.378,1.793l-0.123,1.954l-0.072,0.018l0.058,0.208l-0.019,0.298l0.095-0.024l0.508,1.825
		l-3.59,0.742l-0.626,1.251l-2.25-0.113l-0.252-0.628L70.048,79l-3.396,0.915l-4.294,1.176l-1.671,0.835l-1.228-0.849l-3.185-1.06
		l-1.446,0.666l-2.49,0.452l0.111-0.784l-2.737-0.652l0.057-0.305l-0.116-0.022l-0.038-0.31l0.115-0.027l-0.15-0.248l-0.028-0.224
		l-0.094,0.022l-0.552-0.917l2.969-0.693l0.345,1.035l3.112,1.698l1.695-2.4l0.236,0.787l3.541-0.142l1.404-2.172l3.352,0.257
		l1.658-2.65l0.993-4.355l2.632-0.626l2.824-3.387l-2.786-1.519l-1.803-1.805l1.81-3.62l5.073-2.283l4.573-2.152l-0.526-1.709
		l2.51-1.792l4.515-0.752l3.542,1.22l0.175,0.793l-1.613,0.464l-6.214,2.98l-2.499,1.72l-1.391,1.673l1.321,2.515l-0.538,2.83
		l2.729,0.955L84.137,66l4.515-0.532l4.724-1.025l4.834-0.254l2.299,1.045L97.935,66.521z M123.544,101.307l1.731,1.154
		l-2.043,1.931l-2.183,0.581l0.435-0.757l-3.1,0.149l-1.227-0.558l-0.105-1.353l2.066-0.936l2.629-0.13l1.751-0.9l1.765-0.11
		l-0.005,0.048l0.322-0.068l0.19-0.012l0.003-0.029l2.023-0.426l0.034,0.17L123.544,101.307z M167.46,127.175l-4.042,0.62
		l-3.79-0.378l-1.792-1.407l-2.51-0.503l-0.824-1.77v-1.218l0.979-0.612l0.431-1.011l0.473-1.892l2.53-0.297l-1.202-1.201
		l-1.269-0.127l-1.371-1.741l-1.393-1.394l-2.895-3.146l0.256-1.804l-2.364-2.491l2.48-2.597l2.584-0.388l1.297-1.557l2.517-0.631
		l3.015-1.131l2.315,0.631l2.495-0.119l0.328,1.418l-0.459,2.285l-2.17-0.344l-2.517,0.557v1.857l-2.745-0.262l0.195,1.351
		l1.462,0.665l1.296,2.464l3.094,0.903l0.396,0.69l-0.619,1.115l0.114,0.581l-0.041,0.032l0.078,0.157l0.071,0.361l0.079-0.061
		l1.003,2.009l-0.722,2.598l1.779,0.127l-0.613,1.711l2.103,0.92l-0.355,2.743l0.493,1.851L167.46,127.175z M167.757,117.228
		l-2.62-0.655l0.282-2.237l1.833-0.539l0.734,1.435l1.6,1.386L167.757,117.228z M851.38,176.84l-0.558,0.558l0.336,1.504
		l1.741-0.146h2.164l0.895-0.893l-0.749-0.747l-1.538-0.276H851.38z M343.037,198.811l-1.651,1.907l-1.97,1.716l-1.288,1.804
		l0.347,0.35l3.536-2.504l1.396-1.903l1.901-1.492l-0.713-3.018L343.037,198.811z M349.122,190.486h-2.896l1.705,2.479l2.316,2.57
		l0.371-0.335l-1.061-1.177l0.778-2.324L349.122,190.486z M363.039,202.417l-0.031,0.005l-0.115-0.642l-2.697-1.583l0.144,2.282
		l-1.85,0.123l-0.398,1.204l-1.779,0.665l-0.924-1.186l-1.712,0.999l-1.758,0.812l-1.116,2.509l0.573,1.147l2.223-1.666l1.328,0.133
		l0.719-0.957l1.387,0.893l-0.825,1.183l0.853,2.275l3.513,1.688l0.958-1.592l-0.886-2.023l0.882-0.881l0.981,2.951l1.315-3.126
		l-0.268-1.61L363.039,202.417z M345.431,185.537l0.403,1.21l1.643,1.791l-0.146,1.33l1.527,0.611l2.394-0.379l1.936,1.799
		l0.608-0.977l0.879,1.184l2.363,1.475l0.074-0.337l1.697,2.086v0.645l-1.622-0.27l0.014,0.058l-1.765,2.472l0.203-0.955
		l-1.518,0.127l0.424-0.381v-1.521h-1.869l-2.129-0.98l0.16,0.531l0.378,1.189l-0.258,2.576l0.255,0.025l0.037,0.373l2.056-0.961
		l0.307-0.275l-0.194,1.271l-0.604,0.723l-1.029,1.286l0.391,0.312l0.319-0.398l1.512,1.89l1.157-1.021l0.852-1.736l0.967-0.965
		l0.355-3.55l0.485,2.112l0.744,0.123l0.14,1.947l1.834-0.732l-0.718-1.814v-0.562l2.167,0.677l-0.929-3.484l-1.544-2.06l-0.4,0.3
		l0.472,0.63h-2.277l0.222-1.001l-0.905-0.776l0.269-1.473l-3.606-1.524l-1.137,0.272l-1.265-0.229l-0.582-1.978l0.476-2.019
		l1.538-0.897l0.699-2.374l-0.894-1.914l0.511-1.151l-0.554-1.383l-0.465,0.185l0.184,0.461l-0.623,0.445l-1.594-0.735h-1.774
		l-0.975,2.682l-0.229,3.774l-1.212-0.946L345.431,185.537z M347.863,187.698l0.248,0.206l-0.401,0.334L347.863,187.698z
		 M427.22,240.103l-0.781,0.258l-0.376,1.251l-1.186,0.116l-2.666-0.422l-0.373,1.313l1.759,0.876l2.271,0.787h1.605l1.323-0.665
		l1.63-0.68l0.373-0.738l1.412-0.258l0.987-1.836v-1.582l-0.672-0.67l-1.929,0.159l0.274,1.654l-1.46,0.985l-0.705,0.823
		l-1.216,0.101L427.22,240.103z M420.518,243.188l-4.479-1.663l-0.37-1.483l-1.494-1.49l-2.006-1.455l-5.003-1.537l-4.479-1.741
		l-0.001-0.037l-0.176-0.031l-0.326-0.127l0.001,0.069l-2.467-0.442l-2.079-1.038l-2.409-0.918h-2.379l-3.221,1.766l-2.177,2.663
		l-2.425-1.502l-0.773-4.206l-0.565-1.127l-4.463-1.218l-1.417,0.925l-4.047,0.724l1.514,1.681l2.297,0.511l1.179,1.701h3.82
		l0.06,0.147l-1.647,0.012l-3.314,1.205l2.377,1.486v1.077l0.632,1.263l1.316-0.33l0.816-1.17l3.838,2.353l2.177,0.244l5.198,2.156
		l1.219,2.171l0.603,2.767l-1.571,0.723l-1.396,2.646l4.018-0.148l0.623-0.744l2.487,0.473l2.314,2.069v0.125l0.147,0.006
		l0.351,0.314v-0.3l2.499,0.104l1.507,0.547l2.467-1.014l-0.39-2.082l1.473-0.797l2.234-0.745l3.312,1.103l1.413,2.424l1.549,1.42
		l2.117,1.852l2.782,0.396l2.232,0.248l0.659,0.665l2.084-0.149l0.385-1.153l-2.612-1.068l0.891-0.593l-2.437-0.458l0.136-1.358
		l-1.694,0.141l-1.779-2.768l-2.258-1.757l-0.513-1.437l2.475-0.261L420.518,243.188z M431.774,236.512l1.219,0.83l0.618,0.974
		l0.634,1.892l1.165-0.969l-0.3-1.647l-1.085-0.945l-1.202-1.194l-1.052-0.655l-1.021-0.511l-1.564-0.853l-1.227,1.02l2.264,0.897
		L431.774,236.512z M500.602,328.989l-1.648-0.228l-2.065-0.85l-0.38-1.908l-1.763-1.058v1.438l-1.442-2.105l-0.812-2.431
		l-2.244-0.793l-1.476-1.606l-1.499,0.374l1.359,2.259l2.078,2.337l1.207,1.082v0.47l1.034,1.813l0.127,1.552l-0.364,1.942
		l-1.936,1.031l-0.178,1.223l3.062,1.198l0.654,1.2l-1.649,2.335l1.398,0.465l0.588,0.885l2.316-1.158l1.316-1.978l1.028-1.414
		l0.774-1.029l-0.399-0.301l-0.062,0.08l-0.108-0.493l0.602-0.604h2.109l0.859-1.73l0.712-2.701l-1.647-0.332L500.602,328.989z
		 M489.419,337.931l-0.505-0.8l-0.634-1.43l-2.256,1.504l-0.389,1.426l-1.024,0.788l-1.107,1.871l-1.641,1.394l-2.305,1.408
		l-1.905,1.015l-1.734,0.553l-3.524,2.752l-1.507,2.055l0.649,1.298l2.924,0.133l1.806,0.901l2.566,0.133l1.489-0.812l2.114-1.319
		l1.595-2.798l0.608-1.702l2.17-0.965h2.654l-1.196-1.499l1.125-0.903l1.803-2.058l1.089-1.231v-1.326l-0.937-1.411L489.419,337.931
		z M473.282,286.668l-1.691-1.383l-2.178-1.667l-1.806-1.543l-0.036,0.043l-0.256-0.199l-1.591-0.926l-1.638-0.183l0.17,0.395
		l0.435,0.972l1.824,1.952l1.694,1.433l1.974,1.31l1.665,0.694L473.282,286.668z M157.705,263.385l-0.672-1.855l-0.781-1.175
		l-1.804-2.319l-0.395,0.307l0.787,1.013l-0.839,1.201v1.535l-1.381,1.729l-1.469-0.491l0.511,1.53l-0.693,1.273l-2.172,1.663
		l-1.471,1.472h-1.252l-0.914,0.529l-1.49,0.502l-1.465,0.148l-0.399,1.777l-0.938,1.609l0.143,2.58l0.531,1.715l0.609,1.215
		l-0.237,1.669l-1.299,1.948v0.807l-1.256,0.504l-0.416,2.145l0.274,1.994l0.882,2.106l0.133,2.373l0.837,1.539l2.274,1.069
		l1.649,0.686l2.379-1.191l2.302-0.678l1.342-3.23l1.029-3.727l1.538-5.13l1.423-3.619l1.04-3.282l0.122-2.19l0.752-0.503
		l0.292-1.312l-0.503-2.012l0.231-0.346l0.898,1.545l0.223-0.333l0.555-0.863l0.278-1.382l-0.798-1.324L157.705,263.385z
		 M240.535,201.875l-2.099-1.798l-1.409,4.8l0.554,4.008l1.385,2.353l2.574-0.728l1.252-0.833l0.412-3.016l-1.344-2.94
		L240.535,201.875z M400.502,110.035l-1.542,2.243l0.433,3.023l3.467-0.144l1.373-2.876l4.197,1.907l2.382-2.779l4.146-0.802
		l-0.621-3.562l-2.144,1.288l-1.802-0.601l-1.993-0.858l-3.496-3.077l-0.904,2.569l-0.732,3.543L400.502,110.035z M396.502,124.878
		l-3.717,2.603l-1.88-1.343l-2.883,4.85l-2.87-0.488l-5.349,0.784l-2.067,1.818l-2.779,1.475l-1.374,1.624l-2.66,0.979l1.217,2.13
		l1.555,0.718l-0.631,2.399l1.555,1.245l2.019-1.299l1.903-4.756l-2.271-1.729l2.447-0.014l1.681-0.677l-1.37,1.495l-0.152,1.552
		l2.186,0.937l0.842-1.681l1.071-0.536l1.214,0.945l1.812-1.962l-0.496-1.152l-1.345-0.448l2.087-0.233l0.121,1.805l2.064,1.181
		l3.929-3.144l4.758-0.141l3.554-1.316l1.397-2.097l-0.395-1.308l1.018-2.157l-0.127-2.659l2.568-2.699v-4.476h-0.5v0.824
		l-1.003-2.644l-3.144,0.428l-1.27,1.977l0.389,2.976l-1.61,3.219L396.502,124.878z M382.143,135.242l-1.317-0.219l1.046-0.421
		l1.029-0.115L382.143,135.242z M822.052,176.715l-0.041,0.204l-0.546,0.069l-0.57,0.951l1.821,1.197l1.634,0.408l0.759-0.401
		l2.362-0.158l-0.794-1.191l-1.567-0.695l-1.77-0.124l-0.646-0.119l0.002-0.012L822.052,176.715z M62.303,123.936l-2.673,0.381
		l-3.266-0.271l-0.509,1.706l3.99,1.51l1.224,0.234l2.292,1.146l0.803-1.759l-0.392-0.778l1.021-2.479L62.303,123.936z
		 M43.053,116.337l-0.042,0.498l1.395,0.117l0.563,1.318l0.133,3.352l1.302,0.812l1.075-0.943l1.435,0.287l0.428-3.985l-1.664-1.919
		l1.02-2.482l-0.607-2.737l-2.023,1.245l-1.318,2.108l0.424,0.265l0.371-0.592l0.505,1.412l1.247,0.623l-1.245,0.872L43.053,116.337
		z M992.178,53.854l3.967-2.267l-3.269-2.044l0.693-1.799l-4.938-0.266l-4.314,1.397l-3.352-0.646l-4.091,1.408l-4.218-1.79
		l-4.133,0.399l-2.42,2.1l6.037,0.687l0.064,0.453l-4.506,0.488l-0.026,0.493l5.158,1.121l-2.843,1.218l8.525,1.012l3.516,0.39
		l2.361-0.524L992.178,53.854z M-0.455,88.004l4.882-1.582l2.185-2.592l-0.389-1.936l1.52-1.937l-3.142-1.856l-2.207,0.123
		l-0.042-0.116l-0.207,0.129l-0.272,0.015l0.046,0.126l-1.88,1.175l-3.813,2.179l1.452,2.775l-2.365,3.061L-0.455,88.004z
		 M331.245,250.863l3.752-1.25l-3.971-1.969l-3.871-0.499l-1.02-1.658l-5.315-1.363l-0.53,1.065l-4.83-0.242l-0.375-0.877
		l-1.235-0.266l-2.282-1.054l-3.35-0.132l-0.279,0.372l0.132-4.319l0.666-3.451l-1.415-1.98l-2.053-0.256l-0.803-1.231l-0.429-2.132
		h-1.153l-1.295-0.863l1.165-2.203l-2.225-1.251l-1.685-2.32l-2.258-1.857h-2.682l-2.535-2.912l-1.532-1.146l-2.038-1.781
		l-2.379-2.646l-4.351-0.526l-2.005-0.154l0.334,1.676l2.795,3.182l2.017,1.386l1.416,2.317l2.436,1.666l0.986,2.099l0.796,2.377
		l2.311,2.17l2.069,3.745l1.319,2.098l2.034,2.16l1.188,1.716l3.482,2.185l2.388,2.257h3.302l-2.012,2.682l2.874,0.144l0.376,1.128
		l5.097,1.206l1.163-0.389l1.848,0.37l3.234,0.906l2.475,0.518l2.868,0.26l2.389-0.127L331.245,250.863z M353.469,250.56
		l0.548-2.201l-2.699,1.217l-1.74,0.124l-1.693-0.782l-2.464,0.581v1.459l3.864,0.277L353.469,250.56z M361.64,235.303l0.713,1.602
		l2.186,0.583l1.152-1.155l-0.845-1.182L361.64,235.303z M315.941,225.909l0.289,2.41l1.322,2.379l1.365,0.745l0.396,3.673
		l2.433,0.281l1.67-0.12l1.051,1.313l3.274-0.915l1.239,0.744l1.87,0.25l1.077,1.614l3.05-1.145l0.587,1.36l1.215-4.885l0.125-2.456
		l2.587-1.94l-0.133-2.514l0.81-1.618l3.688-0.295l-3.416-2.845l0.499-1.125l-2.042-2.554l1.411-2.234l2.211-0.968l-0.477-1.193
		l1.646-0.118l0.348-1.56l-2.512-0.837l-1.67-0.714l-0.122-1.102l-1.423-1.421h-1.399l-1.319,2.126l-2.041,1.914l-2.332,1.431
		l-0.974,0.863l-0.034-0.038l-0.164,0.213l-0.178,0.158l0.031,0.034l-1.148,1.494l-1.872,2.12l-3.193,0.519l-1.272,0.568
		l-0.509,2.289l-1.827,0.456l-1.873-0.82l-0.089-0.313l-0.18,0.195l-0.326-0.142l0.108,0.378l-1.508,1.632L315.941,225.909z
		 M358.039,254.556l1.685-2.076l2.26-0.753l2.902-1.2l1.266-1.086l-1.567-0.395l-0.778,0.271l-1.984,0.137l-2.436,0.677
		l-0.263,0.658l-2.672,1.018l-1.237,1.812l-0.308,1.077l0.626,0.419L358.039,254.556z M353.615,229.779l1.256,0.42l0.388-1.937
		l-5.445,1.118l-1.412,1.058l-2.073-2.189l0.327-1.637l2.12-0.354l4.431-0.265l2.635,0.659l2.204-0.551l2.218-2.909l-0.615-1.02
		l-2.862,2.044l-2.977,0.128l-3.293-0.374l-2.326-0.822l-2.485,2.235l-0.529,1.066l-1.296,4.146l-0.35,1.973l-1.229,1.913
		l0.88,2.057l1.11,0.127l0.352,2.326l-0.812,2.567l1.403,0.936l2.109-0.453l-0.138-4.081l-0.243-2.909l1.271-0.544l-0.118,2.302
		l1.89,1.51l-0.372,0.997l0.852,1.021l2.205-0.839l-1.031,1.753l1.316,1.151l1.699-0.925v-1.906l-2.396-3.152l0.513-0.9l-2.48-3.353
		l2.213-0.932L353.615,229.779z M366.794,236.43l2.196-0.001l1.497-0.13l2.237,0.234l2.793,1.312l-1.218-2.779l-3.151-0.812
		l-3.507,0.135L366.794,236.43z M367.658,222.315l-0.164-1.801l-1.325,1.511l-0.543,2.177l0.814,3.609l1.133,1.844l1.308-0.434
		l-1.305-1.596l0.408-1.33l1.335,0.268l0.281-2.668l-0.293-1.325L367.658,222.315z M383.644,243.465l0.343,2.737l1.841-2.345v-1.451
		l-0.931-1.305l-0.694,1.39L383.644,243.465z M341.241,249.302l-1.005-0.859l-0.861,1.003h-1.44l-1.336,2.174h2.019l1.817-0.391
		l3.439-0.574l-0.901-1.62L341.241,249.302z M348.068,254.836l0.19-1.121l-1.037-0.884l-1.507-0.96l-3.334,0.835l4.261,2.13H348.068
		z M834.398,178.121l1.686,0.245l1.228-0.246l1.592,0.455l0.123,0.73l0.95,0.572l1.249-1.943l0.629-0.27l0.358,0.597l1.277-0.161
		l0.484-0.485l0.711,0.111l1.214-0.122l1.394,0.698l1.332-1.5l-1.56-1.249h-1.088l0.133-0.927l-1.669,0.14l-0.392-1.045
		l-0.895,0.148l-1.525-0.762h-2.4l-0.245,0.489l-2.158-0.359l-1.801-0.139l-1.371,1.643l0.384,0.32l0.545-0.654l1.33,0.308v0.942
		l1.124,1.012l-0.672,0.42l-1.964-0.246l-2.664-0.419l-0.376,1.312l1.836,0.918L834.398,178.121z M90.001,131.271l-1.984,0.124
		l-1.744-1.019l-0.577,1.73l3.299,0.528v0.569l4.271-0.284l0.671-1.34l-1.621,0.271l0.093-0.283L90.001,131.271z M972.109,37.811
		l-3.736-0.128l-5.983-0.109l2.328-1.066l-0.699-1.397l2.694,1.242l2.125,1.064l5.185-0.561l-1.216-2.586l-3.622-1.732l-2.948-0.527
		l0.631-0.379l5.612,1.202V31.22l-2.762-1.535l2.923-0.001l3.82-0.396l1.24-1.237l-2.239-0.839l5.419-0.119l-3.548-2.364l2.424-0.22
		l-0.76-2.741l-4.059-1.174l3.345-0.692l5.208-0.157l-3.941-2.05l-0.117-2.692l2.066-1.704l3.801-2.375l-0.921-0.019l2.619-0.16
		l1.493-0.629L1000,8.085l-2.066-1.55l-8.09-0.519l-13.148,1.032l-5.344,0.807l2.123-1.108l-2.892-1.125l-5.149,0.782l-7.771-0.861
		l3.241-0.058l10.347-0.134l4.892-1.029l-0.021-0.493l-16.89-2.062L937.723,1.38l-9.592,0.27l-3.272,1.018l-9.569-0.125
		l-9.159,1.569l-0.363,1.083l-0.412,1.245l-2.344-0.809l-6.528-1.027l-7.145,1.531l-2.848-0.893l-8.375,0.128l-8.251,0.388
		l-6.928,0.693l1.146,1.272l-3.382,0.228l-9.449,1.948l-3.14,1.394l7.596,0.95l-0.608,0.608l-9.699,1.276l-10.319,1.307
		l-0.544,1.449l6.374,1.218l5.689,0.319l-6.735,0.857l-0.051,0.484l4.776,1.677l3.17,0.911l6.56-0.257l7.192-0.129l5.624,0.252
		l7.115,1.498l-0.126,1.141l3.623,1.074l5.392,4.747l1.265,0.844l-3.195,2.639l5.459,0.277l2.442,0.9l3.391,1.318h-6.905
		l-0.056,0.494l6.216,1.422l3.181,0.237l-0.426,1.704l-1.062,1.061l-4,1.034l-2.955,3.376l1.867,1.068l-0.891,1.913l3.811,2.631
		l0.253,2.273l1.509,1.907l4.578,3.288l1.834,2.62l2.811,1.605h5.279l3.993,2.19l4.083-0.136l1.342-2.821l1.36-2.312l-1.098-1.954
		l4.323-2.101l1.372-1.919v-1.754l2.166-1.564l3.806-0.635l3.577-0.641l1.993-0.14l5.865-1.969l3.668-2.796l2.746-1.015l2.99-0.001
		l7.895-0.911l7.343-2.191l7.208-2.316L972.109,37.811z M906.402,6.801l-0.573-0.198l0.271-0.814l4.178,1.003L906.402,6.801z
		 M947.686,5.755l-0.088-0.035l4.268-0.076L947.686,5.755z M7.431,78.485l1.62-1.471l0.539,0.462l-1.005,1.129l0.845,1.01
		l3.364,0.518l1.639,1.521l-0.3,1.2l-3.983-0.258l-0.612,2.139l1.229,1.229l-2.775,0.883l1.05,1.4l2.969,0.27l-1.183,0.32
		l-4.237,3.109l1.963,0.714l1.834-1.048l2.581,0.257l1.763-1.133l1.104,0.492l4.667-0.781h3.671l2.758-1.599l-1.154-1.409
		l1.25-0.682l0.473-2.045l-3.512-0.541l-0.692-0.917l-1.724-3.181l-1.823-0.521l-2.592-3.37l-2.409-0.217l2.113-2.113l0.755-2.571
		l-3.2,0.002l-2.097,0.286l2.914-2.913l-3.986,0.308l-2.173-0.135l-2.311,2.308L5.8,74.036L7.129,75.5L7.431,78.485z
		 M873.745,365.075l-1.43,1.571l0.368,1.289l2.521-0.889l1.119-1.758l-1.535-0.514L873.745,365.075z M869.412,365.019l-0.149,1.343
		l-0.991,1.362l0.309,0.374l2.267-1.091l1.482-1.645L869.412,365.019z M506.286,270.302l-0.979,0.143l-1.195,1.193l0.507,1.696
		l1.844-0.775l1.199-0.804l0.17-0.172l0.533-1.769l-0.936,0.234L506.286,270.302z M503.454,273.879l-2.202-0.735l-0.158,0.475
		l0.743,0.248l-0.808,0.708l0.317,1.598l1.636,0.295l1.854-0.427l0.623-1.706l-1.177-1.007L503.454,273.879z M112.775,132.042
		h-0.514l-0.181-0.182l-0.627,0.311h-0.396l-0.273-0.136l-1.586,0.177l0.724,1.451l1.604,0.436l3.038-1.155l-0.123-0.247
		l-0.176-0.325l-0.257-0.256l-0.055,0.055h-0.223l-0.129,0.128h-0.259l-0.119,0.119l-0.172-0.087v-0.013L112.775,132.042z
		 M830.424,173.602l1.933-0.413l0.388-0.971l-2.308-1.299h-1.701l0.113-0.676l-1.792-0.747l-0.865,0.123l-1.596-1.227l-2.319-1.674
		l-0.982-0.703l-2.551,0.383l-0.979-0.981l-2.713-0.935l-2.032,0.001l-2.401-0.266l-0.671,0.403l-2.061,0.264l-1.431,0.521
		l-1.229,0.546l-0.649,1.04l-1.945,1.06l0.651,0.145l1.257,0.259l1.529-0.277l0.371-0.619h0.971l1.924-1.412l1.817,0.086
		l-0.707,0.442l1.311,0.749l3.581,0.382l0.756,0.631l2.562,0.667h1.385l0.6,1.319l1,0.855l1.821,0.26l0.696,0.436l-2.113,1.812
		l4.562-0.308l1.956,0.26L830.424,173.602z M320.659,175.295l1.388-1.386l-0.823-1.317l-1.746,0.008l-3.02,0.789l-1.416,1.273v2.596
		l2.45,1.011l2.64-1.389L320.659,175.295z M811.616,26.723l4.041-0.657l1.942-0.748l-0.829-1.492l-2.998-1.076l-4.39-0.129
		l-5.566,0.132l-4.194,0.641l-3.998-0.257l-3.524-0.114l-1.722-0.656l-2.72-0.453l0.604-0.968l-2.689-1.027l-5.333,0.011
		l-3.029-0.912l-5.642-0.132l-1.404,1.405l3.554,1.028l5.568,0.233l2.591,1.234l0.266,1.249l0.964,1.516l7.334,0.916l4.391,0.389
		l11.084-0.256l-0.003-0.152l2.159-0.109L811.616,26.723z M882.715,88.92l1.032-1.544l-0.416-0.278l-0.433,0.647l-1.198-0.12
		l-2.451,0.972l-1.717,1.595l-2.637,4.18l-2.609,1.884l1.113,0.742l-1.521,0.819l0.562,1.123l5.446,0.133l2.76-0.137l2.048,0.513
		l-1.995,1.426h2.408l3.033-2.274l0.456,0.228l-0.523,2.224l1.945,0.599l1.476-0.148l1.276-2.556l-0.936-1.713l-0.302-1.667
		l-1.729,0.346l0.698-1.745l-2.931-1.026l-1.291,0.774l-1.916-0.604l1.015-0.889l-2.303-0.822l-0.912,0.456l1.12-1.44L882.715,88.92
		z M776.441,13.466l3.401-0.09l-0.805,0.302l-0.172,1.381l3.216,1.111l5.535,0.386l4.875-0.276l4.977-2.047l4.596-0.95l-0.812-0.295
		l1.381,0.368l-0.453,0.527l-4.741,0.653l-2.787,1.312l5.277,1.531l-3.06-0.428l-2.648,1.089l1.024,0.797l-4.716,0.604l0.519,1.738
		l9.214,0.525l7.946-0.387l7.116,0.646l6.287-1.203v-1.083l-3.707-0.266l-0.137-0.228l3.582-0.715l1.292-1.163l7.248-1.813
		l-2.329-1.293l1.333-0.355l-0.047-0.491l-0.62-0.043l6.847-0.624l10.158-2.701l10.684-2.317l-0.053-0.494h-3.874l0.546-0.145
		l6.46-0.518l6.565-1.159l-0.001-0.493l-10.59-1.805L836.022,2.54l-7.707,0.385l-9.677-0.128l-11.273,0.79l-3.518,1.398l-5.934,0.13
		l-5.282,0.387l-7.468,0.678l1.224,2.14l0.434-0.248l-0.19-0.333l4.812,1.603l4.813,1.037l10.96,0.09l-1.814,0.182l-7.877-0.138
		l1.307,1.598l-3.299-1.198l-8.703-1.658l-3.397-1.437l-7.287,0.149l1.21,0.672l-1.93,0.104l-1.96,0.917l-2.099,1.35l2.034,1.545
		L776.441,13.466z M812.564,53.182l-3.232-0.942l-2.921-0.885l-3.088-1.544l-0.203,0.405l-0.126-0.283l-2.268-0.302l-0.981,2.674
		l-0.365,1.951l-2.223,1.358l0.147,0.463l3.579-0.247l0.929,1.59l4.092-1.503l2.434-1.338l1.462,1.097l4.377,0.797l2.927-1.141
		l-2.527-1.178l-1.77,0.235L812.564,53.182z M803.472,51.005l-0.321-0.722l0.972,0.486L803.472,51.005z M735.617,17.956l1.333-1.333
		l-4.429-0.439l-3.941,0.276l-2.919,1.202l4.809,1.085L735.617,17.956z M677.642,80.903l-2.831,0.3l-2.574-0.772l-0.144,0.479
		l1.08,0.325l-0.109,0.76l0.58,1.302l1.439,0.785l0.918,1.293l1.741,1.339h1.744l-2.669-2.52L677.642,80.903z M714.487,24.447
		l4.412,0.604l9.54-0.201l-3.166,0.664l0.384,1.346l4.349-0.137l6.791-1.156l9.226-0.391l1.734-1.447l-0.483-1.615l-3.06-0.133
		l-2.388,0.376l-1.923-0.601l-0.896-1.282l-1.969-0.703l-2.965,1.248l3.53,2.352l-3.695-0.093l-4.943-1.685l-7.649-0.907
		l-2.563,0.821L714.487,24.447z M708.63,22.751l-1.49-0.213l2.154-0.197l4.977-1.152l2.663-0.149l2.181-0.954l0.471-2.52
		l-4.031,0.42l-4.206-0.118l-5.562,1.813l-5.281,2.414l8.054,1.15L708.63,22.751z M736.952,15.523l0.006-0.493l-3.625-0.647
		l-1.468-0.134l-2.873,0.957l-0.275,0.835h4.87L736.952,15.523z M755.699,21.064l0.16,2.579l4.469-0.129l-0.125,1.504l3.229,0.422
		l3.353-0.403l1.533-1.95v-1.634l-1.456-1.018l-7.798-0.259l-0.017,0.5l1.932,0.064l-2.041,0.465L755.699,21.064z M700.702,36.266
		l5.875-1.334l0.66-1.32l3.864-2.001l6.681-1.671l4.172-0.803l-3.636-1.485l-2.767-0.782l-6.795-0.127l-3.906-0.516l-9.619,0.405
		l1.791,2.342l-1.869,1.063l-2.243,2.375l-0.172,1.201l6.078,1.576L700.702,36.266z M778.704,26.345l1.723-1.41l-1.134-0.958
		l0.006-0.008l-0.901-0.772l-0.223,0.261l-1.326-0.589l-4.136,0.8l-1.839,1.671l3.869,0.743L778.704,26.345z M755.567,31.186
		l1.748,1.195l5.479,1.521l1.849,1.056l2.684,0.268l4.014-1.471l0.787-1.73l-3.406-1.705l1.348-0.786l-0.694-1.388l-4.219,0.273
		l-3.31-0.644l-3.464,0.602l2.716,2.468l-6.212-0.132L755.567,31.186z M748.619,15.373l-0.086-0.688l2.01,0.387l-1.601,0.48
		l0.066,0.489l5.879,0.124l4.54,0.904l4.979,0.294l-1.485-1.655l-2.107-1.317l-7.405-0.909l-5.583-0.409l0.296,2.362L748.619,15.373
		z M767.867,16.803l2.239,0.659l1.87-0.242l1.134,1.134l5.135,0.133l1.391-0.141l0.623-0.62l-0.121-0.034l-0.275-0.277l-0.155,0.154
		l-1.729-0.485h-4.955l1.229-0.159l1.054-1.406l-3.616-1.008l-3.09-0.258l-0.006,0.073l-2.388-0.085l0.346,1.562L767.867,16.803z
		 M937.568,241.582l-1.016-1.017l-2.339-0.119l-1.985-0.727l-3.518-2.989l-4.046-2.221l-3.99,0.009l-5.345-1.433l-2.739,0.798
		l0.312-1.245l-1.412-1.693l-4.589-1.704l-3.472-0.936l-1.775,1.442l-0.115-2.427l-4.89-0.398l-0.542-0.541l1.839-2.082v-2.216
		l-1.47-0.402l-1.513-4.661l-0.722-1.582l-1.008,0.125l-0.344-1.031l-2.973-2.406l-2.064-0.647l-0.585-0.166l0.002-0.004
		l-0.272-0.073l-0.23-0.065l-0.002,0.003l-2.746-0.733l-2.323,0.271l-0.235,0.474l-2.966-0.477l-1.101-0.977l-1.489-1.354h-0.875
		v-1.263l-1.798-1.922l-1.809-1.031l-1.086-0.681l-1.272,0.115l-0.365-2.071l-2.202-1.377l-2.134-0.251l-0.644-0.921l2-0.667
		l-0.089-0.487l-6.763,0.266l-0.146,0.733l-1.242,0.791l-1.906-0.357L854,198.073l-3.036,0.266h-2.194v-0.767l-1.962-1.68h-1.863
		l-0.976-2.088l-1.404,1.229l0.359,1.082l-3.292,1.141l0.146,2.344l0.857,0.858l-0.549,1.65l-0.825,0.184l-0.881-1.871l1.112-1.481
		l0.144-1.578l-0.727-1.037l1.324-0.22l0.153-0.771l0.601-1.049l-0.975-0.811l-1.093-0.313l-1.348,1.357l-1.032,0.646l-2.112,1.366
		l-2.145-0.268l-0.272,0.548l-1.605,0.123l-1.677,1.257l-0.541,2.462v0.699l-1.034,0.229l-1.899,1.901l-1.23-0.112l-0.96-0.718
		l-0.961-0.812l-1.208-0.538h-1.193l0.099-0.198l-2.006-0.333l-0.947,0.948l-1.672,0.523l-0.944,0.608l-1.301,0.238l-0.857-0.715
		l-0.206,0.205l-0.755-0.084l0.094-0.375l-0.821-0.823l0.03-0.008l-0.364-0.328l-0.075-0.075l-0.007,0.002l-1.18-1.061l-0.978-0.957
		l-0.563-1.238l0.037-0.03l-0.128-0.171l-0.123-0.269l-0.05,0.04l-0.197-0.263l-0.098-0.487l0.516-0.771l-0.146-0.669l0.114-1.024
		l0.546-0.275l-0.149-1.482l-0.125-0.566l0.125-1.132l0.218-1.068l0.71-0.995l-0.271-1.083l0.095-0.4l0.049-0.097l0.465,0.066
		l-0.311-0.373l0.082-0.164l-0.249-0.035l-0.624-0.749l-1.021-0.369l-0.794-0.659l-0.835-0.557l-0.391,0.011l-1.382-0.416
		l-0.552,0.276l-0.663,0.004l-0.651-0.13l-0.871-0.145l-0.408,0.283l-0.718,0.247l-1.214,0.131l-1.353-0.271l-0.302,0.102
		l-0.238-0.24l-0.987,0.183l-0.5,0.3l-0.176-0.059l-0.137-0.069l-0.018,0.017L793.709,184l-0.235,0.351l-0.459-0.262l0.435-0.61
		l0.365-0.122l0.741-0.74l0.285-1.575l-0.122-0.245l0.258-0.903l-0.255-0.507l0.361-1.091l0.123-0.616l0.502,0.502l0.912-2.432
		l0.435-1.304l-0.507-0.507l0.54-1.323l1.467-1.733l0.15-1.5l-0.827-0.663l-1.753,0.136l-2.369,0.006l-2.992,0.653l-1.897,0.678
		l-0.456,0.946l-0.24,2.249l-0.616,1.479l-1.521,1.076l-1.814,0.391l-1.897,0.506l-2.104,0.268l-2.292,0.723l-0.975-1.098
		l-2.828-0.642l-1.059-1.27l-0.532-1.597l-1.799-1.928l-0.652-2.189l-0.752-1.243l-0.49-1.35l0.248-1.25l0.249-3.558l0.504-1.898
		l0.974-2.313l0.228-0.029l-0.125-0.218l0.12-0.285l-0.264,0.033l-0.406-0.71l-0.123-1.209v-1.745l0.562-1.159l1.347-1.244
		l2.758-1.192l2.358-1.887l2.237-0.634l2.285,0.125l2.026,0.378l1.57,0.521l2.379,0.522l3.993-0.145l-0.906-1.811l0.195-0.879
		l1.417-0.01l1.625-0.5l2.452,0.252l2.886-0.376l2.459,1.229l0.725,0.868l3.129-1.173l1.292,0.938l1.758,1.506l0.585,1.406
		l-0.507,1.648l0.306,1.439l2.862,4.293l1,0.625l0.398,1.196l1.5,0.45l1.359-0.605l0.546-2.506l-0.148-2.532l-1.137-2.656v-1.043
		l-1.183-2.102l-1.01-2.127l-0.375-1.994l0.476-1.313l1.118-1.989l2.801-1.279l2.358-1.703l1.124-1.873l0.834-0.119l2.325-1.425
		l2.625-1.051l1.923-2.058l-0.425-2.891l-0.707-1.531l0.304,0.15l1.629-2.319l1.175-1.028l-0.22-0.437l-0.757-1.382l-0.276-0.761
		l0.299,0.299l0.45,0.113l0.347,1.041l2.262-2.414l0.609-2.434h-0.508l0.01-0.015l2.031-0.005l4.319-0.894l-1.214-0.809l0.9-0.101
		l1.842-0.51l1.38,0.122l1.929-0.551l0.359-1.078l-1.5-1l0.356,1.236h-0.69l-0.781-1.229l0.115-1.397l0.199-0.302l1.221-1.365
		l3.03-1.65l2.583-0.646l2.885-0.824v-1.127l2.71-0.356h3.133l-3.778,1.785l0.15,2.707l2.365,0.147l2.982-1.952l2.682-1.022
		l5.965-1.691l3.749-1.875l-1.955-1.203l-0.313-2.344l-3,3.284l-4.351,0.374l-3.324-1.231l-0.846-1.928l-0.728-2.668l2.754-2.067
		l-2.857-1.503l-4.14,0.28l-5.725,2.353l-4.333,3.441l-1.104,0.26l2.283-1.903l3.786-3.429l3.416-1.33l2.253-1.876l2.737-0.125
		l3.968-0.001l5.842,0.517l4.565-0.391l3.451-2.189l4.424-1.046l1.944-0.907l2.071-1.105l-0.141-3.224l-2.394-2.126l-0.332,0.374
		l0.483,0.429l-1.043-0.196l-1.017-2.287l-1.946-0.827l-4.162-0.737l-2.488-1.566l-3.32-1.305l1.098-1.708l-3.104-3.374
		l-3.583-3.325l-2.209-2.622l-2.033,1.46l-2.532,2.913l-3.669,1.345l-1.873-1.499l-2.35-0.371l-0.852-3.254v-2.424l-4.883-0.265
		l-0.74-0.987l-3.427-1.58l-2.65-0.929l-2.172,0.658l-2.819-0.256l-4.606-0.637l-2.16,0.575l0.97,4.537l1.078,2.275l-3.332,2.931
		l3.574,2.183l1.757,2.134l0.232,1.627l-1.415,1.79l-3.023,1.902l-4.721,1.289l2.257,1.806l1.357,4.071l-1.449,2.534l-1.86,0.815
		l-3.834-2.475l-1.874-2.859l-0.88-2.638l0.558-2.656l-3.254-0.283l-4.419-0.111l-2.879-1.172l-3.256-0.605l-1.98-1.314
		l-2.736-1.039l-5.11-1.163l-3.573,0.493l-1.185-1.892l-1.219-2.708l-3.901-0.377l0.098-2.758l0.979-2.118l2.921-2.928l3.299-2.157
		l3.235-0.404l0.134-1.862l1.966-0.944l3.92-0.261l3.189-1.86l0.765-1.16l2.611-2.359l0.8-1.142l2.626,0.732l3.794-0.399
		l5.395-1.975l0.473-1.575l-1.79-1.312l1.89-1.299l-0.156-1.723l-3.931-1.348l3.588,0.235l4.944-0.389l1.359-0.741l2.16,0.874
		l2.256,0.125l2.369,1.401l-1.979,0.913l6.174,1.026l4.071,1.272l0.946,0.816l0.644,0.966l-3.343,2.612l-1.013,1.448l0.688,0.788
		l-5.012,0.233l-5.259,0.132l-1.975,2.277l2.561,1.055l8.189-0.403l-0.107-0.644l3.594,1.159l3.583,1.271l-0.888,0.762l3.629,1.449
		l5.818,1.55l7.819,1.235l-0.767-1.533l-2.764-1.58l-2.136-1.282l4.911,1.483l3.544,0.817l1.044-2.236l-1.778-2.875l-1.253-0.692
		l-3.569-1.271l-2.676-1.46l0.197-1.184l3.204-0.355l4.223,2.553l3.462,1.198l4.932-3.199l0.936-2.338l-4.537-0.137l-3.849-2.437
		l-4.269-0.644l-5.386-1.54l4.395-1.041l-2.966-2.944l-2.374-1.048l-6.354-1.127l-2.907-1.717l-4.901,0.627l-0.359-1.08
		l-3.874-1.334l-5.999-1.436l-2.591,1.044l-4.916,0.721l0.344-1.494l-4.867-2.975l-6.986,1.187l-2.347,2.099l-1.789-1.369
		l2.266-2.115l-7.762,0.87l-2.765,1.053l-2.186,2.597l0.86,3.013h2.896l-2.321,1.055l2.938,1.132l4.365,0.384l3.915,0.533
		l-0.136,3.11l-1.959,2.213l-2.563,1.831l-2.38-1.587l0.908-1.945l-3.548-1.989l-3.35,2.034v-2.613l-4.453-0.456l1.936-1.075
		l-3.941-3.365l-2.766-1.175l-2.267-0.324l1.273,0.053l2.856-1.948l3.255-0.539l4.596-2.817l-5.88-0.736l-5.611-0.118l-2.752,0.787
		l-1.549,1.266v1.486l1.794,2.482l0.376,0.016l-3.193,2.044l-0.142,3.279l3.223,1.07l2.759,1.558l-1.118,2.352H774.9l-1.304,1.606
		V42.88l-0.138-0.03l2.006-1.082l-3.166-1.355l-2.062-1.028l0.001-0.003l-2.06-1.031l-0.181,0.362l-2.031,1.226l-2.196,2.038
		l3.312,0.401l-0.586,0.124l0.25,1.619l-3.593,0.001l-4.16,0.394l-4.85-1.295l-2.889,0.252l-2.683-1.401l-2.237-0.659l-2.22,0.262
		l-3.037,0.122l2.639-0.782l4.314,0.372l1.888,0.659h6.55l1.169-1.338l-1.249-0.769l3.773-0.222l0.351-1.577l-4.993-1.349
		l-4.515-1.254l-0.749-1.86l-1.719-2.643l-3.216-1.2l-2.651-0.387l-2.846,0.451l2.031,2.842l-1.044,0.854l-2.073-2.437l-2.602-0.958
		l-2.965,1.289l-3.825-1.275l-5.25,0.685l1.101-1.101l-3.219-0.613l-7.321,1.708l-1.986,1.07l-2.557,2.405l5.181,0.858l0.952-0.029
		l-3.69,0.678l2.011,1.279l3.95,0.131l5.75-0.26l3.343,0.418l-1.63,0.244l-3.895-0.128l-4.159,0.393l-3.727,0.972l5.319,1.965
		l5.975,0.381l2.715,2.067l3.709-0.132l6.611-0.653l2.016-0.597l-2.048,1.024l2.793,1.142l-2.305,1.002l-2.807-1.531l-2.363,0.53
		l-7.302,0.258l-3.725-0.403l3.393-1.286l-4.339-1.53l-2.658,0.131l-3.732-0.515l-6.274-0.894l-4.178-1.168l-3.307-0.132
		l-1.047,0.785l-2.919,0.351l-0.407-2.164l-3.788,2.029l-4.597-2.412l-1.974-0.281l-0.679,1.223l-1.736,0.58l-1.909-1.017
		l-4.491,0.663l-3.898,1.148l-4.079-0.377l-3.394,0.918l-2.253,1.126l-2.711-0.242l-4.29-1.295l-5.113-0.656l-2.855-0.374
		l-4.07-0.901l-3.522,0.516l-2.094-0.39l-5.257-0.255l-5.722-0.774l-2.647,0.259l-3.853-0.483l0.133-0.671l-4.857-0.138
		l-1.097,0.487l-2.033-1.127l-4.051-0.653l-4.085,1.422l-2.642-0.122l-5,1.155l-2.776,0.408l-2.781,1.324l-0.637,1.273l-3.304,1.112
		l-4.861,0.132l-1.8,1.8l3.992,0.993l2.538,1.138l1.996,1.317l3.268,0.991l1.623,1.24l-4.618,0.105l0.384-1.409l-2.572,0.006
		l-6.057,1.419l-4.546,1.213l4.047,1.781l1.215,1.215l3.998,0.659l3.79-0.263l2.309,0.543l0.817-0.681l2.723-0.499h0.614
		l-1.652,0.826l2.014,0.671l0.367,0.828l-1.765,0.772l-1.946-0.259l-2.181,1.281l-1.773-0.371l-2.307,0.136l-1.033,1.449
		l-2.235,1.447l-1.202,1.954l2.165,1.083v1.571l2.054,0.678l2.265,1.332l3.601-0.513l1.39,0.855l-0.438,0.767l0.303,1.972h1.938
		l2.568-1.102l1.129,1.555l0.693-1.108l1.733,1.362l1.437-1.047l0.848,0.486l2.38-0.595l-0.903,0.984l-0.375,2l-2.015,0.899
		l-0.439,0.464l-3.779,1.699l-1.363,0.992l-3.365,0.402l-2.803,1.405l-2.582,0.904l-3.269,1.277l0.676,0.901l4.838-0.812l2.17-0.895
		l5.224-1.657l1.938,0.259l3.222-1.207l0.898-1.285l4.133-1.421l0.643-1.157l2.614-0.871l3.029-1.066l2.865-2.15l-1.986-1.242
		l3.653-1.781l1.729-1.752l3.204-1.479l0.3,0.251l-2.503,0.796l-1.239,2.754l0.459,1.996l3.24-0.708l2.269-0.886l4.911-0.818
		l-0.519-1.817l2.631-0.571l3.175,1.142l5.354,1.295l3.662-0.265l4.644,1.033l2.639,0.493l5.584,2.721l3.143,0.781l4.371,0.128
		l2.437,0.122l1.379,2.507l3.455,2.176l0.782,2.345l2.377,0.918l1.433,0.955v1.294l3.372,2.075l0.395,2.23l3.396,1.008l-0.355,1.545
		l1.657,2.623l3.947,0.832l0.042,0.042l-1.848-0.183l-1.674-0.386l-3.082-0.699l-0.201,1.001l1.153,1.584l2.697,0.513l0.502,0.752
		l2.453,0.905l0.781,1.04l4.525,1.198l1.854-0.506l-1.443-1.761l-2.68-1.129l-2.204-2.205l0.086,0.017l1.958,1.303l5.089,2.543
		l1.213,2.038l0.367,2.074l-0.337,0.405l-1.041-1.852l-4.188-0.578l0.448,2.951l0.751,2.132l-0.509,4.081l-0.118,2.9l-0.933,3.064
		l0.926,1.587l0.135,2.172l-0.686,2.332l1.466,1.466l0.385,2.18l2.149,2.408l1.153,0.808l-0.115,0.577l2.276,3.864l2.647,2.649
		l0.263,1.443l0.916,0.611l2.05,0.129l1.155,0.896l1.136,0.107l2.757,1.484l1.124,1.373l0.173,0.689l-0.075,0.006l0.153,0.306
		l0.045,0.179l0.043-0.004l1.092,2.181l1.279,2.174l0.911,1.822l1.069,1.734l1.549,0.762l1.98,1.857v0.947l-0.872,0.871
		l-1.157-0.128l-0.386,0.382l1.749,1.895l1.678,0.645l0.784,0.782l0.413-0.413l1.646,1.175l1.21,0.726l0.472,1.361l-0.14,2.104
		l1.538,0.696l1.9,1.262l1.616,1.467l0.839,1.818h0.78l1.144-1.145l0.189-0.571l-1.122-1.404l-1.095-1.231l-1.178-0.118
		l-0.115-1.268l-0.809-1.346l-0.746-1.107l-0.924-2.508l-1.673-1.399l-0.695-1.089l-0.716-0.597l-0.548-1.779h-0.535l-0.35-0.819
		l-0.392-0.246l-0.54-0.67l-1.904-1.772l-0.859-1.107l-0.264-1.922l-0.475-1.19l0.365-0.823l1.38,0.691l0.898-0.128l1.707,0.91
		l-0.116,0.934l1.081,2.157l1.383,2.012l0.132,0.925l1.354,1.354l1.598,1.465l1.345,0.246l0.621,1.735l1.771,1.357l1.111,0.555
		l-0.369,1.6l0.625,0.78l2.315,1.158l1.299,1.674l2.669,2.028l2.426,2.68l0.862,1.197l0.27,1.214l0.883,1.135v0.725l-0.675,0.81
		l0.219,0.657l-0.94,0.269l0.804,1.597l1.322,1.717l2.94,1.517l1.207,1.34l2.798,0.798l1.467,0.245l0.637,0.627l2.219,1.301
		l3.138,1.302l2,0.368l2.492,1.174l2.028,0.504l1.999,0.801l1.417-0.292l2.124-1.01l1.481-0.246l2.077,0.726l1.377,0.871
		l2.866,2.741l-0.003,0.02l0.108,0.081l0.333,0.318l0.01-0.062l1.263,0.942l1.207,0.537l1.642-0.015l1.188,0.431l-0.037,0.113
		l0.117-0.084l0.107,0.039l0.799,0.667l1.533,0.11l1.08,0.534l1.091,0.266h1.714l0.235-0.593l0.572,0.163l0.113,0.264l-0.249-0.187
		l-0.519,0.776l1.471,1.463l1.094,0.71l0.68,0.942l1.292,1.162l0.696,0.597l-0.739,0.738l0.898,0.299l-0.299,0.699v0.893
		l0.472,0.788l0.908,0.258l0.633,0.95l0.963-0.963l-0.111-0.39l0.117,0.078l0.133,0.801l2.107,0.901l0.59,0.591l0.093,0.468
		l-0.301,0.454l0.672,0.841l1.407,0.511l0.797,1.061v-1.147l0.829-0.01l0.792,0.264l0.932,0.233l0.649,1.038l1.01,0.17l0.192-0.191
		l0.45,1.35l1.574-0.157l0.063-0.062l0.304-0.33l0.961-0.386l-1.402-1.685l0.131-0.264l0.606-0.135l1.099-0.71l0.588-0.822
		l0.969-0.215l1.146,0.687l0.538,0.943l0.342,0.068l-0.474,0.57l0.731,1.609l0.92,0.786l0.98,1.347l0.36,2.162l-0.523,0.782
		l0.654,2.481l-0.55,1.649l0.846,0.606l-0.893,1.229l-0.964,1.567l-1.416,0.129l-0.754,1.205l0.116,1.26l-1.121,0.14l0.43,1.003
		l-1.564,0.898l-1.759,0.585l0.285,1.28l-1.002,1.645l-0.486,1.58l-0.965,0.553l0.399,2.519l-0.597,0.894l2.065,1.434l0.92-1.149
		l0.291,0.655l-1.313,1.912l-2.213,1.69l-0.839,2.1l1.267,2.535l-0.987,1.27l2.147,1.136l2.019,1.768l0.92,1.943l1.116,1.226
		l2.455,5.423l2.711,4.905l2.23,3.468l-0.507,0.761l1.292,2.396l2.087,1.693l4.907,2.969l5.177,2.652l0.256,1.024l2.689,1.534
		l0.495,3.721l0.262,4.326l-0.902,6.048l-0.904,5.557l-0.382,5.228l-1.686,3.239l0.39,3.369l-0.773,2.322l0.644,3.995l-1.131,3.904
		l-1.936,4.386l-1.619,4.11l-1.111,0.139l0.149,3.383l0.74,2.466l-1.133,1.795l-0.898,5.007l-0.958,4.106l2.153,0.496l0.895-3.316
		l1.333,0.475l-1.295,5.181l-2.967-1.033l-1.076,4.709l-2.727,2.727l3.888,0.752l-2.421,1.763l-1.212,2.692l0.397,4.767l1.247,1.747
		l-0.633,1.516l0.857,1.859l3.403,1.567l1.798,1.115l-1.981-0.923l-2.188-0.646l-0.23,0.433l3.776,3.119l2.718,1.423l3.544,1.564
		l2.772,0.37l1.984,0.789l1.585,0.259h1.329l2.426-0.812l0.799-1.023l1.293,0.94l2.773-0.141l1.5-1.834l-4.09-0.694l-3.419-1.646
		l-1.379-1.881l-1.316-1.794h0.298l0.013,0.002l1.854,0.229l-2.374-2.032l-0.72-2.636l0.912-1.138l2.463-1.038l1.807-3.096
		l3.24-1.556l1.037-2.813l-2.804-0.562l-2.507-1.91l0.672-1.682l2.059-1.333h2.536l0.729-1.629l0.372-2.604l2.038-1.572l2.873-1.005
		l-1.205-1.893l-1.517,0.963l-1.55-0.664l-0.345-2.419l0.798-0.598l2.506,1l2.853-0.422l1.863-1.005l-0.561-1.544l0.512-1.924
		l-0.426-1.389l2.637,0.225l5.466-0.526l4.063-1.443l2.661-3.591l0.15-1.495l-1.66-1.275l0.39-1.813l-3.48-2.32l0.145-0.807
		l1.419,1.31l1.843-0.13l2.461,1.163l1.442-0.262l2.097,0.523l3.229-1.614l1.195-1.727l1.689-1.579l1.256-2.513l1.776-1.143
		l2.492-2.243l2.902-4.699l1.851-1.453l0.688-1.528l0.525-2.76l-0.386-1.417l0.364-1.943l2.089-2.6l3.147-2.028l3.036-0.807
		l1.851-1.254l4.19-1.02h3.126l0.675-1.617l2.221-1.176l0.396-2.894l2.703-3.474l0.515-3.605l0.901-1.157l0.265-1.729l0.775-4.308
		l-0.254-4.965l0.702-1.756l0.593-0.119l2.146-2.421l1.633-2.905l3.883-3.888l1.318-1.717l1.19-4.624l-0.535-1.6L937.568,241.582z
		 M826.759,123.303l0.022,0.353l1.343,1.22l-0.877,1.535l-0.396-1.089l-0.091-0.079L826.759,123.303L826.759,123.303z
		 M769.605,41.923l1.259,0.36l-1.446-0.316L769.605,41.923z M846.991,368.117l-0.216,0.158l0.134,0.183l-1.511-0.203l-2.597,1.093
		l-0.917,1.968l-0.538,0.44l0.323-2.041l2.331-0.982l1.235-0.616H846.991z M435.519,298.717l-0.143-1.607l-0.789-2.239l-2.123-2.251
		l-3.141-2.511l-0.431-3.301l-0.806,0.646l-1.14-1.267l-0.943,0.589l-0.944-2.714l-1.474-1.598l0.277-0.688l-1.968-1.264
		l-1.838-1.311l-2.883-1.377l-0.825-1.653l0.253-1.396l-0.83-2.488l-0.634-0.255l-0.352-1.285l-0.503-2.261l0.277-1.256
		l-1.365-1.087l-1.035-1.329l-1.749,1l-0.763-1.743l0.12-1.034l-0.268-1.603l-1.025-1.412l-0.139-1.087l-0.636-0.381l-0.124-1.604
		l-0.966-1.614l-1.329,1.333l0.016,0.788l-0.51,1.396l-0.69,1.518l0.363,0.848l-0.448,0.448l-0.402,2.225l0.256,1.46l-0.136,0.832
		l0.378,1.264l-0.75,2.127l-0.379,1.388l-0.515,1.296l-0.483,1.323l-1.618,0.809l-2.378-0.832l-0.377-0.75l-1.543-0.842h-0.746
		l-1.886-1.505l-1.451-0.919l-2.014-0.875l-2.105-1.484l-0.093-0.568l0.853-1.22l0.822-1.373l-0.213-0.952h0.703l1.145-1.303
		l0.711-1.565l-1.425-1.586l-0.731,0.586l-1-0.25l-1.511,0.757l-1.673-0.902l-0.799,0.398l-2.147-0.703l-1.465-1.057l-1.883-0.81
		l-2.16,0.593l2.421,1.127l0.097,1.053l-2.04,0.453l-1.334-0.398l-1.836,1.151l-1.259,1.68l0.351,0.583l-1.005,0.668l-1.378,2.208
		l0.423,1.269l-1.31-0.199h-1.562l-1.527-1.641l-2.022-1.211l-1.532,0.417l-1.327,0.444v0.477l-1.107-0.368l-0.151,0.922
		l-1.234,0.494l-0.636,1.037l-1.62,1.353l-0.23,1.824l-1.037-0.463l-1.118,1.6l0.834,1.193l-0.546,0.272l-1.218-2.437l-2.234,2.681
		l0.002,1.477l-0.117,0.934l-1.644,1.39l-0.64,1.413l-1.289,1.077l-2.736,0.889l-1.604-0.133l-0.761,0.303l-0.497,0.623
		l-1.515,0.262l-2.078,0.978l-0.742-0.373l-1.292,0.291l-2.13,0.944l-1.212,1.114l-2.266,0.932l-0.828,1.382l-0.266-2.122
		l-1.44,2.699l0.265,1.576l-0.36,1.312l-0.518,0.647l-0.43,1.722l0.692,0.83l0.276,0.92l1.372,1.997v0.589l-0.353-0.472
		l-2.091-1.142l0.87,2.072l-1.155-1.042l0.297,0.896l0.417,1.226l1.514,2.144l0.393,2.09l1.159,1.028l0.141,0.768l0.992,1.734
		l-0.116,1.548l0.411,1.609l1.517,2.619l0.258,1.455l-0.39,2.012l0.115,0.908l-0.384,0.385l-1.406,0.423v1.905l1.539,0.554
		l2.893,1.709l1.852-0.001l2.01,0.136l1.346-0.808l1.34-0.731l0.808,0.136l1.571-1.441l1.874-0.126l1.879-0.376l2.355,0.506
		l1.768-0.254h2.299l1.155-1.322l0.471-1.295l2.228-0.623l2.777-1.263l5.089,0.248l0.024-0.5l-1.092-0.055l1.658-0.483l3.425-0.895
		l4.828-0.253l2.567,1.283h1.933l3.019,1.51l-0.494,0.614l1.723,1.137l1.604,1.851l-0.134,1.472l2.434,1.37l1.111-2.356l1.664-0.911
		l1.823-1.932l0.18,1.431l-0.998,1.248l-0.383,1.53l-1.911,1.911l3.313-0.524l1.057-1.588l0.452,1.444l-1.077,1.535l2.92,0.293
		l1.168,1.026l0.626,1.238l0.534,2.133l1.899,1.764l2.659,0.796l1.525,0.254l1.528,0.38l2.448,0.817l2.342-1.975l1.034-0.345
		l-0.417,1.038l1.891,0.576l2.323,1.229l1.813-1.254l1.228-0.995l2.358-1.011l3.022-0.13l1.744-1.019l-0.156-0.979l0.382-1.78
		l0.599-1.978l1.068-1.354l0.879-2.274l0.917-1.448l0.873-1.989l2.054-1.286l1.206-2.555l0.522-1.994l-0.008-1.481l0.636-2.418
		l0.532-1.366l0.133-2.389l-1.282-2.304L435.519,298.717z M420.401,336.732l-2.049,0.514l-1.474,0.246l-2.56-0.891l-1.935-0.3
		l-0.162,1.639l1.559,2.306l0.396,1.854l1.775,2.452l1.746,0.132l0.65,0.164l1.872-1.869l1.079,0.928l0.303-2.569l0.916-0.915
		l-0.142-3.552L420.401,336.732z"/>
	<circle id="sydney" cx="431.477" cy="316.157" r="5"/>
	<circle id="san_francisco" cx="702.011" cy="125.322" r="5"/>
	<path id="flight" fill="none" stroke="#000000" d="M431.477,316.158c81.523,0,163.045-191.514,270.534-190.836"/>
	<path id="plane" fill="#231F20" d="M-2.282-6.074l0.001,3.926l-3.318,2.101C-5.7-0.66-6.141-1.885-6.775-1.891
		c-0.734,0.003-1.203,1.596-1.208,2.062l0.001,1.29l-2.328,1.474v2.858l2.327-0.827v0.116h2.406l0.001-0.972l3.299-1.172l0.593,4.73
		l-2.83,2.773v1.611l3.217-1.877h2.588l3.214,1.877v-1.611l-3.007-2.95l0.776-4.552L5.58,4.107V5.08l2.401-0.006V4.959l2.327,0.825
		V2.926L7.982,1.452L7.981,0.169c0-0.461-0.472-2.058-1.208-2.062c-0.629-0.01-1.08,1.227-1.182,1.838L2.277-2.162V-6.08
		c-0.006-1.333-0.89-5.986-2.286-5.972C-1.388-12.056-2.282-7.413-2.282-6.074z"/>
</g>
</svg>
